<?xml version='1.0' encoding='utf-8'?>
<svg xmlns="http://www.w3.org/2000/svg" viewBox="0 0 280 280" width="280" height="280">
  <defs>
    <clipPath id="token-clip">
      <circle cx="140" cy="130" r="120" />
    </clipPath>
  </defs>
  <circle cx="140" cy="130" r="120" fill="#1a1a2e" />
  <g clip-path="url(#token-clip)">
    <path d="M 174.2,118.9 L 187.6,124.2 L 187.6,135.8 L 174.2,141.1 L 182.0,153.3 L 175.1,162.7 L 161.2,159.1 L 160.3,173.5 L 149.2,177.1 L 140.0,166.0 L 130.8,177.1 L 119.7,173.5 L 118.8,159.1 L 104.9,162.7 L 98.0,153.3 L 105.8,141.1 L 92.4,135.8 L 92.4,124.2 L 105.8,118.9 L 98.0,106.7 L 104.9,97.3 L 118.8,100.9 L 119.7,86.5 L 130.8,82.9 L 140.0,94.0 L 149.2,82.9 L 160.3,86.5 L 161.2,100.9 L 175.1,97.3 L 182.0,106.7 Z" fill="none" stroke="#e0e0e0" stroke-width="3" />
    <circle cx="140" cy="130" r="22" fill="none" stroke="#33cc66" stroke-width="2.5" />
    <circle cx="140" cy="130" r="5" fill="#33cc66" />
  </g>
  <circle cx="140" cy="130" r="120" fill="none" stroke="#33cc66" stroke-width="8" />
  <text x="140" y="265" text-anchor="middle" font-family="sans-serif" font-size="12" font-weight="bold" fill="#33cc66">ABARON</text>
</svg>