<?xml version='1.0' encoding='utf-8'?>
<svg xmlns="http://www.w3.org/2000/svg" viewBox="0 0 280 280" width="280" height="280">
  <defs>
    <clipPath id="token-clip">
      <circle cx="140" cy="130" r="120" />
    </clipPath>
  </defs>
  <circle cx="140" cy="130" r="120" fill="#1a1a2e" />
  <g clip-path="url(#token-clip)">
    <path d="M 170.5,117.4 L 184.4,123.0 L 184.4,137.0 L 170.5,142.6 L 176.4,156.5 L 166.5,166.4 L 152.6,160.5 L 147.0,174.4 L 133.0,174.4 L 127.4,160.5 L 113.5,166.4 L 103.6,156.5 L 109.5,142.6 L 95.6,137.0 L 95.6,123.0 L 109.5,117.4 L 103.6,103.5 L 113.5,93.6 L 127.4,99.5 L 133.0,85.6 L 147.0,85.6 L 152.6,99.5 L 166.5,93.6 L 176.4,103.5 Z" fill="none" stroke="#e0e0e0" stroke-width="3" />
    <circle cx="140" cy="130" r="18" fill="none" stroke="#e0e0e0" stroke-width="2" />
    <path d="M 135,88 L 148,115 L 137,130 L 146,148 L 138,172 " fill="none" stroke="#885533" stroke-width="3" stroke-linecap="round" />
  </g>
  <circle cx="140" cy="130" r="120" fill="none" stroke="#885533" stroke-width="8" />
  <text x="140" y="265" text-anchor="middle" font-family="sans-serif" font-size="12" font-weight="bold" fill="#885533">SERVITOR</text>
</svg>