<?xml version='1.0' encoding='utf-8'?>
<svg xmlns="http://www.w3.org/2000/svg" viewBox="0 0 280 280" width="280" height="280">
  <defs>
    <clipPath id="token-clip">
      <circle cx="140" cy="130" r="120" />
    </clipPath>
  </defs>
  <circle cx="140" cy="130" r="120" fill="#1a1a2e" />
  <g clip-path="url(#token-clip)">
    <path d="M 169.6,117.8 L 181.6,124.2 L 181.6,135.8 L 169.6,142.2 L 173.5,155.3 L 165.3,163.5 L 152.2,159.6 L 145.8,171.6 L 134.2,171.6 L 127.8,159.6 L 114.7,163.5 L 106.5,155.3 L 110.4,142.2 L 98.4,135.8 L 98.4,124.2 L 110.4,117.8 L 106.5,104.7 L 114.7,96.5 L 127.8,100.4 L 134.2,88.4 L 145.8,88.4 L 152.2,100.4 L 165.3,96.5 L 173.5,104.7 Z" fill="none" stroke="#e0e0e0" stroke-width="2.5" />
    <line x1="120" y1="130" x2="160" y2="130" stroke="#556677" stroke-width="2" />
    <line x1="140" y1="110" x2="140" y2="150" stroke="#556677" stroke-width="2" />
    <circle cx="140" cy="130" r="4" fill="#556677" />
  </g>
  <circle cx="140" cy="130" r="120" fill="none" stroke="#556677" stroke-width="8" />
  <text x="140" y="265" text-anchor="middle" font-family="sans-serif" font-size="12" font-weight="bold" fill="#556677">SERVITOR-GUARD</text>
</svg>