<?xml version='1.0' encoding='utf-8'?>
<svg xmlns="http://www.w3.org/2000/svg" xmlns:xlink="http://www.w3.org/1999/xlink" viewBox="0 0 3500 3000" width="3500" height="3000">
  <defs>
    <radialGradient id="bgGrad" cx="50%" cy="50%" r="70%">
      <stop offset="0%" stop-color="#2e2e32" />
      <stop offset="100%" stop-color="#101014" />
    </radialGradient>
  </defs>
  <rect x="0" y="0" width="3500" height="3000" fill="url(#bgGrad)" />
  <g opacity="0.05" stroke="#ffffff" stroke-width="1">
    <line x1="0" y1="0" x2="0" y2="3000" />
    <line x1="100" y1="0" x2="100" y2="3000" />
    <line x1="200" y1="0" x2="200" y2="3000" />
    <line x1="300" y1="0" x2="300" y2="3000" />
    <line x1="400" y1="0" x2="400" y2="3000" />
    <line x1="500" y1="0" x2="500" y2="3000" />
    <line x1="600" y1="0" x2="600" y2="3000" />
    <line x1="700" y1="0" x2="700" y2="3000" />
    <line x1="800" y1="0" x2="800" y2="3000" />
    <line x1="900" y1="0" x2="900" y2="3000" />
    <line x1="1000" y1="0" x2="1000" y2="3000" />
    <line x1="1100" y1="0" x2="1100" y2="3000" />
    <line x1="1200" y1="0" x2="1200" y2="3000" />
    <line x1="1300" y1="0" x2="1300" y2="3000" />
    <line x1="1400" y1="0" x2="1400" y2="3000" />
    <line x1="1500" y1="0" x2="1500" y2="3000" />
    <line x1="1600" y1="0" x2="1600" y2="3000" />
    <line x1="1700" y1="0" x2="1700" y2="3000" />
    <line x1="1800" y1="0" x2="1800" y2="3000" />
    <line x1="1900" y1="0" x2="1900" y2="3000" />
    <line x1="2000" y1="0" x2="2000" y2="3000" />
    <line x1="2100" y1="0" x2="2100" y2="3000" />
    <line x1="2200" y1="0" x2="2200" y2="3000" />
    <line x1="2300" y1="0" x2="2300" y2="3000" />
    <line x1="2400" y1="0" x2="2400" y2="3000" />
    <line x1="2500" y1="0" x2="2500" y2="3000" />
    <line x1="2600" y1="0" x2="2600" y2="3000" />
    <line x1="2700" y1="0" x2="2700" y2="3000" />
    <line x1="2800" y1="0" x2="2800" y2="3000" />
    <line x1="2900" y1="0" x2="2900" y2="3000" />
    <line x1="3000" y1="0" x2="3000" y2="3000" />
    <line x1="3100" y1="0" x2="3100" y2="3000" />
    <line x1="3200" y1="0" x2="3200" y2="3000" />
    <line x1="3300" y1="0" x2="3300" y2="3000" />
    <line x1="3400" y1="0" x2="3400" y2="3000" />
    <line x1="3500" y1="0" x2="3500" y2="3000" />
    <line x1="0" y1="0" x2="3500" y2="0" />
    <line x1="0" y1="100" x2="3500" y2="100" />
    <line x1="0" y1="200" x2="3500" y2="200" />
    <line x1="0" y1="300" x2="3500" y2="300" />
    <line x1="0" y1="400" x2="3500" y2="400" />
    <line x1="0" y1="500" x2="3500" y2="500" />
    <line x1="0" y1="600" x2="3500" y2="600" />
    <line x1="0" y1="700" x2="3500" y2="700" />
    <line x1="0" y1="800" x2="3500" y2="800" />
    <line x1="0" y1="900" x2="3500" y2="900" />
    <line x1="0" y1="1000" x2="3500" y2="1000" />
    <line x1="0" y1="1100" x2="3500" y2="1100" />
    <line x1="0" y1="1200" x2="3500" y2="1200" />
    <line x1="0" y1="1300" x2="3500" y2="1300" />
    <line x1="0" y1="1400" x2="3500" y2="1400" />
    <line x1="0" y1="1500" x2="3500" y2="1500" />
    <line x1="0" y1="1600" x2="3500" y2="1600" />
    <line x1="0" y1="1700" x2="3500" y2="1700" />
    <line x1="0" y1="1800" x2="3500" y2="1800" />
    <line x1="0" y1="1900" x2="3500" y2="1900" />
    <line x1="0" y1="2000" x2="3500" y2="2000" />
    <line x1="0" y1="2100" x2="3500" y2="2100" />
    <line x1="0" y1="2200" x2="3500" y2="2200" />
    <line x1="0" y1="2300" x2="3500" y2="2300" />
    <line x1="0" y1="2400" x2="3500" y2="2400" />
    <line x1="0" y1="2500" x2="3500" y2="2500" />
    <line x1="0" y1="2600" x2="3500" y2="2600" />
    <line x1="0" y1="2700" x2="3500" y2="2700" />
    <line x1="0" y1="2800" x2="3500" y2="2800" />
    <line x1="0" y1="2900" x2="3500" y2="2900" />
    <line x1="0" y1="3000" x2="3500" y2="3000" />
  </g>
  <line x1="200" y1="200" x2="1005" y2="230" stroke="#0a0a0e" stroke-width="4" />
  <line x1="2495" y1="170" x2="3300" y2="200" stroke="#0a0a0e" stroke-width="4" />
  <line x1="3300" y1="200" x2="3300" y2="2800" stroke="#0a0a0e" stroke-width="4" />
  <line x1="3300" y1="2800" x2="2555" y2="2830" stroke="#0a0a0e" stroke-width="4" />
  <line x1="945" y1="2770" x2="200" y2="2800" stroke="#0a0a0e" stroke-width="4" />
  <line x1="200" y1="2800" x2="200" y2="200" stroke="#0a0a0e" stroke-width="4" />
  <rect x="1000" y="800" width="800" height="600" fill="#2a2a30" stroke="#0a0a0e" stroke-width="3" />
  <text x="1400" y="1100" fill="#c0b090" font-size="14" font-weight="bold" text-anchor="middle" dominant-baseline="central" font-family="monospace">Courtyard</text>
  <rect x="300" y="800" width="500" height="400" fill="#2a2a30" stroke="#0a0a0e" stroke-width="3" />
  <text x="550" y="1000" fill="#c0b090" font-size="14" font-weight="bold" text-anchor="middle" dominant-baseline="central" font-family="monospace">Barracks</text>
  <rect x="796" y="990" width="8" height="20" fill="#8b7355" stroke="#c0b090" stroke-width="1" />
  <rect x="2000" y="800" width="400" height="400" fill="#2a2a30" stroke="#0a0a0e" stroke-width="3" />
  <text x="2200" y="992" fill="#c0b090" font-size="14" font-weight="bold" text-anchor="middle" dominant-baseline="central" font-family="monospace">Armory</text>
  <text x="2200" y="1010" fill="#c0b090" font-size="12" text-anchor="middle" dominant-baseline="central" font-family="monospace">Relic</text>
  <circle cx="2000" cy="1000" r="8" fill="#cc3333" stroke="#ffcc00" stroke-width="2" />
  <polygon points="2200,982 2212,1000 2200,1018 2188,1000" fill="#d4a846" stroke="#ffffff" stroke-width="2" opacity="0.9" />
  <text x="2200" y="1028" fill="#c0b090" font-size="10" text-anchor="middle" font-family="monospace" opacity="0.7">Dawn's Edge?</text>
  <rect x="1200" y="300" width="500" height="400" fill="#2a2a30" stroke="#0a0a0e" stroke-width="3" />
  <text x="1450" y="492" fill="#c0b090" font-size="14" font-weight="bold" text-anchor="middle" dominant-baseline="central" font-family="monospace">Chapel of the</text>
  <text x="1450" y="510" fill="#c0b090" font-size="12" text-anchor="middle" dominant-baseline="central" font-family="monospace">Silver Drakes</text>
  <rect x="1440" y="696" width="20" height="8" fill="#8b7355" stroke="#c0b090" stroke-width="1" />
  <circle cx="1450" cy="500" r="15" fill="#8b7355" stroke="#c0b090" stroke-width="2" opacity="0.8" />
  <text x="1450" y="528" fill="#c0b090" font-size="10" text-anchor="middle" font-family="monospace" opacity="0.7">Altar</text>
  <rect x="1200" y="1600" width="400" height="300" fill="#2a2a30" stroke="#0a0a0e" stroke-width="3" />
  <text x="1400" y="1750" fill="#c0b090" font-size="14" font-weight="bold" text-anchor="middle" dominant-baseline="central" font-family="monospace">Strategium</text>
  <rect x="1390" y="1596" width="20" height="8" fill="#8b7355" stroke="#c0b090" stroke-width="1" />
  <rect x="1385" y="1735" width="30" height="30" fill="#8b7355" stroke="#c0b090" stroke-width="2" opacity="0.7" />
  <text x="1400" y="1778" fill="#c0b090" font-size="10" text-anchor="middle" font-family="monospace" opacity="0.7">Holo-Table</text>
  <circle cx="2800" cy="500" r="150" fill="#2a2a30" stroke="#0a0a0e" stroke-width="3" />
  <text x="2800" y="500" fill="#c0b090" font-size="14" font-weight="bold" text-anchor="middle" dominant-baseline="central" font-family="monospace">Beacon Tower</text>
  <rect x="300" y="300" width="200" height="200" fill="#2a2a30" stroke="#0a0a0e" stroke-width="3" />
  <text x="400" y="400" fill="#c0b090" font-size="14" font-weight="bold" text-anchor="middle" dominant-baseline="central" font-family="monospace">Tower</text>
  <rect x="3100" y="300" width="200" height="200" fill="#2a2a30" stroke="#0a0a0e" stroke-width="3" />
  <text x="3200" y="400" fill="#c0b090" font-size="14" font-weight="bold" text-anchor="middle" dominant-baseline="central" font-family="monospace">Tower</text>
  <rect x="300" y="2600" width="200" height="200" fill="#2a2a30" stroke="#0a0a0e" stroke-width="3" />
  <text x="400" y="2700" fill="#c0b090" font-size="14" font-weight="bold" text-anchor="middle" dominant-baseline="central" font-family="monospace">Tower</text>
  <rect x="3100" y="2600" width="200" height="200" fill="#2a2a30" stroke="#0a0a0e" stroke-width="3" />
  <text x="3200" y="2700" fill="#c0b090" font-size="14" font-weight="bold" text-anchor="middle" dominant-baseline="central" font-family="monospace">Tower</text>
  <rect x="1800" y="1375" width="700" height="50" fill="#2a2a30" stroke="#0a0a0e" stroke-width="2" />
  <rect x="475" y="1200" width="50" height="200" fill="#2a2a30" stroke="#0a0a0e" stroke-width="2" />
  <rect x="2500" y="1000" width="350" height="250" fill="#2a2a30" stroke="#0a0a0e" stroke-width="3" />
  <text x="2675" y="1117" fill="#c0b090" font-size="14" font-weight="bold" text-anchor="middle" dominant-baseline="central" font-family="monospace">Ruined</text>
  <text x="2675" y="1135" fill="#c0b090" font-size="12" text-anchor="middle" dominant-baseline="central" font-family="monospace">Guardroom</text>
  <rect x="2495" y="1113" width="10" height="24" fill="#555544" stroke="#887766" stroke-width="1" />
  <line x1="2496" y1="1117" x2="2504" y2="1133" stroke="#aa8866" stroke-width="2" />
  <line x1="2504" y1="1117" x2="2496" y2="1133" stroke="#aa8866" stroke-width="2" />
  <rect x="300" y="1400" width="400" height="300" fill="#2a2a30" stroke="#0a0a0e" stroke-width="3" />
  <text x="500" y="1550" fill="#c0b090" font-size="14" font-weight="bold" text-anchor="middle" dominant-baseline="central" font-family="monospace">Collapsed Cellar</text>
  <rect x="695" y="1538" width="10" height="24" fill="#555544" stroke="#887766" stroke-width="1" />
  <line x1="696" y1="1542" x2="704" y2="1558" stroke="#aa8866" stroke-width="2" />
  <line x1="704" y1="1542" x2="696" y2="1558" stroke="#aa8866" stroke-width="2" />
  <rect x="1700" y="1600" width="300" height="250" fill="#2a2a30" stroke="#0a0a0e" stroke-width="3" />
  <text x="1850" y="1717" fill="#c0b090" font-size="14" font-weight="bold" text-anchor="middle" dominant-baseline="central" font-family="monospace">Ammunition</text>
  <text x="1850" y="1735" fill="#c0b090" font-size="12" text-anchor="middle" dominant-baseline="central" font-family="monospace">Bunker</text>
  <circle cx="1700" cy="1725" r="8" fill="#cc3333" stroke="#ffcc00" stroke-width="2" />
  <rect x="2500" y="1500" width="300" height="300" fill="#2a2a30" stroke="#0a0a0e" stroke-width="3" />
  <text x="2650" y="1650" fill="#c0b090" font-size="14" font-weight="bold" text-anchor="middle" dominant-baseline="central" font-family="monospace">Generator Ruin</text>
  <rect x="2495" y="1638" width="10" height="24" fill="#555544" stroke="#887766" stroke-width="1" />
  <line x1="2496" y1="1642" x2="2504" y2="1658" stroke="#aa8866" stroke-width="2" />
  <line x1="2504" y1="1642" x2="2496" y2="1658" stroke="#aa8866" stroke-width="2" />
  <rect x="1000" y="2000" width="350" height="250" fill="#2a2a30" stroke="#0a0a0e" stroke-width="3" />
  <text x="1175" y="2117" fill="#c0b090" font-size="14" font-weight="bold" text-anchor="middle" dominant-baseline="central" font-family="monospace">Rubble-Filled</text>
  <text x="1175" y="2135" fill="#c0b090" font-size="12" text-anchor="middle" dominant-baseline="central" font-family="monospace">Room</text>
  <rect x="1163" y="1995" width="24" height="10" fill="#555544" stroke="#887766" stroke-width="1" />
  <line x1="1167" y1="1996" x2="1183" y2="2004" stroke="#aa8866" stroke-width="2" />
  <line x1="1183" y1="1996" x2="1167" y2="2004" stroke="#aa8866" stroke-width="2" />
  <rect x="300" y="2000" width="300" height="300" fill="#2a2a30" stroke="#0a0a0e" stroke-width="3" />
  <text x="450" y="2150" fill="#c0b090" font-size="14" font-weight="bold" text-anchor="middle" dominant-baseline="central" font-family="monospace">Latrine Ruin</text>
  <rect x="595" y="2138" width="10" height="24" fill="#555544" stroke="#887766" stroke-width="1" />
  <line x1="596" y1="2142" x2="604" y2="2158" stroke="#aa8866" stroke-width="2" />
  <line x1="604" y1="2142" x2="596" y2="2158" stroke="#aa8866" stroke-width="2" />
  <rect x="2500" y="2200" width="300" height="250" fill="#2a2a30" stroke="#0a0a0e" stroke-width="3" />
  <text x="2650" y="2325" fill="#c0b090" font-size="14" font-weight="bold" text-anchor="middle" dominant-baseline="central" font-family="monospace">Comms Post</text>
  <rect x="2495" y="2313" width="10" height="24" fill="#555544" stroke="#887766" stroke-width="1" />
  <line x1="2496" y1="2317" x2="2504" y2="2333" stroke="#aa8866" stroke-width="2" />
  <line x1="2504" y1="2317" x2="2496" y2="2333" stroke="#aa8866" stroke-width="2" />
  <text x="3480" y="2985" fill="#ffffff" font-size="20" text-anchor="end" font-family="monospace" opacity="0.15">Fallen Outpost</text>
</svg>