<?xml version='1.0' encoding='utf-8'?>
<svg xmlns="http://www.w3.org/2000/svg" xmlns:xlink="http://www.w3.org/1999/xlink" viewBox="0 0 4000 3500" width="4000" height="3500">
  <defs>
    <radialGradient id="bgGrad" cx="50%" cy="50%" r="70%">
      <stop offset="0%" stop-color="#2e1e32" />
      <stop offset="100%" stop-color="#100014" />
    </radialGradient>
  </defs>
  <rect x="0" y="0" width="4000" height="3500" fill="url(#bgGrad)" />
  <g opacity="0.05" stroke="#ffffff" stroke-width="1">
    <line x1="0" y1="0" x2="0" y2="3500" />
    <line x1="100" y1="0" x2="100" y2="3500" />
    <line x1="200" y1="0" x2="200" y2="3500" />
    <line x1="300" y1="0" x2="300" y2="3500" />
    <line x1="400" y1="0" x2="400" y2="3500" />
    <line x1="500" y1="0" x2="500" y2="3500" />
    <line x1="600" y1="0" x2="600" y2="3500" />
    <line x1="700" y1="0" x2="700" y2="3500" />
    <line x1="800" y1="0" x2="800" y2="3500" />
    <line x1="900" y1="0" x2="900" y2="3500" />
    <line x1="1000" y1="0" x2="1000" y2="3500" />
    <line x1="1100" y1="0" x2="1100" y2="3500" />
    <line x1="1200" y1="0" x2="1200" y2="3500" />
    <line x1="1300" y1="0" x2="1300" y2="3500" />
    <line x1="1400" y1="0" x2="1400" y2="3500" />
    <line x1="1500" y1="0" x2="1500" y2="3500" />
    <line x1="1600" y1="0" x2="1600" y2="3500" />
    <line x1="1700" y1="0" x2="1700" y2="3500" />
    <line x1="1800" y1="0" x2="1800" y2="3500" />
    <line x1="1900" y1="0" x2="1900" y2="3500" />
    <line x1="2000" y1="0" x2="2000" y2="3500" />
    <line x1="2100" y1="0" x2="2100" y2="3500" />
    <line x1="2200" y1="0" x2="2200" y2="3500" />
    <line x1="2300" y1="0" x2="2300" y2="3500" />
    <line x1="2400" y1="0" x2="2400" y2="3500" />
    <line x1="2500" y1="0" x2="2500" y2="3500" />
    <line x1="2600" y1="0" x2="2600" y2="3500" />
    <line x1="2700" y1="0" x2="2700" y2="3500" />
    <line x1="2800" y1="0" x2="2800" y2="3500" />
    <line x1="2900" y1="0" x2="2900" y2="3500" />
    <line x1="3000" y1="0" x2="3000" y2="3500" />
    <line x1="3100" y1="0" x2="3100" y2="3500" />
    <line x1="3200" y1="0" x2="3200" y2="3500" />
    <line x1="3300" y1="0" x2="3300" y2="3500" />
    <line x1="3400" y1="0" x2="3400" y2="3500" />
    <line x1="3500" y1="0" x2="3500" y2="3500" />
    <line x1="3600" y1="0" x2="3600" y2="3500" />
    <line x1="3700" y1="0" x2="3700" y2="3500" />
    <line x1="3800" y1="0" x2="3800" y2="3500" />
    <line x1="3900" y1="0" x2="3900" y2="3500" />
    <line x1="4000" y1="0" x2="4000" y2="3500" />
    <line x1="0" y1="0" x2="4000" y2="0" />
    <line x1="0" y1="100" x2="4000" y2="100" />
    <line x1="0" y1="200" x2="4000" y2="200" />
    <line x1="0" y1="300" x2="4000" y2="300" />
    <line x1="0" y1="400" x2="4000" y2="400" />
    <line x1="0" y1="500" x2="4000" y2="500" />
    <line x1="0" y1="600" x2="4000" y2="600" />
    <line x1="0" y1="700" x2="4000" y2="700" />
    <line x1="0" y1="800" x2="4000" y2="800" />
    <line x1="0" y1="900" x2="4000" y2="900" />
    <line x1="0" y1="1000" x2="4000" y2="1000" />
    <line x1="0" y1="1100" x2="4000" y2="1100" />
    <line x1="0" y1="1200" x2="4000" y2="1200" />
    <line x1="0" y1="1300" x2="4000" y2="1300" />
    <line x1="0" y1="1400" x2="4000" y2="1400" />
    <line x1="0" y1="1500" x2="4000" y2="1500" />
    <line x1="0" y1="1600" x2="4000" y2="1600" />
    <line x1="0" y1="1700" x2="4000" y2="1700" />
    <line x1="0" y1="1800" x2="4000" y2="1800" />
    <line x1="0" y1="1900" x2="4000" y2="1900" />
    <line x1="0" y1="2000" x2="4000" y2="2000" />
    <line x1="0" y1="2100" x2="4000" y2="2100" />
    <line x1="0" y1="2200" x2="4000" y2="2200" />
    <line x1="0" y1="2300" x2="4000" y2="2300" />
    <line x1="0" y1="2400" x2="4000" y2="2400" />
    <line x1="0" y1="2500" x2="4000" y2="2500" />
    <line x1="0" y1="2600" x2="4000" y2="2600" />
    <line x1="0" y1="2700" x2="4000" y2="2700" />
    <line x1="0" y1="2800" x2="4000" y2="2800" />
    <line x1="0" y1="2900" x2="4000" y2="2900" />
    <line x1="0" y1="3000" x2="4000" y2="3000" />
    <line x1="0" y1="3100" x2="4000" y2="3100" />
    <line x1="0" y1="3200" x2="4000" y2="3200" />
    <line x1="0" y1="3300" x2="4000" y2="3300" />
    <line x1="0" y1="3400" x2="4000" y2="3400" />
    <line x1="0" y1="3500" x2="4000" y2="3500" />
  </g>
  <rect x="0" y="500" width="4000" height="3000" fill="#1a3a5a" stroke="none" opacity="0.3" />
  <g opacity="0.1" stroke="#4488bb" stroke-width="1">
    <polyline points="0,499 30,504 60,507 90,508 120,506 150,502 180,497 210,493 240,492 270,493 300,497 330,502 360,506 390,508 420,507 450,504 480,499 510,495 540,492 570,492 600,495 630,500 660,504 690,507 720,508 750,506 780,501 810,497 840,493 870,492 900,494 930,498 960,502 990,506 1020,508 1050,507 1080,504 1110,499 1140,495 1170,492 1200,493 1230,495 1260,500 1290,505 1320,507 1350,508 1380,505 1410,501 1440,496 1470,493 1500,492 1530,494 1560,498 1590,502 1620,506 1650,508 1680,507 1710,503 1740,499 1770,494 1800,492 1830,493 1860,496 1890,500 1920,505 1950,508 1980,508 2010,505 2040,501 2070,496 2100,493 2130,492 2160,494 2190,498 2220,503 2250,507 2280,508 2310,507 2340,503 2370,498 2400,494 2430,492 2460,493 2490,496 2520,501 2550,505 2580,508 2610,508 2640,505 2670,501 2700,496 2730,493 2760,492 2790,494 2820,498 2850,503 2880,507 2910,508 2940,507 2970,503 3000,498 3030,494 3060,492 3090,493 3120,496 3150,501 3180,505 3210,508 3240,508 3270,505 3300,500 3330,496 3360,493 3390,492 3420,494 3450,499 3480,503 3510,507 3540,508 3570,506 3600,503 3630,498 3660,494 3690,492 3720,493 3750,496 3780,501 3810,505 3840,508 3870,507 3900,505 3930,500 3960,496 3990,493" fill="none" />
    <polyline points="0,568 30,567 60,564 90,559 120,555 150,552 180,552 210,555 240,560 270,564 300,567 330,568 360,566 390,562 420,557 450,553 480,552 510,554 540,557 570,562 600,566 630,568 660,567 690,564 720,559 750,555 780,552 810,552 840,555 870,560 900,564 930,567 960,568 990,565 1020,561 1050,557 1080,553 1110,552 1140,554 1170,558 1200,562 1230,566 1260,568 1290,567 1320,563 1350,559 1380,554 1410,552 1440,553 1470,556 1500,560 1530,565 1560,568 1590,568 1620,565 1650,561 1680,556 1710,553 1740,552 1770,554 1800,558 1830,563 1860,566 1890,568 1920,567 1950,563 1980,558 2010,554 2040,552 2070,553 2100,556 2130,560 2160,565 2190,568 2220,568 2250,565 2280,561 2310,556 2340,553 2370,552 2400,554 2430,558 2460,563 2490,567 2520,568 2550,567 2580,563 2610,558 2640,554 2670,552 2700,553 2730,556 2760,561 2790,565 2820,568 2850,568 2880,565 2910,560 2940,556 2970,553 3000,552 3030,554 3060,558 3090,563 3120,567 3150,568 3180,566 3210,563 3240,558 3270,554 3300,552 3330,553 3360,556 3390,561 3420,565 3450,568 3480,568 3510,565 3540,560 3570,556 3600,553 3630,552 3660,554 3690,559 3720,563 3750,567 3780,568 3810,566 3840,562 3870,558 3900,554 3930,552 3960,553 3990,557" fill="none" />
    <polyline points="0,622 30,617 60,613 90,612 120,613 150,617 180,622 210,626 240,628 270,627 300,624 330,619 360,615 390,612 420,612 450,615 480,620 510,624 540,627 570,628 600,626 630,621 660,617 690,613 720,612 750,614 780,618 810,622 840,626 870,628 900,627 930,624 960,619 990,615 1020,612 1050,613 1080,615 1110,620 1140,625 1170,627 1200,628 1230,625 1260,621 1290,616 1320,613 1350,612 1380,614 1410,618 1440,622 1470,626 1500,628 1530,627 1560,623 1590,619 1620,614 1650,612 1680,613 1710,616 1740,620 1770,625 1800,628 1830,628 1860,625 1890,621 1920,616 1950,613 1980,612 2010,614 2040,618 2070,623 2100,627 2130,628 2160,627 2190,623 2220,618 2250,614 2280,612 2310,613 2340,616 2370,621 2400,625 2430,628 2460,628 2490,625 2520,621 2550,616 2580,613 2610,612 2640,614 2670,618 2700,623 2730,627 2760,628 2790,627 2820,623 2850,618 2880,614 2910,612 2940,613 2970,616 3000,621 3030,625 3060,628 3090,628 3120,625 3150,620 3180,616 3210,613 3240,612 3270,614 3300,619 3330,623 3360,627 3390,628 3420,626 3450,623 3480,618 3510,614 3540,612 3570,613 3600,616 3630,621 3660,625 3690,628 3720,627 3750,625 3780,620 3810,616 3840,613 3870,612 3900,615 3930,619 3960,623 3990,627" fill="none" />
    <polyline points="0,672 30,672 60,675 90,680 120,684 150,687 180,688 210,686 240,682 270,677 300,673 330,672 360,674 390,677 420,682 450,686 480,688 510,687 540,684 570,679 600,675 630,672 660,672 690,675 720,680 750,684 780,687 810,688 840,685 870,681 900,677 930,673 960,672 990,674 1020,678 1050,682 1080,686 1110,688 1140,687 1170,683 1200,679 1230,674 1260,672 1290,673 1320,676 1350,680 1380,685 1410,688 1440,688 1470,685 1500,681 1530,676 1560,673 1590,672 1620,674 1650,678 1680,683 1710,686 1740,688 1770,687 1800,683 1830,678 1860,674 1890,672 1920,673 1950,676 1980,680 2010,685 2040,688 2070,688 2100,685 2130,681 2160,676 2190,673 2220,672 2250,674 2280,678 2310,683 2340,687 2370,688 2400,687 2430,683 2460,678 2490,674 2520,672 2550,673 2580,676 2610,681 2640,685 2670,688 2700,688 2730,685 2760,680 2790,676 2820,673 2850,672 2880,674 2910,678 2940,683 2970,687 3000,688 3030,686 3060,683 3090,678 3120,674 3150,672 3180,673 3210,676 3240,681 3270,685 3300,688 3330,688 3360,685 3390,680 3420,676 3450,673 3480,672 3510,674 3540,679 3570,683 3600,687 3630,688 3660,686 3690,682 3720,678 3750,674 3780,672 3810,673 3840,677 3870,681 3900,685 3930,688 3960,687 3990,684" fill="none" />
    <polyline points="0,737 30,742 60,746 90,748 120,747 150,744 180,739 210,735 240,732 270,732 300,735 330,740 360,744 390,747 420,748 450,746 480,741 510,737 540,733 570,732 600,734 630,738 660,742 690,746 720,748 750,747 780,744 810,739 840,735 870,732 900,733 930,735 960,740 990,745 1020,747 1050,748 1080,745 1110,741 1140,736 1170,733 1200,732 1230,734 1260,738 1290,742 1320,746 1350,748 1380,747 1410,743 1440,739 1470,734 1500,732 1530,733 1560,736 1590,740 1620,745 1650,748 1680,748 1710,745 1740,741 1770,736 1800,733 1830,732 1860,734 1890,738 1920,743 1950,747 1980,748 2010,747 2040,743 2070,738 2100,734 2130,732 2160,733 2190,736 2220,741 2250,745 2280,748 2310,748 2340,745 2370,741 2400,736 2430,733 2460,732 2490,734 2520,738 2550,743 2580,747 2610,748 2640,747 2670,743 2700,738 2730,734 2760,732 2790,733 2820,736 2850,741 2880,745 2910,748 2940,748 2970,745 3000,740 3030,736 3060,733 3090,732 3120,734 3150,739 3180,743 3210,747 3240,748 3270,746 3300,743 3330,738 3360,734 3390,732 3420,733 3450,736 3480,741 3510,745 3540,748 3570,747 3600,745 3630,740 3660,736 3690,733 3720,732 3750,735 3780,739 3810,743 3840,747 3870,748 3900,746 3930,742 3960,738 3990,734" fill="none" />
    <polyline points="0,807 30,808 60,806 90,802 120,797 150,793 180,792 210,794 240,797 270,802 300,806 330,808 360,807 390,804 420,799 450,795 480,792 510,792 540,795 570,800 600,804 630,807 660,808 690,805 720,801 750,797 780,793 810,792 840,794 870,798 900,802 930,806 960,808 990,807 1020,803 1050,799 1080,794 1110,792 1140,793 1170,796 1200,800 1230,805 1260,808 1290,808 1320,805 1350,801 1380,796 1410,793 1440,792 1470,794 1500,798 1530,803 1560,806 1590,808 1620,807 1650,803 1680,798 1710,794 1740,792 1770,793 1800,796 1830,800 1860,805 1890,808 1920,808 1950,805 1980,801 2010,796 2040,793 2070,792 2100,794 2130,798 2160,803 2190,807 2220,808 2250,807 2280,803 2310,798 2340,794 2370,792 2400,793 2430,796 2460,801 2490,805 2520,808 2550,808 2580,805 2610,800 2640,796 2670,793 2700,792 2730,794 2760,798 2790,803 2820,807 2850,808 2880,806 2910,803 2940,798 2970,794 3000,792 3030,793 3060,796 3090,801 3120,805 3150,808 3180,808 3210,805 3240,800 3270,796 3300,793 3330,792 3360,794 3390,799 3420,803 3450,807 3480,808 3510,806 3540,802 3570,798 3600,794 3630,792 3660,793 3690,797 3720,801 3750,805 3780,808 3810,807 3840,804 3870,800 3900,795 3930,793 3960,792 3990,795" fill="none" />
    <polyline points="0,864 30,859 60,855 90,852 120,852 150,855 180,860 210,864 240,867 270,868 300,866 330,861 360,857 390,853 420,852 450,854 480,858 510,862 540,866 570,868 600,867 630,864 660,859 690,855 720,852 750,853 780,855 810,860 840,865 870,867 900,868 930,865 960,861 990,856 1020,853 1050,852 1080,854 1110,858 1140,862 1170,866 1200,868 1230,867 1260,863 1290,859 1320,854 1350,852 1380,853 1410,856 1440,860 1470,865 1500,868 1530,868 1560,865 1590,861 1620,856 1650,853 1680,852 1710,854 1740,858 1770,863 1800,867 1830,868 1860,867 1890,863 1920,858 1950,854 1980,852 2010,853 2040,856 2070,861 2100,865 2130,868 2160,868 2190,865 2220,861 2250,856 2280,853 2310,852 2340,854 2370,858 2400,863 2430,867 2460,868 2490,867 2520,863 2550,858 2580,854 2610,852 2640,853 2670,856 2700,861 2730,865 2760,868 2790,868 2820,865 2850,860 2880,856 2910,853 2940,852 2970,854 3000,859 3030,863 3060,867 3090,868 3120,866 3150,863 3180,858 3210,854 3240,852 3270,853 3300,856 3330,861 3360,865 3390,868 3420,867 3450,865 3480,860 3510,856 3540,853 3570,852 3600,855 3630,859 3660,863 3690,867 3720,868 3750,866 3780,862 3810,858 3840,854 3870,852 3900,853 3930,857 3960,861 3990,866" fill="none" />
    <polyline points="0,913 30,912 60,914 90,917 120,922 150,926 180,928 210,927 240,924 270,919 300,915 330,912 360,912 390,915 420,920 450,924 480,927 510,928 540,925 570,921 600,917 630,913 660,912 690,914 720,918 750,922 780,926 810,928 840,927 870,923 900,919 930,914 960,912 990,913 1020,916 1050,920 1080,925 1110,928 1140,928 1170,925 1200,921 1230,916 1260,913 1290,912 1320,914 1350,918 1380,923 1410,926 1440,928 1470,927 1500,923 1530,918 1560,914 1590,912 1620,913 1650,916 1680,920 1710,925 1740,928 1770,928 1800,925 1830,921 1860,916 1890,913 1920,912 1950,914 1980,918 2010,923 2040,927 2070,928 2100,927 2130,923 2160,918 2190,914 2220,912 2250,913 2280,916 2310,921 2340,925 2370,928 2400,928 2430,925 2460,920 2490,916 2520,913 2550,912 2580,914 2610,918 2640,923 2670,927 2700,928 2730,926 2760,923 2790,918 2820,914 2850,912 2880,913 2910,916 2940,921 2970,925 3000,928 3030,928 3060,925 3090,920 3120,916 3150,913 3180,912 3210,914 3240,919 3270,923 3300,927 3330,928 3360,926 3390,922 3420,918 3450,914 3480,912 3510,913 3540,917 3570,921 3600,925 3630,928 3660,927 3690,924 3720,920 3750,915 3780,913 3810,912 3840,915 3870,919 3900,924 3930,927 3960,928 3990,926" fill="none" />
    <polyline points="0,975 30,980 60,984 90,987 120,988 150,986 180,981 210,977 240,973 270,972 300,974 330,978 360,982 390,986 420,988 450,987 480,984 510,979 540,975 570,972 600,973 630,975 660,980 690,985 720,987 750,988 780,985 810,981 840,976 870,973 900,972 930,974 960,978 990,982 1020,986 1050,988 1080,987 1110,983 1140,979 1170,974 1200,972 1230,973 1260,976 1290,980 1320,985 1350,988 1380,988 1410,985 1440,981 1470,976 1500,973 1530,972 1560,974 1590,978 1620,983 1650,987 1680,988 1710,987 1740,983 1770,978 1800,974 1830,972 1860,973 1890,976 1920,981 1950,985 1980,988 2010,988 2040,985 2070,981 2100,976 2130,973 2160,972 2190,974 2220,978 2250,983 2280,987 2310,988 2340,987 2370,983 2400,978 2430,974 2460,972 2490,973 2520,976 2550,981 2580,985 2610,988 2640,988 2670,985 2700,980 2730,976 2760,973 2790,972 2820,974 2850,979 2880,983 2910,987 2940,988 2970,986 3000,983 3030,978 3060,974 3090,972 3120,973 3150,976 3180,981 3210,985 3240,988 3270,987 3300,985 3330,980 3360,976 3390,973 3420,972 3450,975 3480,979 3510,983 3540,987 3570,988 3600,986 3630,982 3660,978 3690,974 3720,972 3750,973 3780,977 3810,981 3840,986 3870,988 3900,987 3930,984 3960,980 3990,975" fill="none" />
    <polyline points="0,1046 30,1048 60,1047 90,1044 120,1039 150,1035 180,1032 210,1032 240,1035 270,1040 300,1044 330,1047 360,1048 390,1045 420,1041 450,1037 480,1033 510,1032 540,1034 570,1038 600,1042 630,1046 660,1048 690,1047 720,1043 750,1039 780,1034 810,1032 840,1033 870,1036 900,1040 930,1045 960,1048 990,1048 1020,1045 1050,1041 1080,1036 1110,1033 1140,1032 1170,1034 1200,1038 1230,1043 1260,1046 1290,1048 1320,1047 1350,1043 1380,1038 1410,1034 1440,1032 1470,1033 1500,1036 1530,1040 1560,1045 1590,1048 1620,1048 1650,1045 1680,1041 1710,1036 1740,1033 1770,1032 1800,1034 1830,1038 1860,1043 1890,1047 1920,1048 1950,1047 1980,1043 2010,1038 2040,1034 2070,1032 2100,1033 2130,1036 2160,1041 2190,1045 2220,1048 2250,1048 2280,1045 2310,1040 2340,1036 2370,1033 2400,1032 2430,1034 2460,1038 2490,1043 2520,1047 2550,1048 2580,1046 2610,1043 2640,1038 2670,1034 2700,1032 2730,1033 2760,1036 2790,1041 2820,1045 2850,1048 2880,1048 2910,1045 2940,1040 2970,1036 3000,1033 3030,1032 3060,1034 3090,1039 3120,1043 3150,1047 3180,1048 3210,1046 3240,1042 3270,1038 3300,1034 3330,1032 3360,1033 3390,1037 3420,1041 3450,1045 3480,1048 3510,1047 3540,1044 3570,1040 3600,1035 3630,1033 3660,1032 3690,1035 3720,1039 3750,1044 3780,1047 3810,1048 3840,1046 3870,1042 3900,1037 3930,1034 3960,1032 3990,1033" fill="none" />
    <polyline points="0,1106 30,1101 60,1097 90,1093 120,1092 150,1094 180,1098 210,1102 240,1106 270,1108 300,1107 330,1104 360,1099 390,1095 420,1092 450,1093 480,1095 510,1100 540,1105 570,1107 600,1108 630,1105 660,1101 690,1096 720,1093 750,1092 780,1094 810,1098 840,1102 870,1106 900,1108 930,1107 960,1103 990,1099 1020,1094 1050,1092 1080,1093 1110,1096 1140,1100 1170,1105 1200,1108 1230,1108 1260,1105 1290,1101 1320,1096 1350,1093 1380,1092 1410,1094 1440,1098 1470,1103 1500,1107 1530,1108 1560,1107 1590,1103 1620,1098 1650,1094 1680,1092 1710,1093 1740,1096 1770,1101 1800,1105 1830,1108 1860,1108 1890,1105 1920,1101 1950,1096 1980,1093 2010,1092 2040,1094 2070,1098 2100,1103 2130,1107 2160,1108 2190,1107 2220,1103 2250,1098 2280,1094 2310,1092 2340,1093 2370,1096 2400,1101 2430,1105 2460,1108 2490,1108 2520,1105 2550,1100 2580,1096 2610,1093 2640,1092 2670,1094 2700,1099 2730,1103 2760,1107 2790,1108 2820,1106 2850,1103 2880,1098 2910,1094 2940,1092 2970,1093 3000,1096 3030,1101 3060,1105 3090,1108 3120,1107 3150,1105 3180,1100 3210,1096 3240,1093 3270,1092 3300,1095 3330,1099 3360,1103 3390,1107 3420,1108 3450,1106 3480,1102 3510,1098 3540,1094 3570,1092 3600,1093 3630,1097 3660,1101 3690,1106 3720,1108 3750,1107 3780,1104 3810,1100 3840,1095 3870,1092 3900,1092 3930,1095 3960,1099 3990,1104" fill="none" />
    <polyline points="0,1155 30,1152 60,1152 90,1155 120,1160 150,1164 180,1167 210,1168 240,1165 270,1161 300,1157 330,1153 360,1152 390,1154 420,1158 450,1162 480,1166 510,1168 540,1167 570,1163 600,1159 630,1154 660,1152 690,1153 720,1156 750,1160 780,1165 810,1168 840,1168 870,1165 900,1161 930,1156 960,1153 990,1152 1020,1154 1050,1158 1080,1163 1110,1166 1140,1168 1170,1167 1200,1163 1230,1158 1260,1154 1290,1152 1320,1153 1350,1156 1380,1160 1410,1165 1440,1168 1470,1168 1500,1165 1530,1161 1560,1156 1590,1153 1620,1152 1650,1154 1680,1158 1710,1163 1740,1167 1770,1168 1800,1167 1830,1163 1860,1158 1890,1154 1920,1152 1950,1153 1980,1156 2010,1161 2040,1165 2070,1168 2100,1168 2130,1165 2160,1160 2190,1156 2220,1153 2250,1152 2280,1154 2310,1158 2340,1163 2370,1167 2400,1168 2430,1166 2460,1163 2490,1158 2520,1154 2550,1152 2580,1153 2610,1156 2640,1161 2670,1165 2700,1168 2730,1168 2760,1165 2790,1160 2820,1156 2850,1153 2880,1152 2910,1154 2940,1159 2970,1163 3000,1167 3030,1168 3060,1166 3090,1162 3120,1158 3150,1154 3180,1152 3210,1153 3240,1157 3270,1161 3300,1165 3330,1168 3360,1167 3390,1164 3420,1160 3450,1155 3480,1153 3510,1152 3540,1155 3570,1159 3600,1164 3630,1167 3660,1168 3690,1166 3720,1162 3750,1157 3780,1154 3810,1152 3840,1153 3870,1157 3900,1161 3930,1166 3960,1168 3990,1167" fill="none" />
    <polyline points="0,1214 30,1218 60,1222 90,1226 120,1228 150,1227 180,1224 210,1219 240,1215 270,1212 300,1213 330,1215 360,1220 390,1225 420,1227 450,1228 480,1225 510,1221 540,1216 570,1213 600,1212 630,1214 660,1218 690,1222 720,1226 750,1228 780,1227 810,1223 840,1219 870,1214 900,1212 930,1213 960,1216 990,1220 1020,1225 1050,1228 1080,1228 1110,1225 1140,1221 1170,1216 1200,1213 1230,1212 1260,1214 1290,1218 1320,1223 1350,1227 1380,1228 1410,1227 1440,1223 1470,1218 1500,1214 1530,1212 1560,1213 1590,1216 1620,1221 1650,1225 1680,1228 1710,1228 1740,1225 1770,1221 1800,1216 1830,1213 1860,1212 1890,1214 1920,1218 1950,1223 1980,1227 2010,1228 2040,1227 2070,1223 2100,1218 2130,1214 2160,1212 2190,1213 2220,1216 2250,1221 2280,1225 2310,1228 2340,1228 2370,1225 2400,1220 2430,1216 2460,1213 2490,1212 2520,1214 2550,1219 2580,1223 2610,1227 2640,1228 2670,1226 2700,1223 2730,1218 2760,1214 2790,1212 2820,1213 2850,1216 2880,1221 2910,1225 2940,1228 2970,1227 3000,1225 3030,1220 3060,1216 3090,1213 3120,1212 3150,1215 3180,1219 3210,1223 3240,1227 3270,1228 3300,1226 3330,1222 3360,1218 3390,1214 3420,1212 3450,1213 3480,1217 3510,1221 3540,1226 3570,1228 3600,1227 3630,1224 3660,1220 3690,1215 3720,1212 3750,1212 3780,1215 3810,1219 3840,1224 3870,1227 3900,1228 3930,1226 3960,1222 3990,1217" fill="none" />
    <polyline points="0,1284 30,1287 60,1288 90,1285 120,1281 150,1277 180,1273 210,1272 240,1274 270,1278 300,1282 330,1286 360,1288 390,1287 420,1283 450,1279 480,1274 510,1272 540,1273 570,1276 600,1280 630,1285 660,1288 690,1288 720,1285 750,1281 780,1276 810,1273 840,1272 870,1274 900,1278 930,1283 960,1286 990,1288 1020,1287 1050,1283 1080,1278 1110,1274 1140,1272 1170,1273 1200,1276 1230,1280 1260,1285 1290,1288 1320,1288 1350,1285 1380,1281 1410,1276 1440,1273 1470,1272 1500,1274 1530,1278 1560,1283 1590,1287 1620,1288 1650,1287 1680,1283 1710,1278 1740,1274 1770,1272 1800,1273 1830,1276 1860,1281 1890,1285 1920,1288 1950,1288 1980,1285 2010,1280 2040,1276 2070,1273 2100,1272 2130,1274 2160,1278 2190,1283 2220,1287 2250,1288 2280,1286 2310,1283 2340,1278 2370,1274 2400,1272 2430,1273 2460,1276 2490,1281 2520,1285 2550,1288 2580,1288 2610,1285 2640,1280 2670,1276 2700,1273 2730,1272 2760,1274 2790,1279 2820,1283 2850,1287 2880,1288 2910,1286 2940,1282 2970,1278 3000,1274 3030,1272 3060,1273 3090,1277 3120,1281 3150,1285 3180,1288 3210,1287 3240,1284 3270,1280 3300,1275 3330,1273 3360,1272 3390,1275 3420,1279 3450,1284 3480,1287 3510,1288 3540,1286 3570,1282 3600,1277 3630,1274 3660,1272 3690,1273 3720,1277 3750,1281 3780,1286 3810,1288 3840,1287 3870,1284 3900,1280 3930,1275 3960,1272 3990,1272" fill="none" />
    <polyline points="0,1347 30,1344 60,1339 90,1335 120,1332 150,1333 180,1335 210,1340 240,1345 270,1347 300,1348 330,1345 360,1341 390,1336 420,1333 450,1332 480,1334 510,1338 540,1342 570,1346 600,1348 630,1347 660,1343 690,1339 720,1334 750,1332 780,1333 810,1336 840,1340 870,1345 900,1348 930,1348 960,1345 990,1341 1020,1336 1050,1333 1080,1332 1110,1334 1140,1338 1170,1343 1200,1347 1230,1348 1260,1347 1290,1343 1320,1338 1350,1334 1380,1332 1410,1333 1440,1336 1470,1341 1500,1345 1530,1348 1560,1348 1590,1345 1620,1341 1650,1336 1680,1333 1710,1332 1740,1334 1770,1338 1800,1343 1830,1347 1860,1348 1890,1347 1920,1343 1950,1338 1980,1334 2010,1332 2040,1333 2070,1336 2100,1341 2130,1345 2160,1348 2190,1348 2220,1345 2250,1340 2280,1336 2310,1333 2340,1332 2370,1334 2400,1339 2430,1343 2460,1347 2490,1348 2520,1346 2550,1343 2580,1338 2610,1334 2640,1332 2670,1333 2700,1336 2730,1341 2760,1345 2790,1348 2820,1347 2850,1345 2880,1340 2910,1336 2940,1333 2970,1332 3000,1335 3030,1339 3060,1343 3090,1347 3120,1348 3150,1346 3180,1342 3210,1338 3240,1334 3270,1332 3300,1333 3330,1337 3360,1341 3390,1346 3420,1348 3450,1347 3480,1344 3510,1340 3540,1335 3570,1332 3600,1332 3630,1335 3660,1339 3690,1344 3720,1347 3750,1348 3780,1346 3810,1342 3840,1337 3870,1334 3900,1332 3930,1333 3960,1337 3990,1342" fill="none" />
    <polyline points="0,1397 30,1393 60,1392 90,1394 120,1398 150,1402 180,1406 210,1408 240,1407 270,1403 300,1399 330,1394 360,1392 390,1393 420,1396 450,1400 480,1405 510,1408 540,1408 570,1405 600,1401 630,1396 660,1393 690,1392 720,1394 750,1398 780,1403 810,1406 840,1408 870,1407 900,1403 930,1398 960,1394 990,1392 1020,1393 1050,1396 1080,1400 1110,1405 1140,1408 1170,1408 1200,1405 1230,1401 1260,1396 1290,1393 1320,1392 1350,1394 1380,1398 1410,1403 1440,1407 1470,1408 1500,1407 1530,1403 1560,1398 1590,1394 1620,1392 1650,1393 1680,1396 1710,1401 1740,1405 1770,1408 1800,1408 1830,1405 1860,1400 1890,1396 1920,1393 1950,1392 1980,1394 2010,1398 2040,1403 2070,1407 2100,1408 2130,1406 2160,1403 2190,1398 2220,1394 2250,1392 2280,1393 2310,1396 2340,1401 2370,1405 2400,1408 2430,1408 2460,1405 2490,1400 2520,1396 2550,1393 2580,1392 2610,1394 2640,1399 2670,1403 2700,1407 2730,1408 2760,1406 2790,1402 2820,1398 2850,1394 2880,1392 2910,1393 2940,1397 2970,1401 3000,1405 3030,1408 3060,1407 3090,1404 3120,1400 3150,1395 3180,1393 3210,1392 3240,1395 3270,1399 3300,1404 3330,1407 3360,1408 3390,1406 3420,1402 3450,1397 3480,1394 3510,1392 3540,1393 3570,1397 3600,1401 3630,1406 3660,1408 3690,1407 3720,1404 3750,1400 3780,1395 3810,1392 3840,1392 3870,1395 3900,1399 3930,1404 3960,1407 3990,1408" fill="none" />
    <polyline points="0,1453 30,1455 60,1460 90,1465 120,1467 150,1468 180,1465 210,1461 240,1456 270,1453 300,1452 330,1454 360,1458 390,1462 420,1466 450,1468 480,1467 510,1463 540,1459 570,1454 600,1452 630,1453 660,1456 690,1460 720,1465 750,1468 780,1468 810,1465 840,1461 870,1456 900,1453 930,1452 960,1454 990,1458 1020,1463 1050,1467 1080,1468 1110,1467 1140,1463 1170,1458 1200,1454 1230,1452 1260,1453 1290,1456 1320,1461 1350,1465 1380,1468 1410,1468 1440,1465 1470,1461 1500,1456 1530,1453 1560,1452 1590,1454 1620,1458 1650,1463 1680,1467 1710,1468 1740,1467 1770,1463 1800,1458 1830,1454 1860,1452 1890,1453 1920,1456 1950,1461 1980,1465 2010,1468 2040,1468 2070,1465 2100,1460 2130,1456 2160,1453 2190,1452 2220,1454 2250,1459 2280,1463 2310,1467 2340,1468 2370,1466 2400,1463 2430,1458 2460,1454 2490,1452 2520,1453 2550,1456 2580,1461 2610,1465 2640,1468 2670,1467 2700,1465 2730,1460 2760,1456 2790,1453 2820,1452 2850,1455 2880,1459 2910,1463 2940,1467 2970,1468 3000,1466 3030,1462 3060,1458 3090,1454 3120,1452 3150,1453 3180,1457 3210,1461 3240,1466 3270,1468 3300,1467 3330,1464 3360,1460 3390,1455 3420,1452 3450,1452 3480,1455 3510,1459 3540,1464 3570,1467 3600,1468 3630,1466 3660,1462 3690,1457 3720,1454 3750,1452 3780,1453 3810,1457 3840,1462 3870,1466 3900,1468 3930,1467 3960,1464 3990,1460" fill="none" />
    <polyline points="0,1522 30,1526 60,1528 90,1527 120,1523 150,1519 180,1514 210,1512 240,1513 270,1516 300,1520 330,1525 360,1528 390,1528 420,1525 450,1521 480,1516 510,1513 540,1512 570,1514 600,1518 630,1523 660,1526 690,1528 720,1527 750,1523 780,1518 810,1514 840,1512 870,1513 900,1516 930,1520 960,1525 990,1528 1020,1528 1050,1525 1080,1521 1110,1516 1140,1513 1170,1512 1200,1514 1230,1518 1260,1523 1290,1527 1320,1528 1350,1527 1380,1523 1410,1518 1440,1514 1470,1512 1500,1513 1530,1516 1560,1521 1590,1525 1620,1528 1650,1528 1680,1525 1710,1520 1740,1516 1770,1513 1800,1512 1830,1514 1860,1518 1890,1523 1920,1527 1950,1528 1980,1526 2010,1523 2040,1518 2070,1514 2100,1512 2130,1513 2160,1516 2190,1521 2220,1525 2250,1528 2280,1528 2310,1525 2340,1520 2370,1516 2400,1513 2430,1512 2460,1514 2490,1519 2520,1523 2550,1527 2580,1528 2610,1526 2640,1522 2670,1518 2700,1514 2730,1512 2760,1513 2790,1517 2820,1521 2850,1525 2880,1528 2910,1527 2940,1524 2970,1520 3000,1515 3030,1513 3060,1512 3090,1515 3120,1519 3150,1524 3180,1527 3210,1528 3240,1526 3270,1522 3300,1517 3330,1514 3360,1512 3390,1513 3420,1517 3450,1521 3480,1526 3510,1528 3540,1527 3570,1524 3600,1520 3630,1515 3660,1512 3690,1512 3720,1515 3750,1519 3780,1524 3810,1527 3840,1528 3870,1526 3900,1522 3930,1517 3960,1513 3990,1512" fill="none" />
    <polyline points="0,1588 30,1585 60,1581 90,1576 120,1573 150,1572 180,1574 210,1578 240,1582 270,1586 300,1588 330,1587 360,1583 390,1579 420,1574 450,1572 480,1573 510,1576 540,1580 570,1585 600,1588 630,1588 660,1585 690,1581 720,1576 750,1573 780,1572 810,1574 840,1578 870,1583 900,1587 930,1588 960,1587 990,1583 1020,1578 1050,1574 1080,1572 1110,1573 1140,1576 1170,1581 1200,1585 1230,1588 1260,1588 1290,1585 1320,1581 1350,1576 1380,1573 1410,1572 1440,1574 1470,1578 1500,1583 1530,1587 1560,1588 1590,1587 1620,1583 1650,1578 1680,1574 1710,1572 1740,1573 1770,1576 1800,1581 1830,1585 1860,1588 1890,1588 1920,1585 1950,1580 1980,1576 2010,1573 2040,1572 2070,1574 2100,1579 2130,1583 2160,1587 2190,1588 2220,1586 2250,1583 2280,1578 2310,1574 2340,1572 2370,1573 2400,1576 2430,1581 2460,1585 2490,1588 2520,1587 2550,1585 2580,1580 2610,1576 2640,1573 2670,1572 2700,1575 2730,1579 2760,1583 2790,1587 2820,1588 2850,1586 2880,1582 2910,1578 2940,1574 2970,1572 3000,1573 3030,1577 3060,1581 3090,1586 3120,1588 3150,1587 3180,1584 3210,1580 3240,1575 3270,1572 3300,1572 3330,1575 3360,1579 3390,1584 3420,1587 3450,1588 3480,1586 3510,1582 3540,1577 3570,1574 3600,1572 3630,1573 3660,1577 3690,1582 3720,1586 3750,1588 3780,1587 3810,1584 3840,1580 3870,1575 3900,1572 3930,1572 3960,1575 3990,1579" fill="none" />
    <polyline points="0,1639 30,1634 60,1632 90,1633 120,1636 150,1640 180,1645 210,1648 240,1648 270,1645 300,1641 330,1636 360,1633 390,1632 420,1634 450,1638 480,1643 510,1646 540,1648 570,1647 600,1643 630,1638 660,1634 690,1632 720,1633 750,1636 780,1640 810,1645 840,1648 870,1648 900,1645 930,1641 960,1636 990,1633 1020,1632 1050,1634 1080,1638 1110,1643 1140,1647 1170,1648 1200,1647 1230,1643 1260,1638 1290,1634 1320,1632 1350,1633 1380,1636 1410,1641 1440,1645 1470,1648 1500,1648 1530,1645 1560,1640 1590,1636 1620,1633 1650,1632 1680,1634 1710,1638 1740,1643 1770,1647 1800,1648 1830,1646 1860,1643 1890,1638 1920,1634 1950,1632 1980,1633 2010,1636 2040,1641 2070,1645 2100,1648 2130,1648 2160,1645 2190,1640 2220,1636 2250,1633 2280,1632 2310,1634 2340,1639 2370,1643 2400,1647 2430,1648 2460,1646 2490,1642 2520,1638 2550,1634 2580,1632 2610,1633 2640,1637 2670,1641 2700,1645 2730,1648 2760,1647 2790,1644 2820,1640 2850,1635 2880,1633 2910,1632 2940,1635 2970,1639 3000,1644 3030,1647 3060,1648 3090,1646 3120,1642 3150,1637 3180,1634 3210,1632 3240,1633 3270,1637 3300,1641 3330,1646 3360,1648 3390,1647 3420,1644 3450,1640 3480,1635 3510,1632 3540,1632 3570,1635 3600,1639 3630,1644 3660,1647 3690,1648 3720,1646 3750,1642 3780,1637 3810,1633 3840,1632 3870,1633 3900,1637 3930,1642 3960,1646 3990,1648" fill="none" />
    <polyline points="0,1692 30,1694 60,1698 90,1702 120,1706 150,1708 180,1707 210,1703 240,1699 270,1694 300,1692 330,1693 360,1696 390,1700 420,1705 450,1708 480,1708 510,1705 540,1701 570,1696 600,1693 630,1692 660,1694 690,1698 720,1703 750,1707 780,1708 810,1707 840,1703 870,1698 900,1694 930,1692 960,1693 990,1696 1020,1701 1050,1705 1080,1708 1110,1708 1140,1705 1170,1701 1200,1696 1230,1693 1260,1692 1290,1694 1320,1698 1350,1703 1380,1707 1410,1708 1440,1707 1470,1703 1500,1698 1530,1694 1560,1692 1590,1693 1620,1696 1650,1701 1680,1705 1710,1708 1740,1708 1770,1705 1800,1700 1830,1696 1860,1693 1890,1692 1920,1694 1950,1699 1980,1703 2010,1707 2040,1708 2070,1706 2100,1703 2130,1698 2160,1694 2190,1692 2220,1693 2250,1696 2280,1701 2310,1705 2340,1708 2370,1707 2400,1705 2430,1700 2460,1696 2490,1693 2520,1692 2550,1695 2580,1699 2610,1703 2640,1707 2670,1708 2700,1706 2730,1702 2760,1698 2790,1694 2820,1692 2850,1693 2880,1697 2910,1701 2940,1706 2970,1708 3000,1707 3030,1704 3060,1700 3090,1695 3120,1692 3150,1692 3180,1695 3210,1699 3240,1704 3270,1707 3300,1708 3330,1706 3360,1702 3390,1697 3420,1694 3450,1692 3480,1693 3510,1697 3540,1702 3570,1706 3600,1708 3630,1707 3660,1704 3690,1700 3720,1695 3750,1692 3780,1692 3810,1695 3840,1699 3870,1704 3900,1707 3930,1708 3960,1706 3990,1702" fill="none" />
    <polyline points="0,1760 30,1765 60,1768 90,1768 120,1765 150,1761 180,1756 210,1753 240,1752 270,1754 300,1758 330,1763 360,1766 390,1768 420,1767 450,1763 480,1758 510,1754 540,1752 570,1753 600,1756 630,1760 660,1765 690,1768 720,1768 750,1765 780,1761 810,1756 840,1753 870,1752 900,1754 930,1758 960,1763 990,1767 1020,1768 1050,1767 1080,1763 1110,1758 1140,1754 1170,1752 1200,1753 1230,1756 1260,1761 1290,1765 1320,1768 1350,1768 1380,1765 1410,1760 1440,1756 1470,1753 1500,1752 1530,1754 1560,1758 1590,1763 1620,1767 1650,1768 1680,1766 1710,1763 1740,1758 1770,1754 1800,1752 1830,1753 1860,1756 1890,1761 1920,1765 1950,1768 1980,1768 2010,1765 2040,1760 2070,1756 2100,1753 2130,1752 2160,1754 2190,1759 2220,1763 2250,1767 2280,1768 2310,1766 2340,1762 2370,1758 2400,1754 2430,1752 2460,1753 2490,1757 2520,1761 2550,1765 2580,1768 2610,1767 2640,1764 2670,1760 2700,1755 2730,1753 2760,1752 2790,1755 2820,1759 2850,1764 2880,1767 2910,1768 2940,1766 2970,1762 3000,1757 3030,1754 3060,1752 3090,1753 3120,1757 3150,1761 3180,1766 3210,1768 3240,1767 3270,1764 3300,1760 3330,1755 3360,1752 3390,1752 3420,1755 3450,1759 3480,1764 3510,1767 3540,1768 3570,1766 3600,1762 3630,1757 3660,1753 3690,1752 3720,1753 3750,1757 3780,1762 3810,1766 3840,1768 3870,1767 3900,1764 3930,1759 3960,1755 3990,1752" fill="none" />
    <polyline points="0,1828 30,1827 60,1823 90,1819 120,1814 150,1812 180,1813 210,1816 240,1820 270,1825 300,1828 330,1828 360,1825 390,1821 420,1816 450,1813 480,1812 510,1814 540,1818 570,1823 600,1827 630,1828 660,1827 690,1823 720,1818 750,1814 780,1812 810,1813 840,1816 870,1821 900,1825 930,1828 960,1828 990,1825 1020,1821 1050,1816 1080,1813 1110,1812 1140,1814 1170,1818 1200,1823 1230,1827 1260,1828 1290,1827 1320,1823 1350,1818 1380,1814 1410,1812 1440,1813 1470,1816 1500,1821 1530,1825 1560,1828 1590,1828 1620,1825 1650,1820 1680,1816 1710,1813 1740,1812 1770,1814 1800,1819 1830,1823 1860,1827 1890,1828 1920,1826 1950,1823 1980,1818 2010,1814 2040,1812 2070,1813 2100,1816 2130,1821 2160,1825 2190,1828 2220,1827 2250,1825 2280,1820 2310,1816 2340,1813 2370,1812 2400,1815 2430,1819 2460,1823 2490,1827 2520,1828 2550,1826 2580,1822 2610,1818 2640,1814 2670,1812 2700,1813 2730,1817 2760,1821 2790,1826 2820,1828 2850,1827 2880,1824 2910,1820 2940,1815 2970,1812 3000,1812 3030,1815 3060,1819 3090,1824 3120,1827 3150,1828 3180,1826 3210,1822 3240,1817 3270,1814 3300,1812 3330,1813 3360,1817 3390,1822 3420,1826 3450,1828 3480,1827 3510,1824 3540,1820 3570,1815 3600,1812 3630,1812 3660,1815 3690,1819 3720,1824 3750,1827 3780,1828 3810,1826 3840,1822 3870,1817 3900,1813 3930,1812 3960,1813 3990,1817" fill="none" />
    <polyline points="0,1881 30,1876 60,1873 90,1872 120,1874 150,1878 180,1883 210,1886 240,1888 270,1887 300,1883 330,1878 360,1874 390,1872 420,1873 450,1876 480,1880 510,1885 540,1888 570,1888 600,1885 630,1881 660,1876 690,1873 720,1872 750,1874 780,1878 810,1883 840,1887 870,1888 900,1887 930,1883 960,1878 990,1874 1020,1872 1050,1873 1080,1876 1110,1881 1140,1885 1170,1888 1200,1888 1230,1885 1260,1880 1290,1876 1320,1873 1350,1872 1380,1874 1410,1878 1440,1883 1470,1887 1500,1888 1530,1886 1560,1883 1590,1878 1620,1874 1650,1872 1680,1873 1710,1876 1740,1881 1770,1885 1800,1888 1830,1888 1860,1885 1890,1880 1920,1876 1950,1873 1980,1872 2010,1874 2040,1879 2070,1883 2100,1887 2130,1888 2160,1886 2190,1882 2220,1878 2250,1874 2280,1872 2310,1873 2340,1877 2370,1881 2400,1885 2430,1888 2460,1887 2490,1884 2520,1880 2550,1875 2580,1873 2610,1872 2640,1875 2670,1879 2700,1884 2730,1887 2760,1888 2790,1886 2820,1882 2850,1877 2880,1874 2910,1872 2940,1873 2970,1877 3000,1881 3030,1886 3060,1888 3090,1887 3120,1884 3150,1880 3180,1875 3210,1872 3240,1872 3270,1875 3300,1879 3330,1884 3360,1887 3390,1888 3420,1886 3450,1882 3480,1877 3510,1873 3540,1872 3570,1873 3600,1877 3630,1882 3660,1886 3690,1888 3720,1887 3750,1884 3780,1879 3810,1875 3840,1872 3870,1872 3900,1875 3930,1879 3960,1884 3990,1887" fill="none" />
    <polyline points="0,1932 30,1933 60,1936 90,1940 120,1945 150,1948 180,1948 210,1945 240,1941 270,1936 300,1933 330,1932 360,1934 390,1938 420,1943 450,1947 480,1948 510,1947 540,1943 570,1938 600,1934 630,1932 660,1933 690,1936 720,1941 750,1945 780,1948 810,1948 840,1945 870,1941 900,1936 930,1933 960,1932 990,1934 1020,1938 1050,1943 1080,1947 1110,1948 1140,1947 1170,1943 1200,1938 1230,1934 1260,1932 1290,1933 1320,1936 1350,1941 1380,1945 1410,1948 1440,1948 1470,1945 1500,1940 1530,1936 1560,1933 1590,1932 1620,1934 1650,1939 1680,1943 1710,1947 1740,1948 1770,1946 1800,1943 1830,1938 1860,1934 1890,1932 1920,1933 1950,1936 1980,1941 2010,1945 2040,1948 2070,1947 2100,1945 2130,1940 2160,1936 2190,1933 2220,1932 2250,1935 2280,1939 2310,1943 2340,1947 2370,1948 2400,1946 2430,1942 2460,1938 2490,1934 2520,1932 2550,1933 2580,1937 2610,1941 2640,1946 2670,1948 2700,1947 2730,1944 2760,1940 2790,1935 2820,1932 2850,1932 2880,1935 2910,1939 2940,1944 2970,1947 3000,1948 3030,1946 3060,1942 3090,1937 3120,1934 3150,1932 3180,1933 3210,1937 3240,1942 3270,1946 3300,1948 3330,1947 3360,1944 3390,1940 3420,1935 3450,1932 3480,1932 3510,1935 3540,1939 3570,1944 3600,1947 3630,1948 3660,1946 3690,1942 3720,1937 3750,1933 3780,1932 3810,1933 3840,1937 3870,1942 3900,1946 3930,1948 3960,1947 3990,1944" fill="none" />
    <polyline points="0,1998 30,2003 60,2006 90,2008 120,2007 150,2003 180,1998 210,1994 240,1992 270,1993 300,1996 330,2000 360,2005 390,2008 420,2008 450,2005 480,2001 510,1996 540,1993 570,1992 600,1994 630,1998 660,2003 690,2007 720,2008 750,2007 780,2003 810,1998 840,1994 870,1992 900,1993 930,1996 960,2001 990,2005 1020,2008 1050,2008 1080,2005 1110,2000 1140,1996 1170,1993 1200,1992 1230,1994 1260,1998 1290,2003 1320,2007 1350,2008 1380,2006 1410,2003 1440,1998 1470,1994 1500,1992 1530,1993 1560,1996 1590,2001 1620,2005 1650,2008 1680,2008 1710,2005 1740,2000 1770,1996 1800,1993 1830,1992 1860,1994 1890,1999 1920,2003 1950,2007 1980,2008 2010,2006 2040,2002 2070,1998 2100,1994 2130,1992 2160,1993 2190,1997 2220,2001 2250,2005 2280,2008 2310,2007 2340,2004 2370,2000 2400,1995 2430,1993 2460,1992 2490,1995 2520,1999 2550,2004 2580,2007 2610,2008 2640,2006 2670,2002 2700,1997 2730,1994 2760,1992 2790,1993 2820,1997 2850,2001 2880,2006 2910,2008 2940,2007 2970,2004 3000,2000 3030,1995 3060,1992 3090,1992 3120,1995 3150,1999 3180,2004 3210,2007 3240,2008 3270,2006 3300,2002 3330,1997 3360,1993 3390,1992 3420,1993 3450,1997 3480,2002 3510,2006 3540,2008 3570,2007 3600,2004 3630,1999 3660,1995 3690,1992 3720,1992 3750,1995 3780,1999 3810,2004 3840,2007 3870,2008 3900,2006 3930,2002 3960,1997 3990,1993" fill="none" />
    <polyline points="0,2068 30,2068 60,2065 90,2061 120,2056 150,2053 180,2052 210,2054 240,2058 270,2063 300,2067 330,2068 360,2067 390,2063 420,2058 450,2054 480,2052 510,2053 540,2056 570,2061 600,2065 630,2068 660,2068 690,2065 720,2061 750,2056 780,2053 810,2052 840,2054 870,2058 900,2063 930,2067 960,2068 990,2067 1020,2063 1050,2058 1080,2054 1110,2052 1140,2053 1170,2056 1200,2061 1230,2065 1260,2068 1290,2068 1320,2065 1350,2060 1380,2056 1410,2053 1440,2052 1470,2054 1500,2059 1530,2063 1560,2067 1590,2068 1620,2066 1650,2063 1680,2058 1710,2054 1740,2052 1770,2053 1800,2056 1830,2061 1860,2065 1890,2068 1920,2067 1950,2065 1980,2060 2010,2056 2040,2053 2070,2052 2100,2055 2130,2059 2160,2063 2190,2067 2220,2068 2250,2066 2280,2062 2310,2058 2340,2054 2370,2052 2400,2053 2430,2057 2460,2061 2490,2066 2520,2068 2550,2067 2580,2064 2610,2060 2640,2055 2670,2052 2700,2052 2730,2055 2760,2059 2790,2064 2820,2067 2850,2068 2880,2066 2910,2062 2940,2057 2970,2054 3000,2052 3030,2053 3060,2057 3090,2062 3120,2066 3150,2068 3180,2067 3210,2064 3240,2060 3270,2055 3300,2052 3330,2052 3360,2055 3390,2059 3420,2064 3450,2067 3480,2068 3510,2066 3540,2062 3570,2057 3600,2053 3630,2052 3660,2053 3690,2057 3720,2062 3750,2066 3780,2068 3810,2067 3840,2064 3870,2059 3900,2055 3930,2052 3960,2052 3990,2055" fill="none" />
    <polyline points="0,2123 30,2118 60,2114 90,2112 120,2113 150,2116 180,2120 210,2125 240,2128 270,2128 300,2125 330,2121 360,2116 390,2113 420,2112 450,2114 480,2118 510,2123 540,2127 570,2128 600,2127 630,2123 660,2118 690,2114 720,2112 750,2113 780,2116 810,2121 840,2125 870,2128 900,2128 930,2125 960,2120 990,2116 1020,2113 1050,2112 1080,2114 1110,2118 1140,2123 1170,2127 1200,2128 1230,2126 1260,2123 1290,2118 1320,2114 1350,2112 1380,2113 1410,2116 1440,2121 1470,2125 1500,2128 1530,2128 1560,2125 1590,2120 1620,2116 1650,2113 1680,2112 1710,2114 1740,2119 1770,2123 1800,2127 1830,2128 1860,2126 1890,2122 1920,2118 1950,2114 1980,2112 2010,2113 2040,2117 2070,2121 2100,2125 2130,2128 2160,2127 2190,2124 2220,2120 2250,2115 2280,2113 2310,2112 2340,2115 2370,2119 2400,2124 2430,2127 2460,2128 2490,2126 2520,2122 2550,2117 2580,2114 2610,2112 2640,2113 2670,2117 2700,2121 2730,2126 2760,2128 2790,2127 2820,2124 2850,2120 2880,2115 2910,2112 2940,2112 2970,2115 3000,2119 3030,2124 3060,2127 3090,2128 3120,2126 3150,2122 3180,2117 3210,2113 3240,2112 3270,2113 3300,2117 3330,2122 3360,2126 3390,2128 3420,2127 3450,2124 3480,2119 3510,2115 3540,2112 3570,2112 3600,2115 3630,2119 3660,2124 3690,2127 3720,2128 3750,2126 3780,2122 3810,2117 3840,2113 3870,2112 3900,2114 3930,2117 3960,2122 3990,2126" fill="none" />
    <polyline points="0,2173 30,2172 60,2174 90,2178 120,2183 150,2187 180,2188 210,2187 240,2183 270,2178 300,2174 330,2172 360,2173 390,2176 420,2181 450,2185 480,2188 510,2188 540,2185 570,2181 600,2176 630,2173 660,2172 690,2174 720,2178 750,2183 780,2187 810,2188 840,2187 870,2183 900,2178 930,2174 960,2172 990,2173 1020,2176 1050,2181 1080,2185 1110,2188 1140,2188 1170,2185 1200,2180 1230,2176 1260,2173 1290,2172 1320,2174 1350,2179 1380,2183 1410,2187 1440,2188 1470,2186 1500,2183 1530,2178 1560,2174 1590,2172 1620,2173 1650,2176 1680,2181 1710,2185 1740,2188 1770,2187 1800,2185 1830,2180 1860,2176 1890,2173 1920,2172 1950,2175 1980,2179 2010,2183 2040,2187 2070,2188 2100,2186 2130,2182 2160,2178 2190,2174 2220,2172 2250,2173 2280,2177 2310,2181 2340,2186 2370,2188 2400,2187 2430,2184 2460,2180 2490,2175 2520,2172 2550,2172 2580,2175 2610,2179 2640,2184 2670,2187 2700,2188 2730,2186 2760,2182 2790,2177 2820,2174 2850,2172 2880,2173 2910,2177 2940,2182 2970,2186 3000,2188 3030,2187 3060,2184 3090,2180 3120,2175 3150,2172 3180,2172 3210,2175 3240,2179 3270,2184 3300,2187 3330,2188 3360,2186 3390,2182 3420,2177 3450,2173 3480,2172 3510,2173 3540,2177 3570,2182 3600,2186 3630,2188 3660,2187 3690,2184 3720,2179 3750,2175 3780,2172 3810,2172 3840,2175 3870,2180 3900,2184 3930,2187 3960,2188 3990,2186" fill="none" />
    <polyline points="0,2236 30,2240 60,2245 90,2248 120,2248 150,2245 180,2241 210,2236 240,2233 270,2232 300,2234 330,2238 360,2243 390,2247 420,2248 450,2247 480,2243 510,2238 540,2234 570,2232 600,2233 630,2236 660,2241 690,2245 720,2248 750,2248 780,2245 810,2240 840,2236 870,2233 900,2232 930,2234 960,2238 990,2243 1020,2247 1050,2248 1080,2246 1110,2243 1140,2238 1170,2234 1200,2232 1230,2233 1260,2236 1290,2241 1320,2245 1350,2248 1380,2248 1410,2245 1440,2240 1470,2236 1500,2233 1530,2232 1560,2234 1590,2239 1620,2243 1650,2247 1680,2248 1710,2246 1740,2242 1770,2238 1800,2234 1830,2232 1860,2233 1890,2237 1920,2241 1950,2245 1980,2248 2010,2247 2040,2244 2070,2240 2100,2235 2130,2233 2160,2232 2190,2235 2220,2239 2250,2244 2280,2247 2310,2248 2340,2246 2370,2242 2400,2237 2430,2234 2460,2232 2490,2233 2520,2237 2550,2241 2580,2246 2610,2248 2640,2247 2670,2244 2700,2240 2730,2235 2760,2232 2790,2232 2820,2235 2850,2239 2880,2244 2910,2247 2940,2248 2970,2246 3000,2242 3030,2237 3060,2233 3090,2232 3120,2233 3150,2237 3180,2242 3210,2246 3240,2248 3270,2247 3300,2244 3330,2239 3360,2235 3390,2232 3420,2232 3450,2235 3480,2239 3510,2244 3540,2247 3570,2248 3600,2246 3630,2242 3660,2237 3690,2233 3720,2232 3750,2234 3780,2237 3810,2242 3840,2246 3870,2248 3900,2247 3930,2244 3960,2239 3990,2235" fill="none" />
    <polyline points="0,2307 30,2308 60,2307 90,2303 120,2298 150,2294 180,2292 210,2293 240,2296 270,2301 300,2305 330,2308 360,2308 390,2305 420,2301 450,2296 480,2293 510,2292 540,2294 570,2298 600,2303 630,2307 660,2308 690,2307 720,2303 750,2298 780,2294 810,2292 840,2293 870,2296 900,2301 930,2305 960,2308 990,2308 1020,2305 1050,2300 1080,2296 1110,2293 1140,2292 1170,2294 1200,2299 1230,2303 1260,2307 1290,2308 1320,2306 1350,2303 1380,2298 1410,2294 1440,2292 1470,2293 1500,2296 1530,2301 1560,2305 1590,2308 1620,2307 1650,2305 1680,2300 1710,2296 1740,2293 1770,2292 1800,2295 1830,2299 1860,2303 1890,2307 1920,2308 1950,2306 1980,2302 2010,2298 2040,2294 2070,2292 2100,2293 2130,2297 2160,2301 2190,2306 2220,2308 2250,2307 2280,2304 2310,2300 2340,2295 2370,2292 2400,2292 2430,2295 2460,2299 2490,2304 2520,2307 2550,2308 2580,2306 2610,2302 2640,2297 2670,2294 2700,2292 2730,2293 2760,2297 2790,2302 2820,2306 2850,2308 2880,2307 2910,2304 2940,2300 2970,2295 3000,2292 3030,2292 3060,2295 3090,2299 3120,2304 3150,2307 3180,2308 3210,2306 3240,2302 3270,2297 3300,2293 3330,2292 3360,2293 3390,2297 3420,2302 3450,2306 3480,2308 3510,2307 3540,2304 3570,2299 3600,2295 3630,2292 3660,2292 3690,2295 3720,2300 3750,2304 3780,2307 3810,2308 3840,2306 3870,2301 3900,2297 3930,2293 3960,2292 3990,2294" fill="none" />
    <polyline points="0,2365 30,2361 60,2356 90,2353 120,2352 150,2354 180,2358 210,2363 240,2367 270,2368 300,2367 330,2363 360,2358 390,2354 420,2352 450,2353 480,2356 510,2361 540,2365 570,2368 600,2368 630,2365 660,2360 690,2356 720,2353 750,2352 780,2354 810,2358 840,2363 870,2367 900,2368 930,2366 960,2363 990,2358 1020,2354 1050,2352 1080,2353 1110,2356 1140,2361 1170,2365 1200,2368 1230,2368 1260,2365 1290,2360 1320,2356 1350,2353 1380,2352 1410,2354 1440,2359 1470,2363 1500,2367 1530,2368 1560,2366 1590,2362 1620,2358 1650,2354 1680,2352 1710,2353 1740,2357 1770,2361 1800,2365 1830,2368 1860,2367 1890,2364 1920,2360 1950,2355 1980,2353 2010,2352 2040,2355 2070,2359 2100,2364 2130,2367 2160,2368 2190,2366 2220,2362 2250,2357 2280,2354 2310,2352 2340,2353 2370,2357 2400,2361 2430,2366 2460,2368 2490,2367 2520,2364 2550,2360 2580,2355 2610,2352 2640,2352 2670,2355 2700,2359 2730,2364 2760,2367 2790,2368 2820,2366 2850,2362 2880,2357 2910,2353 2940,2352 2970,2353 3000,2357 3030,2362 3060,2366 3090,2368 3120,2367 3150,2364 3180,2359 3210,2355 3240,2352 3270,2352 3300,2355 3330,2359 3360,2364 3390,2367 3420,2368 3450,2366 3480,2362 3510,2357 3540,2353 3570,2352 3600,2354 3630,2357 3660,2362 3690,2366 3720,2368 3750,2367 3780,2364 3810,2359 3840,2355 3870,2352 3900,2352 3930,2355 3960,2360 3990,2364" fill="none" />
    <polyline points="0,2414 30,2412 60,2413 90,2416 120,2421 150,2425 180,2428 210,2428 240,2425 270,2421 300,2416 330,2413 360,2412 390,2414 420,2418 450,2423 480,2427 510,2428 540,2427 570,2423 600,2418 630,2414 660,2412 690,2413 720,2416 750,2421 780,2425 810,2428 840,2428 870,2425 900,2420 930,2416 960,2413 990,2412 1020,2414 1050,2419 1080,2423 1110,2427 1140,2428 1170,2426 1200,2423 1230,2418 1260,2414 1290,2412 1320,2413 1350,2416 1380,2421 1410,2425 1440,2428 1470,2427 1500,2425 1530,2420 1560,2416 1590,2413 1620,2412 1650,2415 1680,2419 1710,2423 1740,2427 1770,2428 1800,2426 1830,2422 1860,2418 1890,2414 1920,2412 1950,2413 1980,2417 2010,2421 2040,2426 2070,2428 2100,2427 2130,2424 2160,2420 2190,2415 2220,2412 2250,2412 2280,2415 2310,2419 2340,2424 2370,2427 2400,2428 2430,2426 2460,2422 2490,2417 2520,2414 2550,2412 2580,2413 2610,2417 2640,2422 2670,2426 2700,2428 2730,2427 2760,2424 2790,2420 2820,2415 2850,2412 2880,2412 2910,2415 2940,2419 2970,2424 3000,2427 3030,2428 3060,2426 3090,2422 3120,2417 3150,2413 3180,2412 3210,2413 3240,2417 3270,2422 3300,2426 3330,2428 3360,2427 3390,2424 3420,2419 3450,2415 3480,2412 3510,2412 3540,2415 3570,2420 3600,2424 3630,2427 3660,2428 3690,2426 3720,2421 3750,2417 3780,2413 3810,2412 3840,2414 3870,2417 3900,2422 3930,2426 3960,2428 3990,2427" fill="none" />
    <polyline points="0,2474 30,2478 60,2483 90,2487 120,2488 150,2487 180,2483 210,2478 240,2474 270,2472 300,2473 330,2476 360,2481 390,2485 420,2488 450,2488 480,2485 510,2480 540,2476 570,2473 600,2472 630,2474 660,2478 690,2483 720,2487 750,2488 780,2486 810,2483 840,2478 870,2474 900,2472 930,2473 960,2476 990,2481 1020,2485 1050,2488 1080,2488 1110,2485 1140,2480 1170,2476 1200,2473 1230,2472 1260,2474 1290,2479 1320,2483 1350,2487 1380,2488 1410,2486 1440,2482 1470,2478 1500,2474 1530,2472 1560,2473 1590,2477 1620,2481 1650,2485 1680,2488 1710,2487 1740,2484 1770,2480 1800,2475 1830,2473 1860,2472 1890,2475 1920,2479 1950,2484 1980,2487 2010,2488 2040,2486 2070,2482 2100,2477 2130,2474 2160,2472 2190,2473 2220,2477 2250,2481 2280,2486 2310,2488 2340,2487 2370,2484 2400,2480 2430,2475 2460,2472 2490,2472 2520,2475 2550,2479 2580,2484 2610,2487 2640,2488 2670,2486 2700,2482 2730,2477 2760,2473 2790,2472 2820,2473 2850,2477 2880,2482 2910,2486 2940,2488 2970,2487 3000,2484 3030,2479 3060,2475 3090,2472 3120,2472 3150,2475 3180,2479 3210,2484 3240,2487 3270,2488 3300,2486 3330,2482 3360,2477 3390,2473 3420,2472 3450,2474 3480,2477 3510,2482 3540,2486 3570,2488 3600,2487 3630,2484 3660,2479 3690,2475 3720,2472 3750,2472 3780,2475 3810,2480 3840,2484 3870,2487 3900,2488 3930,2486 3960,2481 3990,2477" fill="none" />
    <polyline points="0,2545 30,2548 60,2548 90,2545 120,2541 150,2536 180,2533 210,2532 240,2534 270,2538 300,2543 330,2547 360,2548 390,2547 420,2543 450,2538 480,2534 510,2532 540,2533 570,2536 600,2541 630,2545 660,2548 690,2548 720,2545 750,2540 780,2536 810,2533 840,2532 870,2534 900,2539 930,2543 960,2547 990,2548 1020,2546 1050,2543 1080,2538 1110,2534 1140,2532 1170,2533 1200,2536 1230,2541 1260,2545 1290,2548 1320,2547 1350,2545 1380,2540 1410,2536 1440,2533 1470,2532 1500,2535 1530,2539 1560,2543 1590,2547 1620,2548 1650,2546 1680,2542 1710,2538 1740,2534 1770,2532 1800,2533 1830,2537 1860,2541 1890,2546 1920,2548 1950,2547 1980,2544 2010,2540 2040,2535 2070,2532 2100,2532 2130,2535 2160,2539 2190,2544 2220,2547 2250,2548 2280,2546 2310,2542 2340,2537 2370,2534 2400,2532 2430,2533 2460,2537 2490,2542 2520,2546 2550,2548 2580,2547 2610,2544 2640,2540 2670,2535 2700,2532 2730,2532 2760,2535 2790,2539 2820,2544 2850,2547 2880,2548 2910,2546 2940,2542 2970,2537 3000,2533 3030,2532 3060,2533 3090,2537 3120,2542 3150,2546 3180,2548 3210,2547 3240,2544 3270,2539 3300,2535 3330,2532 3360,2532 3390,2535 3420,2540 3450,2544 3480,2547 3510,2548 3540,2546 3570,2541 3600,2537 3630,2533 3660,2532 3690,2534 3720,2537 3750,2542 3780,2546 3810,2548 3840,2547 3870,2544 3900,2539 3930,2535 3960,2532 3990,2533" fill="none" />
    <polyline points="0,2607 30,2603 60,2598 90,2594 120,2592 150,2593 180,2596 210,2601 240,2605 270,2608 300,2608 330,2605 360,2600 390,2596 420,2593 450,2592 480,2594 510,2598 540,2603 570,2607 600,2608 630,2606 660,2603 690,2598 720,2594 750,2592 780,2593 810,2596 840,2601 870,2605 900,2608 930,2608 960,2605 990,2600 1020,2596 1050,2593 1080,2592 1110,2594 1140,2599 1170,2603 1200,2607 1230,2608 1260,2606 1290,2602 1320,2598 1350,2594 1380,2592 1410,2593 1440,2597 1470,2601 1500,2605 1530,2608 1560,2607 1590,2604 1620,2600 1650,2595 1680,2593 1710,2592 1740,2595 1770,2599 1800,2604 1830,2607 1860,2608 1890,2606 1920,2602 1950,2597 1980,2594 2010,2592 2040,2593 2070,2597 2100,2601 2130,2606 2160,2608 2190,2607 2220,2604 2250,2600 2280,2595 2310,2592 2340,2592 2370,2595 2400,2599 2430,2604 2460,2607 2490,2608 2520,2606 2550,2602 2580,2597 2610,2593 2640,2592 2670,2593 2700,2597 2730,2602 2760,2606 2790,2608 2820,2607 2850,2604 2880,2599 2910,2595 2940,2592 2970,2592 3000,2595 3030,2599 3060,2604 3090,2607 3120,2608 3150,2606 3180,2602 3210,2597 3240,2593 3270,2592 3300,2594 3330,2597 3360,2602 3390,2606 3420,2608 3450,2607 3480,2604 3510,2599 3540,2595 3570,2592 3600,2592 3630,2595 3660,2600 3690,2604 3720,2607 3750,2608 3780,2606 3810,2601 3840,2597 3870,2593 3900,2592 3930,2594 3960,2598 3990,2602" fill="none" />
    <polyline points="0,2656 30,2653 60,2652 90,2654 120,2658 150,2663 180,2667 210,2668 240,2667 270,2663 300,2658 330,2654 360,2652 390,2653 420,2656 450,2661 480,2665 510,2668 540,2668 570,2665 600,2660 630,2656 660,2653 690,2652 720,2654 750,2659 780,2663 810,2667 840,2668 870,2666 900,2663 930,2658 960,2654 990,2652 1020,2653 1050,2656 1080,2661 1110,2665 1140,2668 1170,2667 1200,2665 1230,2660 1260,2656 1290,2653 1320,2652 1350,2655 1380,2659 1410,2663 1440,2667 1470,2668 1500,2666 1530,2662 1560,2658 1590,2654 1620,2652 1650,2653 1680,2657 1710,2661 1740,2666 1770,2668 1800,2667 1830,2664 1860,2660 1890,2655 1920,2652 1950,2652 1980,2655 2010,2659 2040,2664 2070,2667 2100,2668 2130,2666 2160,2662 2190,2657 2220,2654 2250,2652 2280,2653 2310,2657 2340,2662 2370,2666 2400,2668 2430,2667 2460,2664 2490,2660 2520,2655 2550,2652 2580,2652 2610,2655 2640,2659 2670,2664 2700,2667 2730,2668 2760,2666 2790,2662 2820,2657 2850,2653 2880,2652 2910,2653 2940,2657 2970,2662 3000,2666 3030,2668 3060,2667 3090,2664 3120,2659 3150,2655 3180,2652 3210,2652 3240,2655 3270,2660 3300,2664 3330,2667 3360,2668 3390,2666 3420,2661 3450,2657 3480,2653 3510,2652 3540,2654 3570,2657 3600,2662 3630,2666 3660,2668 3690,2667 3720,2664 3750,2659 3780,2655 3810,2652 3840,2653 3870,2655 3900,2660 3930,2664 3960,2667 3990,2668" fill="none" />
    <polyline points="0,2713 30,2716 60,2721 90,2725 120,2728 150,2728 180,2725 210,2720 240,2716 270,2713 300,2712 330,2714 360,2718 390,2723 420,2727 450,2728 480,2726 510,2723 540,2718 570,2714 600,2712 630,2713 660,2716 690,2721 720,2725 750,2728 780,2728 810,2725 840,2720 870,2716 900,2713 930,2712 960,2714 990,2719 1020,2723 1050,2727 1080,2728 1110,2726 1140,2722 1170,2718 1200,2714 1230,2712 1260,2713 1290,2717 1320,2721 1350,2725 1380,2728 1410,2727 1440,2724 1470,2720 1500,2715 1530,2713 1560,2712 1590,2715 1620,2719 1650,2724 1680,2727 1710,2728 1740,2726 1770,2722 1800,2717 1830,2714 1860,2712 1890,2713 1920,2717 1950,2721 1980,2726 2010,2728 2040,2727 2070,2724 2100,2720 2130,2715 2160,2712 2190,2712 2220,2715 2250,2719 2280,2724 2310,2727 2340,2728 2370,2726 2400,2722 2430,2717 2460,2713 2490,2712 2520,2713 2550,2717 2580,2722 2610,2726 2640,2728 2670,2727 2700,2724 2730,2719 2760,2715 2790,2712 2820,2712 2850,2715 2880,2719 2910,2724 2940,2727 2970,2728 3000,2726 3030,2722 3060,2717 3090,2713 3120,2712 3150,2714 3180,2717 3210,2722 3240,2726 3270,2728 3300,2727 3330,2724 3360,2719 3390,2715 3420,2712 3450,2712 3480,2715 3510,2720 3540,2724 3570,2727 3600,2728 3630,2726 3660,2721 3690,2717 3720,2713 3750,2712 3780,2714 3810,2718 3840,2722 3870,2726 3900,2728 3930,2727 3960,2724 3990,2719" fill="none" />
    <polyline points="0,2783 30,2787 60,2788 90,2787 120,2783 150,2778 180,2774 210,2772 240,2773 270,2776 300,2781 330,2785 360,2788 390,2788 420,2785 450,2780 480,2776 510,2773 540,2772 570,2774 600,2779 630,2783 660,2787 690,2788 720,2786 750,2783 780,2778 810,2774 840,2772 870,2773 900,2776 930,2781 960,2785 990,2788 1020,2787 1050,2785 1080,2780 1110,2776 1140,2773 1170,2772 1200,2775 1230,2779 1260,2783 1290,2787 1320,2788 1350,2786 1380,2782 1410,2778 1440,2774 1470,2772 1500,2773 1530,2777 1560,2781 1590,2786 1620,2788 1650,2787 1680,2784 1710,2780 1740,2775 1770,2772 1800,2772 1830,2775 1860,2779 1890,2784 1920,2787 1950,2788 1980,2786 2010,2782 2040,2777 2070,2774 2100,2772 2130,2773 2160,2777 2190,2782 2220,2786 2250,2788 2280,2787 2310,2784 2340,2780 2370,2775 2400,2772 2430,2772 2460,2775 2490,2779 2520,2784 2550,2787 2580,2788 2610,2786 2640,2782 2670,2777 2700,2773 2730,2772 2760,2773 2790,2777 2820,2782 2850,2786 2880,2788 2910,2787 2940,2784 2970,2779 3000,2775 3030,2772 3060,2772 3090,2775 3120,2780 3150,2784 3180,2787 3210,2788 3240,2786 3270,2781 3300,2777 3330,2773 3360,2772 3390,2774 3420,2777 3450,2782 3480,2786 3510,2788 3540,2787 3570,2784 3600,2779 3630,2775 3660,2772 3690,2773 3720,2775 3750,2780 3780,2784 3810,2787 3840,2788 3870,2785 3900,2781 3930,2777 3960,2773 3990,2772" fill="none" />
    <polyline points="0,2848 30,2845 60,2840 90,2836 120,2833 150,2832 180,2834 210,2838 240,2843 270,2847 300,2848 330,2846 360,2843 390,2838 420,2834 450,2832 480,2833 510,2836 540,2841 570,2845 600,2848 630,2848 660,2845 690,2840 720,2836 750,2833 780,2832 810,2834 840,2839 870,2843 900,2847 930,2848 960,2846 990,2842 1020,2838 1050,2834 1080,2832 1110,2833 1140,2837 1170,2841 1200,2845 1230,2848 1260,2847 1290,2844 1320,2840 1350,2835 1380,2833 1410,2832 1440,2835 1470,2839 1500,2844 1530,2847 1560,2848 1590,2846 1620,2842 1650,2837 1680,2834 1710,2832 1740,2833 1770,2837 1800,2841 1830,2846 1860,2848 1890,2847 1920,2844 1950,2840 1980,2835 2010,2832 2040,2832 2070,2835 2100,2839 2130,2844 2160,2847 2190,2848 2220,2846 2250,2842 2280,2837 2310,2833 2340,2832 2370,2833 2400,2837 2430,2842 2460,2846 2490,2848 2520,2847 2550,2844 2580,2839 2610,2835 2640,2832 2670,2832 2700,2835 2730,2839 2760,2844 2790,2847 2820,2848 2850,2846 2880,2842 2910,2837 2940,2833 2970,2832 3000,2834 3030,2837 3060,2842 3090,2846 3120,2848 3150,2847 3180,2844 3210,2839 3240,2835 3270,2832 3300,2832 3330,2835 3360,2840 3390,2844 3420,2847 3450,2848 3480,2846 3510,2841 3540,2837 3570,2833 3600,2832 3630,2834 3660,2838 3690,2842 3720,2846 3750,2848 3780,2847 3810,2844 3840,2839 3870,2835 3900,2832 3930,2833 3960,2836 3990,2840" fill="none" />
    <polyline points="0,2898 30,2894 60,2892 90,2893 120,2896 150,2901 180,2905 210,2908 240,2908 270,2905 300,2900 330,2896 360,2893 390,2892 420,2894 450,2899 480,2903 510,2907 540,2908 570,2906 600,2903 630,2898 660,2894 690,2892 720,2893 750,2896 780,2901 810,2905 840,2908 870,2907 900,2905 930,2900 960,2896 990,2893 1020,2892 1050,2895 1080,2899 1110,2903 1140,2907 1170,2908 1200,2906 1230,2902 1260,2898 1290,2894 1320,2892 1350,2893 1380,2897 1410,2901 1440,2906 1470,2908 1500,2907 1530,2904 1560,2900 1590,2895 1620,2892 1650,2892 1680,2895 1710,2899 1740,2904 1770,2907 1800,2908 1830,2906 1860,2902 1890,2897 1920,2894 1950,2892 1980,2893 2010,2897 2040,2902 2070,2906 2100,2908 2130,2907 2160,2904 2190,2900 2220,2895 2250,2892 2280,2892 2310,2895 2340,2899 2370,2904 2400,2907 2430,2908 2460,2906 2490,2902 2520,2897 2550,2893 2580,2892 2610,2893 2640,2897 2670,2902 2700,2906 2730,2908 2760,2907 2790,2904 2820,2899 2850,2895 2880,2892 2910,2892 2940,2895 2970,2900 3000,2904 3030,2907 3060,2908 3090,2906 3120,2901 3150,2897 3180,2893 3210,2892 3240,2894 3270,2897 3300,2902 3330,2906 3360,2908 3390,2907 3420,2904 3450,2899 3480,2895 3510,2892 3540,2893 3570,2895 3600,2900 3630,2904 3660,2907 3690,2908 3720,2905 3750,2901 3780,2897 3810,2893 3840,2892 3870,2894 3900,2898 3930,2902 3960,2906 3990,2908" fill="none" />
    <polyline points="0,2952 30,2954 60,2958 90,2963 120,2967 150,2968 180,2966 210,2963 240,2958 270,2954 300,2952 330,2953 360,2956 390,2961 420,2965 450,2968 480,2968 510,2965 540,2960 570,2956 600,2953 630,2952 660,2954 690,2959 720,2963 750,2967 780,2968 810,2966 840,2962 870,2958 900,2954 930,2952 960,2953 990,2957 1020,2961 1050,2965 1080,2968 1110,2967 1140,2964 1170,2960 1200,2955 1230,2953 1260,2952 1290,2955 1320,2959 1350,2964 1380,2967 1410,2968 1440,2966 1470,2962 1500,2957 1530,2954 1560,2952 1590,2953 1620,2957 1650,2961 1680,2966 1710,2968 1740,2967 1770,2964 1800,2960 1830,2955 1860,2952 1890,2952 1920,2955 1950,2959 1980,2964 2010,2967 2040,2968 2070,2966 2100,2962 2130,2957 2160,2953 2190,2952 2220,2953 2250,2957 2280,2962 2310,2966 2340,2968 2370,2967 2400,2964 2430,2959 2460,2955 2490,2952 2520,2952 2550,2955 2580,2959 2610,2964 2640,2967 2670,2968 2700,2966 2730,2962 2760,2957 2790,2953 2820,2952 2850,2954 2880,2957 2910,2962 2940,2966 2970,2968 3000,2967 3030,2964 3060,2959 3090,2955 3120,2952 3150,2952 3180,2955 3210,2960 3240,2964 3270,2967 3300,2968 3330,2966 3360,2961 3390,2957 3420,2953 3450,2952 3480,2954 3510,2958 3540,2962 3570,2966 3600,2968 3630,2967 3660,2964 3690,2959 3720,2955 3750,2952 3780,2953 3810,2956 3840,2960 3870,2965 3900,2967 3930,2968 3960,2965 3990,2961" fill="none" />
    <polyline points="0,3021 30,3025 60,3028 90,3028 120,3025 150,3020 180,3016 210,3013 240,3012 270,3014 300,3019 330,3023 360,3027 390,3028 420,3026 450,3023 480,3018 510,3014 540,3012 570,3013 600,3016 630,3021 660,3025 690,3028 720,3027 750,3025 780,3020 810,3016 840,3013 870,3012 900,3015 930,3019 960,3023 990,3027 1020,3028 1050,3026 1080,3022 1110,3018 1140,3014 1170,3012 1200,3013 1230,3017 1260,3021 1290,3026 1320,3028 1350,3027 1380,3024 1410,3020 1440,3015 1470,3012 1500,3012 1530,3015 1560,3019 1590,3024 1620,3027 1650,3028 1680,3026 1710,3022 1740,3017 1770,3014 1800,3012 1830,3013 1860,3017 1890,3022 1920,3026 1950,3028 1980,3027 2010,3024 2040,3020 2070,3015 2100,3012 2130,3012 2160,3015 2190,3019 2220,3024 2250,3027 2280,3028 2310,3026 2340,3022 2370,3017 2400,3013 2430,3012 2460,3013 2490,3017 2520,3022 2550,3026 2580,3028 2610,3027 2640,3024 2670,3019 2700,3015 2730,3012 2760,3012 2790,3015 2820,3020 2850,3024 2880,3027 2910,3028 2940,3026 2970,3021 3000,3017 3030,3013 3060,3012 3090,3014 3120,3017 3150,3022 3180,3026 3210,3028 3240,3027 3270,3024 3300,3019 3330,3015 3360,3012 3390,3013 3420,3015 3450,3020 3480,3024 3510,3027 3540,3028 3570,3025 3600,3021 3630,3017 3660,3013 3690,3012 3720,3014 3750,3018 3780,3022 3810,3026 3840,3028 3870,3027 3900,3023 3930,3019 3960,3014 3990,3012" fill="none" />
    <polyline points="0,3088 30,3086 60,3083 90,3078 120,3074 150,3072 180,3073 210,3076 240,3081 270,3085 300,3088 330,3088 360,3085 390,3080 420,3076 450,3073 480,3072 510,3074 540,3079 570,3083 600,3087 630,3088 660,3086 690,3082 720,3078 750,3074 780,3072 810,3073 840,3077 870,3081 900,3085 930,3088 960,3087 990,3084 1020,3080 1050,3075 1080,3073 1110,3072 1140,3075 1170,3079 1200,3084 1230,3087 1260,3088 1290,3086 1320,3082 1350,3077 1380,3074 1410,3072 1440,3073 1470,3077 1500,3081 1530,3086 1560,3088 1590,3087 1620,3084 1650,3080 1680,3075 1710,3072 1740,3072 1770,3075 1800,3079 1830,3084 1860,3087 1890,3088 1920,3086 1950,3082 1980,3077 2010,3073 2040,3072 2070,3073 2100,3077 2130,3082 2160,3086 2190,3088 2220,3087 2250,3084 2280,3079 2310,3075 2340,3072 2370,3072 2400,3075 2430,3079 2460,3084 2490,3087 2520,3088 2550,3086 2580,3082 2610,3077 2640,3073 2670,3072 2700,3074 2730,3077 2760,3082 2790,3086 2820,3088 2850,3087 2880,3084 2910,3079 2940,3075 2970,3072 3000,3072 3030,3075 3060,3080 3090,3084 3120,3087 3150,3088 3180,3086 3210,3081 3240,3077 3270,3073 3300,3072 3330,3074 3360,3078 3390,3082 3420,3086 3450,3088 3480,3087 3510,3084 3540,3079 3570,3075 3600,3072 3630,3073 3660,3076 3690,3080 3720,3085 3750,3087 3780,3088 3810,3085 3840,3081 3870,3076 3900,3073 3930,3072 3960,3074 3990,3078" fill="none" />
    <polyline points="0,3140 30,3136 60,3133 90,3132 120,3134 150,3139 180,3143 210,3147 240,3148 270,3146 300,3143 330,3138 360,3134 390,3132 420,3133 450,3136 480,3141 510,3145 540,3148 570,3147 600,3145 630,3140 660,3136 690,3133 720,3132 750,3135 780,3139 810,3143 840,3147 870,3148 900,3146 930,3142 960,3138 990,3134 1020,3132 1050,3133 1080,3137 1110,3141 1140,3146 1170,3148 1200,3147 1230,3144 1260,3140 1290,3135 1320,3132 1350,3132 1380,3135 1410,3139 1440,3144 1470,3147 1500,3148 1530,3146 1560,3142 1590,3137 1620,3134 1650,3132 1680,3133 1710,3137 1740,3142 1770,3146 1800,3148 1830,3147 1860,3144 1890,3140 1920,3135 1950,3132 1980,3132 2010,3135 2040,3139 2070,3144 2100,3147 2130,3148 2160,3146 2190,3142 2220,3137 2250,3133 2280,3132 2310,3133 2340,3137 2370,3142 2400,3146 2430,3148 2460,3147 2490,3144 2520,3139 2550,3135 2580,3132 2610,3132 2640,3135 2670,3140 2700,3144 2730,3147 2760,3148 2790,3146 2820,3141 2850,3137 2880,3133 2910,3132 2940,3134 2970,3137 3000,3142 3030,3146 3060,3148 3090,3147 3120,3144 3150,3139 3180,3135 3210,3132 3240,3133 3270,3135 3300,3140 3330,3144 3360,3147 3390,3148 3420,3145 3450,3141 3480,3137 3510,3133 3540,3132 3570,3134 3600,3138 3630,3142 3660,3146 3690,3148 3720,3147 3750,3143 3780,3139 3810,3134 3840,3132 3870,3133 3900,3136 3930,3140 3960,3145 3990,3148" fill="none" />
    <polyline points="0,3192 30,3193 60,3196 90,3201 120,3205 150,3208 180,3208 210,3205 240,3200 270,3196 300,3193 330,3192 360,3194 390,3199 420,3203 450,3207 480,3208 510,3206 540,3202 570,3198 600,3194 630,3192 660,3193 690,3197 720,3201 750,3205 780,3208 810,3207 840,3204 870,3200 900,3195 930,3193 960,3192 990,3195 1020,3199 1050,3204 1080,3207 1110,3208 1140,3206 1170,3202 1200,3197 1230,3194 1260,3192 1290,3193 1320,3197 1350,3201 1380,3206 1410,3208 1440,3207 1470,3204 1500,3200 1530,3195 1560,3192 1590,3192 1620,3195 1650,3199 1680,3204 1710,3207 1740,3208 1770,3206 1800,3202 1830,3197 1860,3193 1890,3192 1920,3193 1950,3197 1980,3202 2010,3206 2040,3208 2070,3207 2100,3204 2130,3199 2160,3195 2190,3192 2220,3192 2250,3195 2280,3199 2310,3204 2340,3207 2370,3208 2400,3206 2430,3202 2460,3197 2490,3193 2520,3192 2550,3194 2580,3197 2610,3202 2640,3206 2670,3208 2700,3207 2730,3204 2760,3199 2790,3195 2820,3192 2850,3192 2880,3195 2910,3200 2940,3204 2970,3207 3000,3208 3030,3206 3060,3201 3090,3197 3120,3193 3150,3192 3180,3194 3210,3198 3240,3202 3270,3206 3300,3208 3330,3207 3360,3204 3390,3199 3420,3195 3450,3192 3480,3193 3510,3196 3540,3200 3570,3205 3600,3207 3630,3208 3660,3205 3690,3201 3720,3196 3750,3193 3780,3192 3810,3194 3840,3198 3870,3203 3900,3206 3930,3208 3960,3207 3990,3203" fill="none" />
    <polyline points="0,3259 30,3263 60,3267 90,3268 120,3266 150,3263 180,3258 210,3254 240,3252 270,3253 300,3256 330,3261 360,3265 390,3268 420,3267 450,3265 480,3260 510,3256 540,3253 570,3252 600,3255 630,3259 660,3263 690,3267 720,3268 750,3266 780,3262 810,3258 840,3254 870,3252 900,3253 930,3257 960,3261 990,3266 1020,3268 1050,3267 1080,3264 1110,3260 1140,3255 1170,3252 1200,3252 1230,3255 1260,3259 1290,3264 1320,3267 1350,3268 1380,3266 1410,3262 1440,3257 1470,3254 1500,3252 1530,3253 1560,3257 1590,3262 1620,3266 1650,3268 1680,3267 1710,3264 1740,3260 1770,3255 1800,3252 1830,3252 1860,3255 1890,3259 1920,3264 1950,3267 1980,3268 2010,3266 2040,3262 2070,3257 2100,3253 2130,3252 2160,3253 2190,3257 2220,3262 2250,3266 2280,3268 2310,3267 2340,3264 2370,3259 2400,3255 2430,3252 2460,3252 2490,3255 2520,3260 2550,3264 2580,3267 2610,3268 2640,3266 2670,3261 2700,3257 2730,3253 2760,3252 2790,3254 2820,3257 2850,3262 2880,3266 2910,3268 2940,3267 2970,3264 3000,3259 3030,3255 3060,3252 3090,3253 3120,3255 3150,3260 3180,3264 3210,3267 3240,3268 3270,3265 3300,3261 3330,3257 3360,3253 3390,3252 3420,3254 3450,3258 3480,3262 3510,3266 3540,3268 3570,3267 3600,3263 3630,3259 3660,3254 3690,3252 3720,3253 3750,3256 3780,3260 3810,3265 3840,3268 3870,3268 3900,3265 3930,3261 3960,3256 3990,3253" fill="none" />
    <polyline points="0,3328 30,3328 60,3325 90,3320 120,3316 150,3313 180,3312 210,3314 240,3319 270,3323 300,3327 330,3328 360,3326 390,3322 420,3318 450,3314 480,3312 510,3313 540,3317 570,3321 600,3325 630,3328 660,3327 690,3324 720,3320 750,3315 780,3313 810,3312 840,3315 870,3319 900,3324 930,3327 960,3328 990,3326 1020,3322 1050,3317 1080,3314 1110,3312 1140,3313 1170,3317 1200,3321 1230,3326 1260,3328 1290,3327 1320,3324 1350,3320 1380,3315 1410,3312 1440,3312 1470,3315 1500,3319 1530,3324 1560,3327 1590,3328 1620,3326 1650,3322 1680,3317 1710,3313 1740,3312 1770,3313 1800,3317 1830,3322 1860,3326 1890,3328 1920,3327 1950,3324 1980,3319 2010,3315 2040,3312 2070,3312 2100,3315 2130,3319 2160,3324 2190,3327 2220,3328 2250,3326 2280,3322 2310,3317 2340,3313 2370,3312 2400,3314 2430,3317 2460,3322 2490,3326 2520,3328 2550,3327 2580,3324 2610,3319 2640,3315 2670,3312 2700,3312 2730,3315 2760,3320 2790,3324 2820,3327 2850,3328 2880,3326 2910,3321 2940,3317 2970,3313 3000,3312 3030,3314 3060,3318 3090,3322 3120,3326 3150,3328 3180,3327 3210,3324 3240,3319 3270,3315 3300,3312 3330,3313 3360,3316 3390,3320 3420,3325 3450,3327 3480,3328 3510,3325 3540,3321 3570,3316 3600,3313 3630,3312 3660,3314 3690,3318 3720,3323 3750,3326 3780,3328 3810,3327 3840,3323 3870,3319 3900,3314 3930,3312 3960,3313 3990,3316" fill="none" />
    <polyline points="0,3383 30,3378 60,3374 90,3372 120,3373 150,3376 180,3381 210,3385 240,3388 270,3387 300,3385 330,3380 360,3376 390,3373 420,3372 450,3375 480,3379 510,3383 540,3387 570,3388 600,3386 630,3382 660,3378 690,3374 720,3372 750,3373 780,3377 810,3381 840,3386 870,3388 900,3387 930,3384 960,3380 990,3375 1020,3372 1050,3372 1080,3375 1110,3379 1140,3384 1170,3387 1200,3388 1230,3386 1260,3382 1290,3377 1320,3374 1350,3372 1380,3373 1410,3377 1440,3382 1470,3386 1500,3388 1530,3387 1560,3384 1590,3380 1620,3375 1650,3372 1680,3372 1710,3375 1740,3379 1770,3384 1800,3387 1830,3388 1860,3386 1890,3382 1920,3377 1950,3373 1980,3372 2010,3373 2040,3377 2070,3382 2100,3386 2130,3388 2160,3387 2190,3384 2220,3379 2250,3375 2280,3372 2310,3372 2340,3375 2370,3380 2400,3384 2430,3387 2460,3388 2490,3386 2520,3381 2550,3377 2580,3373 2610,3372 2640,3374 2670,3377 2700,3382 2730,3386 2760,3388 2790,3387 2820,3384 2850,3379 2880,3375 2910,3372 2940,3373 2970,3375 3000,3380 3030,3384 3060,3387 3090,3388 3120,3385 3150,3381 3180,3377 3210,3373 3240,3372 3270,3374 3300,3378 3330,3382 3360,3386 3390,3388 3420,3387 3450,3383 3480,3379 3510,3374 3540,3372 3570,3373 3600,3376 3630,3380 3660,3385 3690,3388 3720,3388 3750,3385 3780,3381 3810,3376 3840,3373 3870,3372 3900,3374 3930,3378 3960,3383 3990,3386" fill="none" />
    <polyline points="0,3433 30,3432 60,3434 90,3439 120,3443 150,3447 180,3448 210,3446 240,3442 270,3438 300,3434 330,3432 360,3433 390,3437 420,3441 450,3445 480,3448 510,3447 540,3444 570,3440 600,3435 630,3433 660,3432 690,3435 720,3439 750,3444 780,3447 810,3448 840,3446 870,3442 900,3437 930,3434 960,3432 990,3433 1020,3437 1050,3441 1080,3446 1110,3448 1140,3447 1170,3444 1200,3440 1230,3435 1260,3432 1290,3432 1320,3435 1350,3439 1380,3444 1410,3447 1440,3448 1470,3446 1500,3442 1530,3437 1560,3433 1590,3432 1620,3433 1650,3437 1680,3442 1710,3446 1740,3448 1770,3447 1800,3444 1830,3439 1860,3435 1890,3432 1920,3432 1950,3435 1980,3439 2010,3444 2040,3447 2070,3448 2100,3446 2130,3442 2160,3437 2190,3433 2220,3432 2250,3434 2280,3437 2310,3442 2340,3446 2370,3448 2400,3447 2430,3444 2460,3439 2490,3435 2520,3432 2550,3432 2580,3435 2610,3440 2640,3444 2670,3447 2700,3448 2730,3446 2760,3441 2790,3437 2820,3433 2850,3432 2880,3434 2910,3438 2940,3442 2970,3446 3000,3448 3030,3447 3060,3444 3090,3439 3120,3435 3150,3432 3180,3433 3210,3436 3240,3440 3270,3445 3300,3447 3330,3448 3360,3445 3390,3441 3420,3436 3450,3433 3480,3432 3510,3434 3540,3438 3570,3443 3600,3446 3630,3448 3660,3447 3690,3443 3720,3439 3750,3434 3780,3432 3810,3433 3840,3436 3870,3440 3900,3445 3930,3448 3960,3448 3990,3445" fill="none" />
  </g>
  <polyline points="200,3200 800,2500 1500,2200 2500,2000 3500,1500" fill="none" stroke="#2a1530" stroke-width="60" stroke-linecap="round" stroke-linejoin="round" opacity="0.6" />
  <polyline points="1500,2200 1500,1000" fill="none" stroke="#2a1530" stroke-width="50" stroke-linecap="round" stroke-linejoin="round" opacity="0.6" />
  <line x1="400" y1="800" x2="700" y2="800" stroke="#0e050f" stroke-width="3" opacity="0.6" />
  <line x1="400" y1="800" x2="400" y2="1050" stroke="#0e050f" stroke-width="3" opacity="0.6" />
  <text x="550" y="925" fill="#d088cc" font-size="11" text-anchor="middle" font-family="monospace" opacity="0.5">Ruin</text>
  <line x1="900" y1="600" x2="1150" y2="600" stroke="#0e050f" stroke-width="3" opacity="0.6" />
  <line x1="900" y1="600" x2="900" y2="800" stroke="#0e050f" stroke-width="3" opacity="0.6" />
  <text x="1025" y="700" fill="#d088cc" font-size="11" text-anchor="middle" font-family="monospace" opacity="0.5">Ruin</text>
  <line x1="2500" y1="900" x2="2800" y2="900" stroke="#0e050f" stroke-width="3" opacity="0.6" />
  <line x1="2500" y1="900" x2="2500" y2="1100" stroke="#0e050f" stroke-width="3" opacity="0.6" />
  <text x="2650" y="1000" fill="#d088cc" font-size="11" text-anchor="middle" font-family="monospace" opacity="0.5">Ruin</text>
  <line x1="3000" y1="700" x2="3200" y2="700" stroke="#0e050f" stroke-width="3" opacity="0.6" />
  <line x1="3000" y1="700" x2="3000" y2="950" stroke="#0e050f" stroke-width="3" opacity="0.6" />
  <text x="3100" y="825" fill="#d088cc" font-size="11" text-anchor="middle" font-family="monospace" opacity="0.5">Ruin</text>
  <circle cx="2000" cy="1800" r="200" fill="#2a1530" stroke="#0e050f" stroke-width="3" />
  <rect x="1800" y="1600" width="400" height="400" fill="#cc44aa" stroke="#0e050f" stroke-width="4" />
  <rect x="1804" y="1604" width="392" height="392" fill="none" stroke="#d088cc" stroke-width="1" stroke-dasharray="8,4" opacity="0.5" />
  <text x="2000" y="1792" fill="#d088cc" font-size="14" font-weight="bold" text-anchor="middle" dominant-baseline="central" font-family="monospace">Lysaga's Hut</text>
  <text x="2000" y="1810" fill="#d088cc" font-size="12" text-anchor="middle" dominant-baseline="central" font-family="monospace">Walking Hab-Unit</text>
  <rect x="1492" y="980" width="16" height="40" fill="#888888" stroke="#aaaaaa" stroke-width="2" />
  <text x="1500" y="1028" fill="#d088cc" font-size="10" text-anchor="middle" font-family="monospace" opacity="0.7">Marina's/Monument</text>
  <rect x="300" y="2800" width="200" height="80" fill="#2a1530" stroke="#0e050f" stroke-width="2" opacity="0.5" />
  <text x="400" y="2860" fill="#d088cc" font-size="10" text-anchor="middle" font-family="monospace" opacity="0.4">Dock Ruins</text>
  <text x="3980" y="3485" fill="#ffffff" font-size="20" text-anchor="end" font-family="monospace" opacity="0.15">Drowned Ruins</text>
</svg>