<?xml version='1.0' encoding='utf-8'?>
<svg xmlns="http://www.w3.org/2000/svg" xmlns:xlink="http://www.w3.org/1999/xlink" viewBox="0 0 3000 2500" width="3000" height="2500">
  <defs>
    <radialGradient id="bgGrad" cx="50%" cy="50%" r="70%">
      <stop offset="0%" stop-color="#1e2e1e" />
      <stop offset="100%" stop-color="#001000" />
    </radialGradient>
  </defs>
  <rect x="0" y="0" width="3000" height="2500" fill="url(#bgGrad)" />
  <g opacity="0.05" stroke="#ffffff" stroke-width="1">
    <line x1="0" y1="0" x2="0" y2="2500" />
    <line x1="100" y1="0" x2="100" y2="2500" />
    <line x1="200" y1="0" x2="200" y2="2500" />
    <line x1="300" y1="0" x2="300" y2="2500" />
    <line x1="400" y1="0" x2="400" y2="2500" />
    <line x1="500" y1="0" x2="500" y2="2500" />
    <line x1="600" y1="0" x2="600" y2="2500" />
    <line x1="700" y1="0" x2="700" y2="2500" />
    <line x1="800" y1="0" x2="800" y2="2500" />
    <line x1="900" y1="0" x2="900" y2="2500" />
    <line x1="1000" y1="0" x2="1000" y2="2500" />
    <line x1="1100" y1="0" x2="1100" y2="2500" />
    <line x1="1200" y1="0" x2="1200" y2="2500" />
    <line x1="1300" y1="0" x2="1300" y2="2500" />
    <line x1="1400" y1="0" x2="1400" y2="2500" />
    <line x1="1500" y1="0" x2="1500" y2="2500" />
    <line x1="1600" y1="0" x2="1600" y2="2500" />
    <line x1="1700" y1="0" x2="1700" y2="2500" />
    <line x1="1800" y1="0" x2="1800" y2="2500" />
    <line x1="1900" y1="0" x2="1900" y2="2500" />
    <line x1="2000" y1="0" x2="2000" y2="2500" />
    <line x1="2100" y1="0" x2="2100" y2="2500" />
    <line x1="2200" y1="0" x2="2200" y2="2500" />
    <line x1="2300" y1="0" x2="2300" y2="2500" />
    <line x1="2400" y1="0" x2="2400" y2="2500" />
    <line x1="2500" y1="0" x2="2500" y2="2500" />
    <line x1="2600" y1="0" x2="2600" y2="2500" />
    <line x1="2700" y1="0" x2="2700" y2="2500" />
    <line x1="2800" y1="0" x2="2800" y2="2500" />
    <line x1="2900" y1="0" x2="2900" y2="2500" />
    <line x1="3000" y1="0" x2="3000" y2="2500" />
    <line x1="0" y1="0" x2="3000" y2="0" />
    <line x1="0" y1="100" x2="3000" y2="100" />
    <line x1="0" y1="200" x2="3000" y2="200" />
    <line x1="0" y1="300" x2="3000" y2="300" />
    <line x1="0" y1="400" x2="3000" y2="400" />
    <line x1="0" y1="500" x2="3000" y2="500" />
    <line x1="0" y1="600" x2="3000" y2="600" />
    <line x1="0" y1="700" x2="3000" y2="700" />
    <line x1="0" y1="800" x2="3000" y2="800" />
    <line x1="0" y1="900" x2="3000" y2="900" />
    <line x1="0" y1="1000" x2="3000" y2="1000" />
    <line x1="0" y1="1100" x2="3000" y2="1100" />
    <line x1="0" y1="1200" x2="3000" y2="1200" />
    <line x1="0" y1="1300" x2="3000" y2="1300" />
    <line x1="0" y1="1400" x2="3000" y2="1400" />
    <line x1="0" y1="1500" x2="3000" y2="1500" />
    <line x1="0" y1="1600" x2="3000" y2="1600" />
    <line x1="0" y1="1700" x2="3000" y2="1700" />
    <line x1="0" y1="1800" x2="3000" y2="1800" />
    <line x1="0" y1="1900" x2="3000" y2="1900" />
    <line x1="0" y1="2000" x2="3000" y2="2000" />
    <line x1="0" y1="2100" x2="3000" y2="2100" />
    <line x1="0" y1="2200" x2="3000" y2="2200" />
    <line x1="0" y1="2300" x2="3000" y2="2300" />
    <line x1="0" y1="2400" x2="3000" y2="2400" />
    <line x1="0" y1="2500" x2="3000" y2="2500" />
  </g>
  <rect x="400" y="1160" width="2200" height="80" fill="#1a2a1a" stroke="#051005" stroke-width="2" />
  <rect x="400" y="400" width="500" height="500" fill="#33cc66" stroke="#051005" stroke-width="4" />
  <rect x="404" y="404" width="492" height="492" fill="none" stroke="#88cc88" stroke-width="1" stroke-dasharray="8,4" opacity="0.5" />
  <text x="650" y="650" fill="#88cc88" font-size="14" font-weight="bold" text-anchor="middle" dominant-baseline="central" font-family="monospace">Abaron's Lab</text>
  <rect x="640" y="896" width="20" height="8" fill="#8b7355" stroke="#c0b090" stroke-width="1" />
  <rect x="535" y="585" width="30" height="30" fill="#33cc66" stroke="#88cc88" stroke-width="2" opacity="0.7" />
  <rect x="735" y="585" width="30" height="30" fill="#33cc66" stroke="#88cc88" stroke-width="2" opacity="0.7" />
  <polygon points="650.0,532.0 653.4,541.7 662.7,537.3 658.3,546.6 668.0,550.0 658.3,553.4 662.7,562.7 653.4,558.3 650.0,568.0 646.6,558.3 637.3,562.7 641.7,553.4 632.0,550.0 641.7,546.6 637.3,537.3 646.6,541.7" fill="#cc44aa" stroke="#ff88dd" stroke-width="1" opacity="0.8" />
  <rect x="1100" y="400" width="400" height="400" fill="#33cc66" stroke="#051005" stroke-width="4" />
  <rect x="1104" y="404" width="392" height="392" fill="none" stroke="#88cc88" stroke-width="1" stroke-dasharray="8,4" opacity="0.5" />
  <text x="1300" y="592" fill="#88cc88" font-size="14" font-weight="bold" text-anchor="middle" dominant-baseline="central" font-family="monospace">The Bride</text>
  <text x="1300" y="610" fill="#88cc88" font-size="12" text-anchor="middle" dominant-baseline="central" font-family="monospace">Chamber</text>
  <circle cx="1300" cy="800" r="8" fill="#cc3333" stroke="#ffcc00" stroke-width="2" />
  <circle cx="1300" cy="600" r="15" fill="#33cc66" stroke="#88cc88" stroke-width="2" opacity="0.8" />
  <text x="1300" y="628" fill="#88cc88" font-size="10" text-anchor="middle" font-family="monospace" opacity="0.7">Construct</text>
  <rect x="1700" y="300" width="600" height="500" fill="#1a2a1a" stroke="#051005" stroke-width="3" />
  <text x="2000" y="542" fill="#88cc88" font-size="14" font-weight="bold" text-anchor="middle" dominant-baseline="central" font-family="monospace">Sacred Pool</text>
  <text x="2000" y="560" fill="#88cc88" font-size="12" text-anchor="middle" dominant-baseline="central" font-family="monospace">Courtyard</text>
  <circle cx="2000" cy="550" r="120" fill="#1a2a1a" stroke="#051005" stroke-width="3" />
  <text x="2000" y="550" fill="#88cc88" font-size="14" font-weight="bold" text-anchor="middle" dominant-baseline="central" font-family="monospace">Pool</text>
  <rect x="400" y="1400" width="300" height="300" fill="#1a2a1a" stroke="#051005" stroke-width="3" />
  <text x="550" y="1550" fill="#88cc88" font-size="14" font-weight="bold" text-anchor="middle" dominant-baseline="central" font-family="monospace">Record Room</text>
  <rect x="540" y="1396" width="20" height="8" fill="#8b7355" stroke="#c0b090" stroke-width="1" />
  <rect x="540" y="1540" width="20" height="20" fill="#33cc66" stroke="#88cc88" stroke-width="2" opacity="0.7" />
  <rect x="1100" y="1400" width="300" height="200" fill="#1a2a1a" stroke="#051005" stroke-width="3" />
  <text x="1250" y="1492" fill="#88cc88" font-size="14" font-weight="bold" text-anchor="middle" dominant-baseline="central" font-family="monospace">Observation</text>
  <text x="1250" y="1510" fill="#88cc88" font-size="12" text-anchor="middle" dominant-baseline="central" font-family="monospace">Gallery</text>
  <rect x="1240" y="1396" width="20" height="8" fill="#8b7355" stroke="#c0b090" stroke-width="1" />
  <rect x="2485" y="1185" width="30" height="30" fill="none" stroke="#88cc88" stroke-width="1" />
  <polygon points="2500,1210 2492,1195 2508,1195" fill="#88cc88" opacity="0.6" />
  <text x="2500" y="1228" fill="#88cc88" font-size="9" text-anchor="middle" font-family="monospace" opacity="0.6">Stairs Down</text>
  <text x="2980" y="2485" fill="#ffffff" font-size="20" text-anchor="end" font-family="monospace" opacity="0.15">Krezk Upper Floor</text>
</svg>