<?xml version='1.0' encoding='utf-8'?>
<svg xmlns="http://www.w3.org/2000/svg" xmlns:xlink="http://www.w3.org/1999/xlink" viewBox="0 0 2500 1500" width="2500" height="1500">
  <defs>
    <radialGradient id="bgGrad" cx="50%" cy="50%" r="70%">
      <stop offset="0%" stop-color="#323439" />
      <stop offset="100%" stop-color="#14161b" />
    </radialGradient>
  </defs>
  <rect x="0" y="0" width="2500" height="1500" fill="url(#bgGrad)" />
  <g opacity="0.05" stroke="#ffffff" stroke-width="1">
    <line x1="0" y1="0" x2="0" y2="1500" />
    <line x1="100" y1="0" x2="100" y2="1500" />
    <line x1="200" y1="0" x2="200" y2="1500" />
    <line x1="300" y1="0" x2="300" y2="1500" />
    <line x1="400" y1="0" x2="400" y2="1500" />
    <line x1="500" y1="0" x2="500" y2="1500" />
    <line x1="600" y1="0" x2="600" y2="1500" />
    <line x1="700" y1="0" x2="700" y2="1500" />
    <line x1="800" y1="0" x2="800" y2="1500" />
    <line x1="900" y1="0" x2="900" y2="1500" />
    <line x1="1000" y1="0" x2="1000" y2="1500" />
    <line x1="1100" y1="0" x2="1100" y2="1500" />
    <line x1="1200" y1="0" x2="1200" y2="1500" />
    <line x1="1300" y1="0" x2="1300" y2="1500" />
    <line x1="1400" y1="0" x2="1400" y2="1500" />
    <line x1="1500" y1="0" x2="1500" y2="1500" />
    <line x1="1600" y1="0" x2="1600" y2="1500" />
    <line x1="1700" y1="0" x2="1700" y2="1500" />
    <line x1="1800" y1="0" x2="1800" y2="1500" />
    <line x1="1900" y1="0" x2="1900" y2="1500" />
    <line x1="2000" y1="0" x2="2000" y2="1500" />
    <line x1="2100" y1="0" x2="2100" y2="1500" />
    <line x1="2200" y1="0" x2="2200" y2="1500" />
    <line x1="2300" y1="0" x2="2300" y2="1500" />
    <line x1="2400" y1="0" x2="2400" y2="1500" />
    <line x1="2500" y1="0" x2="2500" y2="1500" />
    <line x1="0" y1="0" x2="2500" y2="0" />
    <line x1="0" y1="100" x2="2500" y2="100" />
    <line x1="0" y1="200" x2="2500" y2="200" />
    <line x1="0" y1="300" x2="2500" y2="300" />
    <line x1="0" y1="400" x2="2500" y2="400" />
    <line x1="0" y1="500" x2="2500" y2="500" />
    <line x1="0" y1="600" x2="2500" y2="600" />
    <line x1="0" y1="700" x2="2500" y2="700" />
    <line x1="0" y1="800" x2="2500" y2="800" />
    <line x1="0" y1="900" x2="2500" y2="900" />
    <line x1="0" y1="1000" x2="2500" y2="1000" />
    <line x1="0" y1="1100" x2="2500" y2="1100" />
    <line x1="0" y1="1200" x2="2500" y2="1200" />
    <line x1="0" y1="1300" x2="2500" y2="1300" />
    <line x1="0" y1="1400" x2="2500" y2="1400" />
    <line x1="0" y1="1500" x2="2500" y2="1500" />
  </g>
  <line x1="100" y1="1400" x2="2400" y2="800" stroke="#15171a" stroke-width="4" stroke-dasharray="20,10" opacity="0.3" />
  <text x="200" y="1350" fill="#a0a8b0" font-size="12" font-family="monospace" opacity="0.4">Hillside slope</text>
  <g transform="rotate(-8, 1250, 650)">
    <rect x="300" y="400" width="400" height="400" fill="#2d3035" stroke="#15171a" stroke-width="3" />
    <text x="500" y="600" fill="#a0a8b0" font-size="14" font-weight="bold" text-anchor="middle" dominant-baseline="central" font-family="monospace">Cab</text>
    <rect x="296" y="590" width="8" height="20" fill="#8b7355" stroke="#c0b090" stroke-width="1" />
    <rect x="700" y="350" width="800" height="500" fill="#c8a832" stroke="#15171a" stroke-width="4" />
    <rect x="704" y="354" width="792" height="492" fill="none" stroke="#a0a8b0" stroke-width="1" stroke-dasharray="8,4" opacity="0.5" />
    <text x="1100" y="600" fill="#a0a8b0" font-size="14" font-weight="bold" text-anchor="middle" dominant-baseline="central" font-family="monospace">Cargo Bay</text>
    <rect x="696" y="590" width="8" height="20" fill="#8b7355" stroke="#c0b090" stroke-width="1" />
    <rect x="890" y="490" width="20" height="20" fill="#c8a832" stroke="#a0a8b0" stroke-width="2" opacity="0.7" />
    <rect x="990" y="590" width="20" height="20" fill="#c8a832" stroke="#a0a8b0" stroke-width="2" opacity="0.7" />
    <rect x="1090" y="490" width="20" height="20" fill="#c8a832" stroke="#a0a8b0" stroke-width="2" opacity="0.7" />
    <rect x="1190" y="590" width="20" height="20" fill="#c8a832" stroke="#a0a8b0" stroke-width="2" opacity="0.7" />
    <rect x="1290" y="490" width="20" height="20" fill="#c8a832" stroke="#a0a8b0" stroke-width="2" opacity="0.7" />
    <rect x="1500" y="400" width="400" height="400" fill="#2d3035" stroke="#15171a" stroke-width="3" />
    <text x="1700" y="600" fill="#a0a8b0" font-size="14" font-weight="bold" text-anchor="middle" dominant-baseline="central" font-family="monospace">Rear Section</text>
    <rect x="1496" y="590" width="8" height="20" fill="#8b7355" stroke="#c0b090" stroke-width="1" />
  </g>
  <rect x="390" y="990" width="20" height="20" fill="#c8a832" stroke="#a0a8b0" stroke-width="2" opacity="0.7" />
  <rect x="590" y="1040" width="20" height="20" fill="#c8a832" stroke="#a0a8b0" stroke-width="2" opacity="0.7" />
  <rect x="1590" y="940" width="20" height="20" fill="#c8a832" stroke="#a0a8b0" stroke-width="2" opacity="0.7" />
  <rect x="1790" y="1090" width="20" height="20" fill="#c8a832" stroke="#a0a8b0" stroke-width="2" opacity="0.7" />
  <rect x="1990" y="990" width="20" height="20" fill="#c8a832" stroke="#a0a8b0" stroke-width="2" opacity="0.7" />
  <text x="1800" y="1050" fill="#a0a8b0" font-size="11" font-family="monospace" opacity="0.5">Scattered debris</text>
  <text x="2480" y="1485" fill="#ffffff" font-size="20" text-anchor="end" font-family="monospace" opacity="0.15">Crashed Transport</text>
</svg>