<?xml version='1.0' encoding='utf-8'?>
<svg xmlns="http://www.w3.org/2000/svg" xmlns:xlink="http://www.w3.org/1999/xlink" viewBox="0 0 2500 2000" width="2500" height="2000">
  <defs>
    <radialGradient id="bgGrad" cx="50%" cy="50%" r="70%">
      <stop offset="0%" stop-color="#2e2e32" />
      <stop offset="100%" stop-color="#101014" />
    </radialGradient>
  </defs>
  <rect x="0" y="0" width="2500" height="2000" fill="url(#bgGrad)" />
  <g opacity="0.05" stroke="#ffffff" stroke-width="1">
    <line x1="0" y1="0" x2="0" y2="2000" />
    <line x1="100" y1="0" x2="100" y2="2000" />
    <line x1="200" y1="0" x2="200" y2="2000" />
    <line x1="300" y1="0" x2="300" y2="2000" />
    <line x1="400" y1="0" x2="400" y2="2000" />
    <line x1="500" y1="0" x2="500" y2="2000" />
    <line x1="600" y1="0" x2="600" y2="2000" />
    <line x1="700" y1="0" x2="700" y2="2000" />
    <line x1="800" y1="0" x2="800" y2="2000" />
    <line x1="900" y1="0" x2="900" y2="2000" />
    <line x1="1000" y1="0" x2="1000" y2="2000" />
    <line x1="1100" y1="0" x2="1100" y2="2000" />
    <line x1="1200" y1="0" x2="1200" y2="2000" />
    <line x1="1300" y1="0" x2="1300" y2="2000" />
    <line x1="1400" y1="0" x2="1400" y2="2000" />
    <line x1="1500" y1="0" x2="1500" y2="2000" />
    <line x1="1600" y1="0" x2="1600" y2="2000" />
    <line x1="1700" y1="0" x2="1700" y2="2000" />
    <line x1="1800" y1="0" x2="1800" y2="2000" />
    <line x1="1900" y1="0" x2="1900" y2="2000" />
    <line x1="2000" y1="0" x2="2000" y2="2000" />
    <line x1="2100" y1="0" x2="2100" y2="2000" />
    <line x1="2200" y1="0" x2="2200" y2="2000" />
    <line x1="2300" y1="0" x2="2300" y2="2000" />
    <line x1="2400" y1="0" x2="2400" y2="2000" />
    <line x1="2500" y1="0" x2="2500" y2="2000" />
    <line x1="0" y1="0" x2="2500" y2="0" />
    <line x1="0" y1="100" x2="2500" y2="100" />
    <line x1="0" y1="200" x2="2500" y2="200" />
    <line x1="0" y1="300" x2="2500" y2="300" />
    <line x1="0" y1="400" x2="2500" y2="400" />
    <line x1="0" y1="500" x2="2500" y2="500" />
    <line x1="0" y1="600" x2="2500" y2="600" />
    <line x1="0" y1="700" x2="2500" y2="700" />
    <line x1="0" y1="800" x2="2500" y2="800" />
    <line x1="0" y1="900" x2="2500" y2="900" />
    <line x1="0" y1="1000" x2="2500" y2="1000" />
    <line x1="0" y1="1100" x2="2500" y2="1100" />
    <line x1="0" y1="1200" x2="2500" y2="1200" />
    <line x1="0" y1="1300" x2="2500" y2="1300" />
    <line x1="0" y1="1400" x2="2500" y2="1400" />
    <line x1="0" y1="1500" x2="2500" y2="1500" />
    <line x1="0" y1="1600" x2="2500" y2="1600" />
    <line x1="0" y1="1700" x2="2500" y2="1700" />
    <line x1="0" y1="1800" x2="2500" y2="1800" />
    <line x1="0" y1="1900" x2="2500" y2="1900" />
    <line x1="0" y1="2000" x2="2500" y2="2000" />
  </g>
  <rect x="800" y="300" width="800" height="600" fill="#2a2a30" stroke="#0a0a0e" stroke-width="3" />
  <text x="1200" y="600" fill="#c0b090" font-size="14" font-weight="bold" text-anchor="middle" dominant-baseline="central" font-family="monospace">Main Building</text>
  <rect x="1190" y="896" width="20" height="8" fill="#8b7355" stroke="#c0b090" stroke-width="1" />
  <rect x="200" y="300" width="500" height="500" fill="#2a2a30" stroke="#0a0a0e" stroke-width="3" />
  <text x="450" y="542" fill="#c0b090" font-size="14" font-weight="bold" text-anchor="middle" dominant-baseline="central" font-family="monospace">Fermentation</text>
  <text x="450" y="560" fill="#c0b090" font-size="12" text-anchor="middle" dominant-baseline="central" font-family="monospace">Hall</text>
  <rect x="696" y="540" width="8" height="20" fill="#8b7355" stroke="#c0b090" stroke-width="1" />
  <circle cx="350" cy="500" r="15" fill="#8b7355" stroke="#c0b090" stroke-width="2" opacity="0.8" />
  <text x="350" y="528" fill="#c0b090" font-size="10" text-anchor="middle" font-family="monospace" opacity="0.7">Vat</text>
  <circle cx="550" cy="500" r="15" fill="#8b7355" stroke="#c0b090" stroke-width="2" opacity="0.8" />
  <text x="550" y="528" fill="#c0b090" font-size="10" text-anchor="middle" font-family="monospace" opacity="0.7">Vat</text>
  <rect x="1700" y="400" width="400" height="300" fill="#2a2a30" stroke="#0a0a0e" stroke-width="3" />
  <text x="1900" y="542" fill="#c0b090" font-size="14" font-weight="bold" text-anchor="middle" dominant-baseline="central" font-family="monospace">Storage</text>
  <text x="1900" y="560" fill="#c0b090" font-size="12" text-anchor="middle" dominant-baseline="central" font-family="monospace">Cellars</text>
  <rect x="1696" y="540" width="8" height="20" fill="#8b7355" stroke="#c0b090" stroke-width="1" />
  <rect x="1790" y="540" width="20" height="20" fill="#8b7355" stroke="#c0b090" stroke-width="2" opacity="0.7" />
  <rect x="1990" y="540" width="20" height="20" fill="#8b7355" stroke="#c0b090" stroke-width="2" opacity="0.7" />
  <rect x="1700" y="800" width="300" height="200" fill="#2a2a30" stroke="#0a0a0e" stroke-width="3" />
  <text x="1850" y="900" fill="#c0b090" font-size="14" font-weight="bold" text-anchor="middle" dominant-baseline="central" font-family="monospace">Loading Dock</text>
  <rect x="1696" y="890" width="8" height="20" fill="#8b7355" stroke="#c0b090" stroke-width="1" />
  <rect x="800" y="1000" width="500" height="400" fill="#2a2a30" stroke="#0a0a0e" stroke-width="3" />
  <text x="1050" y="1200" fill="#c0b090" font-size="14" font-weight="bold" text-anchor="middle" dominant-baseline="central" font-family="monospace">Courtyard</text>
  <g opacity="0.25" stroke="#8b7355" stroke-width="2">
    <line x1="200" y1="1500" x2="2200" y2="1500" />
    <line x1="200" y1="1550" x2="2200" y2="1550" />
    <line x1="200" y1="1600" x2="2200" y2="1600" />
    <line x1="200" y1="1650" x2="2200" y2="1650" />
    <line x1="200" y1="1700" x2="2200" y2="1700" />
    <line x1="200" y1="1750" x2="2200" y2="1750" />
    <line x1="200" y1="1800" x2="2200" y2="1800" />
    <line x1="200" y1="1850" x2="2200" y2="1850" />
  </g>
  <text x="1200" y="1650" fill="#c0b090" font-size="12" font-family="monospace" opacity="0.4">Recaf Groves</text>
  <rect x="1700" y="875" width="400" height="50" fill="#2a2a30" stroke="#0a0a0e" stroke-width="2" />
  <rect x="2200" y="500" width="250" height="200" fill="#2a2a30" stroke="#0a0a0e" stroke-width="3" />
  <text x="2325" y="600" fill="#c0b090" font-size="14" font-weight="bold" text-anchor="middle" dominant-baseline="central" font-family="monospace">Root Cellar</text>
  <rect x="2196" y="590" width="8" height="20" fill="#8b7355" stroke="#c0b090" stroke-width="1" />
  <rect x="200" y="900" width="300" height="250" fill="#2a2a30" stroke="#0a0a0e" stroke-width="3" />
  <text x="350" y="1025" fill="#c0b090" font-size="14" font-weight="bold" text-anchor="middle" dominant-baseline="central" font-family="monospace">Worker Latrine</text>
  <rect x="496" y="1015" width="8" height="20" fill="#8b7355" stroke="#c0b090" stroke-width="1" />
  <rect x="1400" y="1050" width="300" height="200" fill="#2a2a30" stroke="#0a0a0e" stroke-width="3" />
  <text x="1550" y="1150" fill="#c0b090" font-size="14" font-weight="bold" text-anchor="middle" dominant-baseline="central" font-family="monospace">Tool Shed</text>
  <rect x="1396" y="1140" width="8" height="20" fill="#8b7355" stroke="#c0b090" stroke-width="1" />
  <rect x="2100" y="900" width="250" height="200" fill="#2a2a30" stroke="#0a0a0e" stroke-width="3" />
  <text x="2225" y="992" fill="#c0b090" font-size="14" font-weight="bold" text-anchor="middle" dominant-baseline="central" font-family="monospace">Abandoned</text>
  <text x="2225" y="1010" fill="#c0b090" font-size="12" text-anchor="middle" dominant-baseline="central" font-family="monospace">Office</text>
  <rect x="2095" y="988" width="10" height="24" fill="#555544" stroke="#887766" stroke-width="1" />
  <line x1="2096" y1="992" x2="2104" y2="1008" stroke="#aa8866" stroke-width="2" />
  <line x1="2104" y1="992" x2="2096" y2="1008" stroke="#aa8866" stroke-width="2" />
  <rect x="1700" y="1200" width="300" height="250" fill="#2a2a30" stroke="#0a0a0e" stroke-width="3" />
  <text x="1850" y="1325" fill="#c0b090" font-size="14" font-weight="bold" text-anchor="middle" dominant-baseline="central" font-family="monospace">Collapsed Pantry</text>
  <rect x="1838" y="1195" width="24" height="10" fill="#555544" stroke="#887766" stroke-width="1" />
  <line x1="1842" y1="1196" x2="1858" y2="1204" stroke="#aa8866" stroke-width="2" />
  <line x1="1858" y1="1196" x2="1842" y2="1204" stroke="#aa8866" stroke-width="2" />
  <text x="2480" y="1985" fill="#ffffff" font-size="20" text-anchor="end" font-family="monospace" opacity="0.15">Recaf Distillery</text>
</svg>