<?xml version='1.0' encoding='utf-8'?>
<svg xmlns="http://www.w3.org/2000/svg" xmlns:xlink="http://www.w3.org/1999/xlink" viewBox="0 0 4000 4000" width="4000" height="4000">
  <defs>
    <radialGradient id="bgGrad" cx="50%" cy="50%" r="70%">
      <stop offset="0%" stop-color="#321e1e" />
      <stop offset="100%" stop-color="#140000" />
    </radialGradient>
  </defs>
  <rect x="0" y="0" width="4000" height="4000" fill="url(#bgGrad)" />
  <g opacity="0.05" stroke="#ffffff" stroke-width="1">
    <line x1="0" y1="0" x2="0" y2="4000" />
    <line x1="100" y1="0" x2="100" y2="4000" />
    <line x1="200" y1="0" x2="200" y2="4000" />
    <line x1="300" y1="0" x2="300" y2="4000" />
    <line x1="400" y1="0" x2="400" y2="4000" />
    <line x1="500" y1="0" x2="500" y2="4000" />
    <line x1="600" y1="0" x2="600" y2="4000" />
    <line x1="700" y1="0" x2="700" y2="4000" />
    <line x1="800" y1="0" x2="800" y2="4000" />
    <line x1="900" y1="0" x2="900" y2="4000" />
    <line x1="1000" y1="0" x2="1000" y2="4000" />
    <line x1="1100" y1="0" x2="1100" y2="4000" />
    <line x1="1200" y1="0" x2="1200" y2="4000" />
    <line x1="1300" y1="0" x2="1300" y2="4000" />
    <line x1="1400" y1="0" x2="1400" y2="4000" />
    <line x1="1500" y1="0" x2="1500" y2="4000" />
    <line x1="1600" y1="0" x2="1600" y2="4000" />
    <line x1="1700" y1="0" x2="1700" y2="4000" />
    <line x1="1800" y1="0" x2="1800" y2="4000" />
    <line x1="1900" y1="0" x2="1900" y2="4000" />
    <line x1="2000" y1="0" x2="2000" y2="4000" />
    <line x1="2100" y1="0" x2="2100" y2="4000" />
    <line x1="2200" y1="0" x2="2200" y2="4000" />
    <line x1="2300" y1="0" x2="2300" y2="4000" />
    <line x1="2400" y1="0" x2="2400" y2="4000" />
    <line x1="2500" y1="0" x2="2500" y2="4000" />
    <line x1="2600" y1="0" x2="2600" y2="4000" />
    <line x1="2700" y1="0" x2="2700" y2="4000" />
    <line x1="2800" y1="0" x2="2800" y2="4000" />
    <line x1="2900" y1="0" x2="2900" y2="4000" />
    <line x1="3000" y1="0" x2="3000" y2="4000" />
    <line x1="3100" y1="0" x2="3100" y2="4000" />
    <line x1="3200" y1="0" x2="3200" y2="4000" />
    <line x1="3300" y1="0" x2="3300" y2="4000" />
    <line x1="3400" y1="0" x2="3400" y2="4000" />
    <line x1="3500" y1="0" x2="3500" y2="4000" />
    <line x1="3600" y1="0" x2="3600" y2="4000" />
    <line x1="3700" y1="0" x2="3700" y2="4000" />
    <line x1="3800" y1="0" x2="3800" y2="4000" />
    <line x1="3900" y1="0" x2="3900" y2="4000" />
    <line x1="4000" y1="0" x2="4000" y2="4000" />
    <line x1="0" y1="0" x2="4000" y2="0" />
    <line x1="0" y1="100" x2="4000" y2="100" />
    <line x1="0" y1="200" x2="4000" y2="200" />
    <line x1="0" y1="300" x2="4000" y2="300" />
    <line x1="0" y1="400" x2="4000" y2="400" />
    <line x1="0" y1="500" x2="4000" y2="500" />
    <line x1="0" y1="600" x2="4000" y2="600" />
    <line x1="0" y1="700" x2="4000" y2="700" />
    <line x1="0" y1="800" x2="4000" y2="800" />
    <line x1="0" y1="900" x2="4000" y2="900" />
    <line x1="0" y1="1000" x2="4000" y2="1000" />
    <line x1="0" y1="1100" x2="4000" y2="1100" />
    <line x1="0" y1="1200" x2="4000" y2="1200" />
    <line x1="0" y1="1300" x2="4000" y2="1300" />
    <line x1="0" y1="1400" x2="4000" y2="1400" />
    <line x1="0" y1="1500" x2="4000" y2="1500" />
    <line x1="0" y1="1600" x2="4000" y2="1600" />
    <line x1="0" y1="1700" x2="4000" y2="1700" />
    <line x1="0" y1="1800" x2="4000" y2="1800" />
    <line x1="0" y1="1900" x2="4000" y2="1900" />
    <line x1="0" y1="2000" x2="4000" y2="2000" />
    <line x1="0" y1="2100" x2="4000" y2="2100" />
    <line x1="0" y1="2200" x2="4000" y2="2200" />
    <line x1="0" y1="2300" x2="4000" y2="2300" />
    <line x1="0" y1="2400" x2="4000" y2="2400" />
    <line x1="0" y1="2500" x2="4000" y2="2500" />
    <line x1="0" y1="2600" x2="4000" y2="2600" />
    <line x1="0" y1="2700" x2="4000" y2="2700" />
    <line x1="0" y1="2800" x2="4000" y2="2800" />
    <line x1="0" y1="2900" x2="4000" y2="2900" />
    <line x1="0" y1="3000" x2="4000" y2="3000" />
    <line x1="0" y1="3100" x2="4000" y2="3100" />
    <line x1="0" y1="3200" x2="4000" y2="3200" />
    <line x1="0" y1="3300" x2="4000" y2="3300" />
    <line x1="0" y1="3400" x2="4000" y2="3400" />
    <line x1="0" y1="3500" x2="4000" y2="3500" />
    <line x1="0" y1="3600" x2="4000" y2="3600" />
    <line x1="0" y1="3700" x2="4000" y2="3700" />
    <line x1="0" y1="3800" x2="4000" y2="3800" />
    <line x1="0" y1="3900" x2="4000" y2="3900" />
    <line x1="0" y1="4000" x2="4000" y2="4000" />
  </g>
  <rect x="1950" y="200" width="100" height="3600" fill="#2e1515" stroke="#0e0505" stroke-width="2" />
  <rect x="800" y="950" width="2400" height="100" fill="#2e1515" stroke="#0e0505" stroke-width="2" />
  <rect x="800" y="2450" width="2400" height="100" fill="#2e1515" stroke="#0e0505" stroke-width="2" />
  <rect x="1700" y="400" width="200" height="200" fill="#2e1515" stroke="#0e0505" stroke-width="3" />
  <text x="1800" y="500" fill="#c0a0a0" font-size="14" font-weight="bold" text-anchor="middle" dominant-baseline="central" font-family="monospace">Crypt 1</text>
  <rect x="2200" y="400" width="200" height="200" fill="#2e1515" stroke="#0e0505" stroke-width="3" />
  <text x="2300" y="500" fill="#c0a0a0" font-size="14" font-weight="bold" text-anchor="middle" dominant-baseline="central" font-family="monospace">Crypt 2</text>
  <rect x="1700" y="700" width="200" height="200" fill="#2e1515" stroke="#0e0505" stroke-width="3" />
  <text x="1800" y="800" fill="#c0a0a0" font-size="14" font-weight="bold" text-anchor="middle" dominant-baseline="central" font-family="monospace">Crypt 3</text>
  <rect x="2200" y="700" width="200" height="200" fill="#2e1515" stroke="#0e0505" stroke-width="3" />
  <text x="2300" y="800" fill="#c0a0a0" font-size="14" font-weight="bold" text-anchor="middle" dominant-baseline="central" font-family="monospace">Crypt 4</text>
  <rect x="900" y="700" width="200" height="200" fill="#2e1515" stroke="#0e0505" stroke-width="3" />
  <text x="1000" y="800" fill="#c0a0a0" font-size="14" font-weight="bold" text-anchor="middle" dominant-baseline="central" font-family="monospace">Crypt 5</text>
  <rect x="900" y="1100" width="200" height="200" fill="#2e1515" stroke="#0e0505" stroke-width="3" />
  <text x="1000" y="1200" fill="#c0a0a0" font-size="14" font-weight="bold" text-anchor="middle" dominant-baseline="central" font-family="monospace">Crypt 6</text>
  <rect x="2900" y="700" width="200" height="200" fill="#2e1515" stroke="#0e0505" stroke-width="3" />
  <text x="3000" y="800" fill="#c0a0a0" font-size="14" font-weight="bold" text-anchor="middle" dominant-baseline="central" font-family="monospace">Crypt 7</text>
  <rect x="2900" y="1100" width="200" height="200" fill="#2e1515" stroke="#0e0505" stroke-width="3" />
  <text x="3000" y="1200" fill="#c0a0a0" font-size="14" font-weight="bold" text-anchor="middle" dominant-baseline="central" font-family="monospace">Crypt 8</text>
  <rect x="900" y="2200" width="200" height="200" fill="#2e1515" stroke="#0e0505" stroke-width="3" />
  <text x="1000" y="2300" fill="#c0a0a0" font-size="14" font-weight="bold" text-anchor="middle" dominant-baseline="central" font-family="monospace">Crypt 9</text>
  <rect x="900" y="2600" width="200" height="200" fill="#2e1515" stroke="#0e0505" stroke-width="3" />
  <text x="1000" y="2700" fill="#c0a0a0" font-size="14" font-weight="bold" text-anchor="middle" dominant-baseline="central" font-family="monospace">Crypt 10</text>
  <rect x="2900" y="2200" width="200" height="200" fill="#2e1515" stroke="#0e0505" stroke-width="3" />
  <text x="3000" y="2300" fill="#c0a0a0" font-size="14" font-weight="bold" text-anchor="middle" dominant-baseline="central" font-family="monospace">Crypt 11</text>
  <rect x="2900" y="2600" width="200" height="200" fill="#2e1515" stroke="#0e0505" stroke-width="3" />
  <text x="3000" y="2700" fill="#c0a0a0" font-size="14" font-weight="bold" text-anchor="middle" dominant-baseline="central" font-family="monospace">Crypt 12</text>
  <rect x="1800" y="3000" width="400" height="400" fill="#8b1a1a" stroke="#0e0505" stroke-width="4" />
  <rect x="1804" y="3004" width="392" height="392" fill="none" stroke="#c0a0a0" stroke-width="1" stroke-dasharray="8,4" opacity="0.5" />
  <text x="2000" y="3192" fill="#c0a0a0" font-size="14" font-weight="bold" text-anchor="middle" dominant-baseline="central" font-family="monospace">Strahd's Coffin</text>
  <text x="2000" y="3210" fill="#c0a0a0" font-size="12" text-anchor="middle" dominant-baseline="central" font-family="monospace">Chamber</text>
  <polygon points="2000,2990 1992,3006 2008,3006" fill="#ff6600" stroke="#ffcc00" stroke-width="2" />
  <circle cx="2000" cy="3200" r="15" fill="#8b1a1a" stroke="#c0a0a0" stroke-width="2" opacity="0.8" />
  <text x="2000" y="3228" fill="#c0a0a0" font-size="10" text-anchor="middle" font-family="monospace" opacity="0.7">Coffin</text>
  <rect x="1850" y="1500" width="300" height="300" fill="#2e1515" stroke="#0e0505" stroke-width="3" />
  <text x="2000" y="1650" fill="#c0a0a0" font-size="14" font-weight="bold" text-anchor="middle" dominant-baseline="central" font-family="monospace">Sergei's Tomb</text>
  <rect x="1990" y="1496" width="20" height="8" fill="#8b7355" stroke="#c0b090" stroke-width="1" />
  <circle cx="2000" cy="1650" r="15" fill="#8b1a1a" stroke="#c0a0a0" stroke-width="2" opacity="0.8" />
  <text x="2000" y="1678" fill="#c0a0a0" font-size="10" text-anchor="middle" font-family="monospace" opacity="0.7">Sarcophagus</text>
  <circle cx="800" cy="500" r="12" fill="#cc6600" stroke="#ffaa00" stroke-width="2" />
  <circle cx="800" cy="500" r="6" fill="#ff8800" stroke="none" opacity="0.6" />
  <text x="800" y="528" fill="#c0a0a0" font-size="10" text-anchor="middle" font-family="monospace" opacity="0.7">Brazier</text>
  <circle cx="3200" cy="500" r="12" fill="#cc6600" stroke="#ffaa00" stroke-width="2" />
  <circle cx="3200" cy="500" r="6" fill="#ff8800" stroke="none" opacity="0.6" />
  <text x="3200" y="528" fill="#c0a0a0" font-size="10" text-anchor="middle" font-family="monospace" opacity="0.7">Brazier</text>
  <circle cx="2000" cy="2200" r="12" fill="#cc6600" stroke="#ffaa00" stroke-width="2" />
  <circle cx="2000" cy="2200" r="6" fill="#ff8800" stroke="none" opacity="0.6" />
  <text x="2000" y="2228" fill="#c0a0a0" font-size="10" text-anchor="middle" font-family="monospace" opacity="0.7">Brazier</text>
  <text x="3980" y="3985" fill="#ffffff" font-size="20" text-anchor="end" font-family="monospace" opacity="0.15">Spire Crypts</text>
</svg>