<?xml version='1.0' encoding='utf-8'?>
<svg xmlns="http://www.w3.org/2000/svg" xmlns:xlink="http://www.w3.org/1999/xlink" viewBox="0 0 3000 2500" width="3000" height="2500">
  <defs>
    <radialGradient id="bgGrad" cx="50%" cy="50%" r="70%">
      <stop offset="0%" stop-color="#321e1e" />
      <stop offset="100%" stop-color="#140000" />
    </radialGradient>
  </defs>
  <rect x="0" y="0" width="3000" height="2500" fill="url(#bgGrad)" />
  <g opacity="0.05" stroke="#ffffff" stroke-width="1">
    <line x1="0" y1="0" x2="0" y2="2500" />
    <line x1="100" y1="0" x2="100" y2="2500" />
    <line x1="200" y1="0" x2="200" y2="2500" />
    <line x1="300" y1="0" x2="300" y2="2500" />
    <line x1="400" y1="0" x2="400" y2="2500" />
    <line x1="500" y1="0" x2="500" y2="2500" />
    <line x1="600" y1="0" x2="600" y2="2500" />
    <line x1="700" y1="0" x2="700" y2="2500" />
    <line x1="800" y1="0" x2="800" y2="2500" />
    <line x1="900" y1="0" x2="900" y2="2500" />
    <line x1="1000" y1="0" x2="1000" y2="2500" />
    <line x1="1100" y1="0" x2="1100" y2="2500" />
    <line x1="1200" y1="0" x2="1200" y2="2500" />
    <line x1="1300" y1="0" x2="1300" y2="2500" />
    <line x1="1400" y1="0" x2="1400" y2="2500" />
    <line x1="1500" y1="0" x2="1500" y2="2500" />
    <line x1="1600" y1="0" x2="1600" y2="2500" />
    <line x1="1700" y1="0" x2="1700" y2="2500" />
    <line x1="1800" y1="0" x2="1800" y2="2500" />
    <line x1="1900" y1="0" x2="1900" y2="2500" />
    <line x1="2000" y1="0" x2="2000" y2="2500" />
    <line x1="2100" y1="0" x2="2100" y2="2500" />
    <line x1="2200" y1="0" x2="2200" y2="2500" />
    <line x1="2300" y1="0" x2="2300" y2="2500" />
    <line x1="2400" y1="0" x2="2400" y2="2500" />
    <line x1="2500" y1="0" x2="2500" y2="2500" />
    <line x1="2600" y1="0" x2="2600" y2="2500" />
    <line x1="2700" y1="0" x2="2700" y2="2500" />
    <line x1="2800" y1="0" x2="2800" y2="2500" />
    <line x1="2900" y1="0" x2="2900" y2="2500" />
    <line x1="3000" y1="0" x2="3000" y2="2500" />
    <line x1="0" y1="0" x2="3000" y2="0" />
    <line x1="0" y1="100" x2="3000" y2="100" />
    <line x1="0" y1="200" x2="3000" y2="200" />
    <line x1="0" y1="300" x2="3000" y2="300" />
    <line x1="0" y1="400" x2="3000" y2="400" />
    <line x1="0" y1="500" x2="3000" y2="500" />
    <line x1="0" y1="600" x2="3000" y2="600" />
    <line x1="0" y1="700" x2="3000" y2="700" />
    <line x1="0" y1="800" x2="3000" y2="800" />
    <line x1="0" y1="900" x2="3000" y2="900" />
    <line x1="0" y1="1000" x2="3000" y2="1000" />
    <line x1="0" y1="1100" x2="3000" y2="1100" />
    <line x1="0" y1="1200" x2="3000" y2="1200" />
    <line x1="0" y1="1300" x2="3000" y2="1300" />
    <line x1="0" y1="1400" x2="3000" y2="1400" />
    <line x1="0" y1="1500" x2="3000" y2="1500" />
    <line x1="0" y1="1600" x2="3000" y2="1600" />
    <line x1="0" y1="1700" x2="3000" y2="1700" />
    <line x1="0" y1="1800" x2="3000" y2="1800" />
    <line x1="0" y1="1900" x2="3000" y2="1900" />
    <line x1="0" y1="2000" x2="3000" y2="2000" />
    <line x1="0" y1="2100" x2="3000" y2="2100" />
    <line x1="0" y1="2200" x2="3000" y2="2200" />
    <line x1="0" y1="2300" x2="3000" y2="2300" />
    <line x1="0" y1="2400" x2="3000" y2="2400" />
    <line x1="0" y1="2500" x2="3000" y2="2500" />
  </g>
  <rect x="100" y="100" width="2800" height="2300" fill="none" stroke="#0e0505" stroke-width="4" id="outer-wall" />
  <rect x="500" y="500" width="2000" height="1600" fill="#2e1515" stroke="#0e0505" stroke-width="3" />
  <text x="1500" y="1300" fill="#c0a0a0" font-size="14" font-weight="bold" text-anchor="middle" dominant-baseline="central" font-family="monospace">Inner Courtyard</text>
  <rect x="1300" y="2200" width="400" height="200" fill="#2e1515" stroke="#0e0505" stroke-width="3" />
  <text x="1500" y="2300" fill="#c0a0a0" font-size="14" font-weight="bold" text-anchor="middle" dominant-baseline="central" font-family="monospace">Gatehouse</text>
  <rect x="1490" y="2196" width="20" height="8" fill="#8b7355" stroke="#c0b090" stroke-width="1" />
  <rect x="1350" y="2050" width="300" height="150" fill="#0a0505" stroke="#8b1a1a" stroke-width="2" stroke-dasharray="10,5" />
  <text x="1500" y="2130" fill="#c0a0a0" font-size="11" text-anchor="middle" font-family="monospace" opacity="0.5">Drawbridge</text>
  <rect x="200" y="200" width="200" height="200" fill="#2e1515" stroke="#0e0505" stroke-width="3" />
  <text x="300" y="300" fill="#c0a0a0" font-size="14" font-weight="bold" text-anchor="middle" dominant-baseline="central" font-family="monospace">NW Tower</text>
  <rect x="2700" y="200" width="200" height="200" fill="#2e1515" stroke="#0e0505" stroke-width="3" />
  <text x="2800" y="300" fill="#c0a0a0" font-size="14" font-weight="bold" text-anchor="middle" dominant-baseline="central" font-family="monospace">NE Tower</text>
  <rect x="200" y="2100" width="200" height="200" fill="#2e1515" stroke="#0e0505" stroke-width="3" />
  <text x="300" y="2200" fill="#c0a0a0" font-size="14" font-weight="bold" text-anchor="middle" dominant-baseline="central" font-family="monospace">SW Tower</text>
  <rect x="2700" y="2100" width="200" height="200" fill="#2e1515" stroke="#0e0505" stroke-width="3" />
  <text x="2800" y="2200" fill="#c0a0a0" font-size="14" font-weight="bold" text-anchor="middle" dominant-baseline="central" font-family="monospace">SE Tower</text>
  <rect x="600" y="1800" width="300" height="200" fill="#2e1515" stroke="#0e0505" stroke-width="3" />
  <text x="750" y="1900" fill="#c0a0a0" font-size="14" font-weight="bold" text-anchor="middle" dominant-baseline="central" font-family="monospace">Stables</text>
  <circle cx="1500" cy="1200" r="15" fill="#8b1a1a" stroke="#c0a0a0" stroke-width="2" opacity="0.8" />
  <text x="1500" y="1228" fill="#c0a0a0" font-size="10" text-anchor="middle" font-family="monospace" opacity="0.7">Well</text>
  <polyline points="1500,2500 1500,2400" fill="none" stroke="#2e1515" stroke-width="80" stroke-linecap="round" stroke-linejoin="round" opacity="0.6" />
  <rect x="150" y="600" width="300" height="250" fill="#2e1515" stroke="#0e0505" stroke-width="3" />
  <text x="300" y="717" fill="#c0a0a0" font-size="14" font-weight="bold" text-anchor="middle" dominant-baseline="central" font-family="monospace">Servant</text>
  <text x="300" y="735" fill="#c0a0a0" font-size="12" text-anchor="middle" dominant-baseline="central" font-family="monospace">Quarters</text>
  <rect x="446" y="715" width="8" height="20" fill="#8b7355" stroke="#c0b090" stroke-width="1" />
  <rect x="2550" y="600" width="300" height="250" fill="#2e1515" stroke="#0e0505" stroke-width="3" />
  <text x="2700" y="725" fill="#c0a0a0" font-size="14" font-weight="bold" text-anchor="middle" dominant-baseline="central" font-family="monospace">Guard Post</text>
  <rect x="2546" y="715" width="8" height="20" fill="#8b7355" stroke="#c0b090" stroke-width="1" />
  <rect x="150" y="1400" width="300" height="250" fill="#2e1515" stroke="#0e0505" stroke-width="3" />
  <text x="300" y="1525" fill="#c0a0a0" font-size="14" font-weight="bold" text-anchor="middle" dominant-baseline="central" font-family="monospace">Storage Cellar</text>
  <rect x="446" y="1515" width="8" height="20" fill="#8b7355" stroke="#c0b090" stroke-width="1" />
  <rect x="2550" y="1400" width="300" height="250" fill="#2e1515" stroke="#0e0505" stroke-width="3" />
  <text x="2700" y="1525" fill="#c0a0a0" font-size="14" font-weight="bold" text-anchor="middle" dominant-baseline="central" font-family="monospace">Prayer Alcove</text>
  <rect x="2546" y="1515" width="8" height="20" fill="#8b7355" stroke="#c0b090" stroke-width="1" />
  <rect x="1000" y="1800" width="300" height="200" fill="#2e1515" stroke="#0e0505" stroke-width="3" />
  <text x="1150" y="1900" fill="#c0a0a0" font-size="14" font-weight="bold" text-anchor="middle" dominant-baseline="central" font-family="monospace">Smithy</text>
  <rect x="1140" y="1796" width="20" height="8" fill="#8b7355" stroke="#c0b090" stroke-width="1" />
  <rect x="1800" y="1800" width="300" height="200" fill="#2e1515" stroke="#0e0505" stroke-width="3" />
  <text x="1950" y="1900" fill="#c0a0a0" font-size="14" font-weight="bold" text-anchor="middle" dominant-baseline="central" font-family="monospace">Pantry</text>
  <rect x="1940" y="1796" width="20" height="8" fill="#8b7355" stroke="#c0b090" stroke-width="1" />
  <rect x="700" y="550" width="300" height="200" fill="#2e1515" stroke="#0e0505" stroke-width="3" />
  <text x="850" y="650" fill="#c0a0a0" font-size="14" font-weight="bold" text-anchor="middle" dominant-baseline="central" font-family="monospace">Trophy Room</text>
  <circle cx="850" cy="750" r="8" fill="#cc3333" stroke="#ffcc00" stroke-width="2" />
  <text x="2980" y="2485" fill="#ffffff" font-size="20" text-anchor="end" font-family="monospace" opacity="0.15">Spire Courtyard</text>
</svg>