<?xml version='1.0' encoding='utf-8'?>
<svg xmlns="http://www.w3.org/2000/svg" xmlns:xlink="http://www.w3.org/1999/xlink" viewBox="0 0 4000 2500" width="4000" height="2500">
  <defs>
    <radialGradient id="bgGrad" cx="50%" cy="50%" r="70%">
      <stop offset="0%" stop-color="#323439" />
      <stop offset="100%" stop-color="#14161b" />
    </radialGradient>
  </defs>
  <rect x="0" y="0" width="4000" height="2500" fill="url(#bgGrad)" />
  <g opacity="0.05" stroke="#ffffff" stroke-width="1">
    <line x1="0" y1="0" x2="0" y2="2500" />
    <line x1="100" y1="0" x2="100" y2="2500" />
    <line x1="200" y1="0" x2="200" y2="2500" />
    <line x1="300" y1="0" x2="300" y2="2500" />
    <line x1="400" y1="0" x2="400" y2="2500" />
    <line x1="500" y1="0" x2="500" y2="2500" />
    <line x1="600" y1="0" x2="600" y2="2500" />
    <line x1="700" y1="0" x2="700" y2="2500" />
    <line x1="800" y1="0" x2="800" y2="2500" />
    <line x1="900" y1="0" x2="900" y2="2500" />
    <line x1="1000" y1="0" x2="1000" y2="2500" />
    <line x1="1100" y1="0" x2="1100" y2="2500" />
    <line x1="1200" y1="0" x2="1200" y2="2500" />
    <line x1="1300" y1="0" x2="1300" y2="2500" />
    <line x1="1400" y1="0" x2="1400" y2="2500" />
    <line x1="1500" y1="0" x2="1500" y2="2500" />
    <line x1="1600" y1="0" x2="1600" y2="2500" />
    <line x1="1700" y1="0" x2="1700" y2="2500" />
    <line x1="1800" y1="0" x2="1800" y2="2500" />
    <line x1="1900" y1="0" x2="1900" y2="2500" />
    <line x1="2000" y1="0" x2="2000" y2="2500" />
    <line x1="2100" y1="0" x2="2100" y2="2500" />
    <line x1="2200" y1="0" x2="2200" y2="2500" />
    <line x1="2300" y1="0" x2="2300" y2="2500" />
    <line x1="2400" y1="0" x2="2400" y2="2500" />
    <line x1="2500" y1="0" x2="2500" y2="2500" />
    <line x1="2600" y1="0" x2="2600" y2="2500" />
    <line x1="2700" y1="0" x2="2700" y2="2500" />
    <line x1="2800" y1="0" x2="2800" y2="2500" />
    <line x1="2900" y1="0" x2="2900" y2="2500" />
    <line x1="3000" y1="0" x2="3000" y2="2500" />
    <line x1="3100" y1="0" x2="3100" y2="2500" />
    <line x1="3200" y1="0" x2="3200" y2="2500" />
    <line x1="3300" y1="0" x2="3300" y2="2500" />
    <line x1="3400" y1="0" x2="3400" y2="2500" />
    <line x1="3500" y1="0" x2="3500" y2="2500" />
    <line x1="3600" y1="0" x2="3600" y2="2500" />
    <line x1="3700" y1="0" x2="3700" y2="2500" />
    <line x1="3800" y1="0" x2="3800" y2="2500" />
    <line x1="3900" y1="0" x2="3900" y2="2500" />
    <line x1="4000" y1="0" x2="4000" y2="2500" />
    <line x1="0" y1="0" x2="4000" y2="0" />
    <line x1="0" y1="100" x2="4000" y2="100" />
    <line x1="0" y1="200" x2="4000" y2="200" />
    <line x1="0" y1="300" x2="4000" y2="300" />
    <line x1="0" y1="400" x2="4000" y2="400" />
    <line x1="0" y1="500" x2="4000" y2="500" />
    <line x1="0" y1="600" x2="4000" y2="600" />
    <line x1="0" y1="700" x2="4000" y2="700" />
    <line x1="0" y1="800" x2="4000" y2="800" />
    <line x1="0" y1="900" x2="4000" y2="900" />
    <line x1="0" y1="1000" x2="4000" y2="1000" />
    <line x1="0" y1="1100" x2="4000" y2="1100" />
    <line x1="0" y1="1200" x2="4000" y2="1200" />
    <line x1="0" y1="1300" x2="4000" y2="1300" />
    <line x1="0" y1="1400" x2="4000" y2="1400" />
    <line x1="0" y1="1500" x2="4000" y2="1500" />
    <line x1="0" y1="1600" x2="4000" y2="1600" />
    <line x1="0" y1="1700" x2="4000" y2="1700" />
    <line x1="0" y1="1800" x2="4000" y2="1800" />
    <line x1="0" y1="1900" x2="4000" y2="1900" />
    <line x1="0" y1="2000" x2="4000" y2="2000" />
    <line x1="0" y1="2100" x2="4000" y2="2100" />
    <line x1="0" y1="2200" x2="4000" y2="2200" />
    <line x1="0" y1="2300" x2="4000" y2="2300" />
    <line x1="0" y1="2400" x2="4000" y2="2400" />
    <line x1="0" y1="2500" x2="4000" y2="2500" />
  </g>
  <polygon points="400,100 3900,100 3900,2400 400,2400 100,1250" fill="none" stroke="#15171a" stroke-width="5" />
  <rect x="500" y="1200" width="3200" height="100" fill="#2d3035" stroke="#15171a" stroke-width="2" />
  <rect x="500" y="700" width="500" height="400" fill="#2d3035" stroke="#15171a" stroke-width="3" />
  <text x="750" y="892" fill="#a0a8b0" font-size="14" font-weight="bold" text-anchor="middle" dominant-baseline="central" font-family="monospace">MD1: Crew</text>
  <text x="750" y="910" fill="#a0a8b0" font-size="12" text-anchor="middle" dominant-baseline="central" font-family="monospace">Quarters</text>
  <rect x="740" y="1096" width="20" height="8" fill="#8b7355" stroke="#c0b090" stroke-width="1" />
  <rect x="1100" y="700" width="400" height="400" fill="#2d3035" stroke="#15171a" stroke-width="3" />
  <text x="1300" y="900" fill="#a0a8b0" font-size="14" font-weight="bold" text-anchor="middle" dominant-baseline="central" font-family="monospace">MD2: Mess Hall</text>
  <rect x="1290" y="1096" width="20" height="8" fill="#8b7355" stroke="#c0b090" stroke-width="1" />
  <rect x="1185" y="885" width="30" height="30" fill="#c8a832" stroke="#a0a8b0" stroke-width="2" opacity="0.7" />
  <rect x="1385" y="885" width="30" height="30" fill="#c8a832" stroke="#a0a8b0" stroke-width="2" opacity="0.7" />
  <rect x="1600" y="700" width="300" height="400" fill="#2d3035" stroke="#15171a" stroke-width="3" />
  <text x="1750" y="900" fill="#a0a8b0" font-size="14" font-weight="bold" text-anchor="middle" dominant-baseline="central" font-family="monospace">MD3: Chapel</text>
  <rect x="1740" y="1096" width="20" height="8" fill="#8b7355" stroke="#c0b090" stroke-width="1" />
  <circle cx="1750" cy="800" r="15" fill="#c8a832" stroke="#a0a8b0" stroke-width="2" opacity="0.8" />
  <text x="1750" y="828" fill="#a0a8b0" font-size="10" text-anchor="middle" font-family="monospace" opacity="0.7">Altar</text>
  <rect x="2000" y="600" width="600" height="500" fill="#2d3035" stroke="#15171a" stroke-width="3" />
  <text x="2300" y="850" fill="#a0a8b0" font-size="14" font-weight="bold" text-anchor="middle" dominant-baseline="central" font-family="monospace">MD4: Cargo Bay</text>
  <rect x="2290" y="1096" width="20" height="8" fill="#8b7355" stroke="#c0b090" stroke-width="1" />
  <rect x="2090" y="740" width="20" height="20" fill="#c8a832" stroke="#a0a8b0" stroke-width="2" opacity="0.7" />
  <rect x="2190" y="840" width="20" height="20" fill="#c8a832" stroke="#a0a8b0" stroke-width="2" opacity="0.7" />
  <rect x="2390" y="740" width="20" height="20" fill="#c8a832" stroke="#a0a8b0" stroke-width="2" opacity="0.7" />
  <rect x="1100" y="1400" width="300" height="300" fill="#2d3035" stroke="#15171a" stroke-width="3" />
  <text x="1250" y="1542" fill="#a0a8b0" font-size="14" font-weight="bold" text-anchor="middle" dominant-baseline="central" font-family="monospace">MD5: Prep</text>
  <text x="1250" y="1560" fill="#a0a8b0" font-size="12" text-anchor="middle" dominant-baseline="central" font-family="monospace">Chamber</text>
  <rect x="1240" y="1396" width="20" height="8" fill="#8b7355" stroke="#c0b090" stroke-width="1" />
  <rect x="1500" y="1400" width="300" height="300" fill="#2d3035" stroke="#15171a" stroke-width="3" />
  <text x="1650" y="1542" fill="#a0a8b0" font-size="14" font-weight="bold" text-anchor="middle" dominant-baseline="central" font-family="monospace">MD6: Navigator</text>
  <text x="1650" y="1560" fill="#a0a8b0" font-size="12" text-anchor="middle" dominant-baseline="central" font-family="monospace">Cell</text>
  <circle cx="1650" cy="1400" r="8" fill="#cc3333" stroke="#ffcc00" stroke-width="2" />
  <polygon points="1650.0,1532.0 1653.4,1541.7 1662.7,1537.3 1658.3,1546.6 1668.0,1550.0 1658.3,1553.4 1662.7,1562.7 1653.4,1558.3 1650.0,1568.0 1646.6,1558.3 1637.3,1562.7 1641.7,1553.4 1632.0,1550.0 1641.7,1546.6 1637.3,1537.3 1646.6,1541.7" fill="#cc44aa" stroke="#ff88dd" stroke-width="1" opacity="0.8" />
  <rect x="1900" y="1400" width="300" height="300" fill="#2d3035" stroke="#15171a" stroke-width="3" />
  <text x="2050" y="1542" fill="#a0a8b0" font-size="14" font-weight="bold" text-anchor="middle" dominant-baseline="central" font-family="monospace">MD7: Power</text>
  <text x="2050" y="1560" fill="#a0a8b0" font-size="12" text-anchor="middle" dominant-baseline="central" font-family="monospace">Junction</text>
  <rect x="2040" y="1396" width="20" height="8" fill="#8b7355" stroke="#c0b090" stroke-width="1" />
  <rect x="2800" y="1050" width="200" height="200" fill="#2d3035" stroke="#15171a" stroke-width="3" />
  <text x="2900" y="1150" fill="#a0a8b0" font-size="14" font-weight="bold" text-anchor="middle" dominant-baseline="central" font-family="monospace">MD8: Stairs</text>
  <rect x="2885" y="1135" width="30" height="30" fill="none" stroke="#a0a8b0" stroke-width="1" />
  <polygon points="2900,1160 2892,1145 2908,1145" fill="#a0a8b0" opacity="0.6" />
  <text x="2900" y="1178" fill="#a0a8b0" font-size="9" text-anchor="middle" font-family="monospace" opacity="0.6">Stairs Down</text>
  <rect x="2885" y="1035" width="30" height="30" fill="none" stroke="#a0a8b0" stroke-width="1" />
  <polygon points="2900,1040 2892,1055 2908,1055" fill="#a0a8b0" opacity="0.6" />
  <text x="2900" y="1078" fill="#a0a8b0" font-size="9" text-anchor="middle" font-family="monospace" opacity="0.6">Stairs Up</text>
  <text x="3980" y="2485" fill="#ffffff" font-size="20" text-anchor="end" font-family="monospace" opacity="0.15">Vessel Mid Deck</text>
</svg>