<?xml version='1.0' encoding='utf-8'?>
<svg xmlns="http://www.w3.org/2000/svg" xmlns:xlink="http://www.w3.org/1999/xlink" viewBox="0 0 6000 3500" width="6000" height="3500">
  <defs>
    <radialGradient id="bgGrad" cx="50%" cy="50%" r="70%">
      <stop offset="0%" stop-color="#2e1e32" />
      <stop offset="100%" stop-color="#100014" />
    </radialGradient>
  </defs>
  <rect x="0" y="0" width="6000" height="3500" fill="url(#bgGrad)" />
  <g opacity="0.05" stroke="#ffffff" stroke-width="1">
    <line x1="0" y1="0" x2="0" y2="3500" />
    <line x1="100" y1="0" x2="100" y2="3500" />
    <line x1="200" y1="0" x2="200" y2="3500" />
    <line x1="300" y1="0" x2="300" y2="3500" />
    <line x1="400" y1="0" x2="400" y2="3500" />
    <line x1="500" y1="0" x2="500" y2="3500" />
    <line x1="600" y1="0" x2="600" y2="3500" />
    <line x1="700" y1="0" x2="700" y2="3500" />
    <line x1="800" y1="0" x2="800" y2="3500" />
    <line x1="900" y1="0" x2="900" y2="3500" />
    <line x1="1000" y1="0" x2="1000" y2="3500" />
    <line x1="1100" y1="0" x2="1100" y2="3500" />
    <line x1="1200" y1="0" x2="1200" y2="3500" />
    <line x1="1300" y1="0" x2="1300" y2="3500" />
    <line x1="1400" y1="0" x2="1400" y2="3500" />
    <line x1="1500" y1="0" x2="1500" y2="3500" />
    <line x1="1600" y1="0" x2="1600" y2="3500" />
    <line x1="1700" y1="0" x2="1700" y2="3500" />
    <line x1="1800" y1="0" x2="1800" y2="3500" />
    <line x1="1900" y1="0" x2="1900" y2="3500" />
    <line x1="2000" y1="0" x2="2000" y2="3500" />
    <line x1="2100" y1="0" x2="2100" y2="3500" />
    <line x1="2200" y1="0" x2="2200" y2="3500" />
    <line x1="2300" y1="0" x2="2300" y2="3500" />
    <line x1="2400" y1="0" x2="2400" y2="3500" />
    <line x1="2500" y1="0" x2="2500" y2="3500" />
    <line x1="2600" y1="0" x2="2600" y2="3500" />
    <line x1="2700" y1="0" x2="2700" y2="3500" />
    <line x1="2800" y1="0" x2="2800" y2="3500" />
    <line x1="2900" y1="0" x2="2900" y2="3500" />
    <line x1="3000" y1="0" x2="3000" y2="3500" />
    <line x1="3100" y1="0" x2="3100" y2="3500" />
    <line x1="3200" y1="0" x2="3200" y2="3500" />
    <line x1="3300" y1="0" x2="3300" y2="3500" />
    <line x1="3400" y1="0" x2="3400" y2="3500" />
    <line x1="3500" y1="0" x2="3500" y2="3500" />
    <line x1="3600" y1="0" x2="3600" y2="3500" />
    <line x1="3700" y1="0" x2="3700" y2="3500" />
    <line x1="3800" y1="0" x2="3800" y2="3500" />
    <line x1="3900" y1="0" x2="3900" y2="3500" />
    <line x1="4000" y1="0" x2="4000" y2="3500" />
    <line x1="4100" y1="0" x2="4100" y2="3500" />
    <line x1="4200" y1="0" x2="4200" y2="3500" />
    <line x1="4300" y1="0" x2="4300" y2="3500" />
    <line x1="4400" y1="0" x2="4400" y2="3500" />
    <line x1="4500" y1="0" x2="4500" y2="3500" />
    <line x1="4600" y1="0" x2="4600" y2="3500" />
    <line x1="4700" y1="0" x2="4700" y2="3500" />
    <line x1="4800" y1="0" x2="4800" y2="3500" />
    <line x1="4900" y1="0" x2="4900" y2="3500" />
    <line x1="5000" y1="0" x2="5000" y2="3500" />
    <line x1="5100" y1="0" x2="5100" y2="3500" />
    <line x1="5200" y1="0" x2="5200" y2="3500" />
    <line x1="5300" y1="0" x2="5300" y2="3500" />
    <line x1="5400" y1="0" x2="5400" y2="3500" />
    <line x1="5500" y1="0" x2="5500" y2="3500" />
    <line x1="5600" y1="0" x2="5600" y2="3500" />
    <line x1="5700" y1="0" x2="5700" y2="3500" />
    <line x1="5800" y1="0" x2="5800" y2="3500" />
    <line x1="5900" y1="0" x2="5900" y2="3500" />
    <line x1="6000" y1="0" x2="6000" y2="3500" />
    <line x1="0" y1="0" x2="6000" y2="0" />
    <line x1="0" y1="100" x2="6000" y2="100" />
    <line x1="0" y1="200" x2="6000" y2="200" />
    <line x1="0" y1="300" x2="6000" y2="300" />
    <line x1="0" y1="400" x2="6000" y2="400" />
    <line x1="0" y1="500" x2="6000" y2="500" />
    <line x1="0" y1="600" x2="6000" y2="600" />
    <line x1="0" y1="700" x2="6000" y2="700" />
    <line x1="0" y1="800" x2="6000" y2="800" />
    <line x1="0" y1="900" x2="6000" y2="900" />
    <line x1="0" y1="1000" x2="6000" y2="1000" />
    <line x1="0" y1="1100" x2="6000" y2="1100" />
    <line x1="0" y1="1200" x2="6000" y2="1200" />
    <line x1="0" y1="1300" x2="6000" y2="1300" />
    <line x1="0" y1="1400" x2="6000" y2="1400" />
    <line x1="0" y1="1500" x2="6000" y2="1500" />
    <line x1="0" y1="1600" x2="6000" y2="1600" />
    <line x1="0" y1="1700" x2="6000" y2="1700" />
    <line x1="0" y1="1800" x2="6000" y2="1800" />
    <line x1="0" y1="1900" x2="6000" y2="1900" />
    <line x1="0" y1="2000" x2="6000" y2="2000" />
    <line x1="0" y1="2100" x2="6000" y2="2100" />
    <line x1="0" y1="2200" x2="6000" y2="2200" />
    <line x1="0" y1="2300" x2="6000" y2="2300" />
    <line x1="0" y1="2400" x2="6000" y2="2400" />
    <line x1="0" y1="2500" x2="6000" y2="2500" />
    <line x1="0" y1="2600" x2="6000" y2="2600" />
    <line x1="0" y1="2700" x2="6000" y2="2700" />
    <line x1="0" y1="2800" x2="6000" y2="2800" />
    <line x1="0" y1="2900" x2="6000" y2="2900" />
    <line x1="0" y1="3000" x2="6000" y2="3000" />
    <line x1="0" y1="3100" x2="6000" y2="3100" />
    <line x1="0" y1="3200" x2="6000" y2="3200" />
    <line x1="0" y1="3300" x2="6000" y2="3300" />
    <line x1="0" y1="3400" x2="6000" y2="3400" />
    <line x1="0" y1="3500" x2="6000" y2="3500" />
  </g>
  <polygon points="650,150 5850,150 5850,3350 650,3350 150,1750" fill="#1a0a1e" stroke="#0e050f" stroke-width="6" id="hull-outline" />
  <g opacity="0.15" stroke="#cc44aa" stroke-width="2">
    <polyline points="650,227 690,225 730,225 770,227 810,231 850,236 890,241 930,248 970,255 1010,261 1050,266 1090,271 1130,274 1170,275 1210,274 1250,272 1290,268 1330,263 1370,257 1410,251 1450,244 1490,238 1530,233 1570,228 1610,226 1650,225 1690,226 1730,229 1770,233 1810,238 1850,244 1890,251 1930,257 1970,263 2010,269 2050,272 2090,274 2130,275 2170,274 2210,271 2250,266 2290,261 2330,254 2370,248 2410,241 2450,235 2490,231 2530,227 2570,225 2610,225 2650,227 2690,230 2730,235 2770,241 2810,247 2850,254 2890,260 2930,266 2970,270 3010,273 3050,275 3090,275 3130,273 3170,269 3210,264 3250,258 3290,251 3330,245 3370,239 3410,233 3450,229 3490,226 3530,225 3570,226 3610,228 3650,232 3690,237 3730,243 3770,250 3810,257 3850,263 3890,268 3930,272 3970,274 4010,275 4050,274 4090,271 4130,267 4170,261 4210,255 4250,249 4290,242 4330,236 4370,231 4410,227 4450,225 4490,225 4530,227 4570,230 4610,234 4650,240 4690,246 4730,253 4770,259 4810,265 4850,270 4890,273 4930,275 4970,275 5010,273 5050,269 5090,265 5130,259 5170,252 5210,246 5250,239 5290,234 5330,229 5370,226 5410,225 5450,226 5490,228 5530,232 5570,237 5610,243 5650,249 5690,256 5730,262 5770,267 5810,271" fill="none" />
    <polyline points="650,730 690,734 730,740 770,746 810,753 850,759 890,765 930,770 970,773 1010,775 1050,775 1090,773 1130,769 1170,765 1210,759 1250,752 1290,746 1330,739 1370,734 1410,729 1450,726 1490,725 1530,726 1570,728 1610,732 1650,737 1690,743 1730,749 1770,756 1810,762 1850,767 1890,771 1930,774 1970,775 2010,774 2050,772 2090,767 2130,762 2170,756 2210,749 2250,743 2290,737 2330,732 2370,728 2410,726 2450,725 2490,726 2530,729 2570,734 2610,739 2650,745 2690,752 2730,759 2770,764 2810,769 2850,773 2890,775 2930,775 2970,773 3010,770 3050,765 3090,760 3130,753 3170,746 3210,740 3250,734 3290,730 3330,727 3370,725 3410,725 3450,727 3490,731 3530,736 3570,742 3610,748 3650,755 3690,761 3730,767 3770,771 3810,774 3850,775 3890,774 3930,772 3970,768 4010,763 4050,757 4090,750 4130,744 4170,737 4210,732 4250,728 4290,726 4330,725 4370,726 4410,729 4450,733 4490,738 4530,745 4570,751 4610,758 4650,764 4690,769 4730,772 4770,775 4810,775 4850,774 4890,770 4930,766 4970,760 5010,754 5050,747 5090,741 5130,735 5170,730 5210,727 5250,725 5290,725 5330,727 5370,730 5410,735 5450,741 5490,748 5530,754 5570,761 5610,766 5650,771 5690,774 5730,775 5770,775 5810,772" fill="none" />
    <polyline points="650,1251 690,1258 730,1264 770,1269 810,1272 850,1275 890,1275 930,1274 970,1270 1010,1266 1050,1260 1090,1254 1130,1247 1170,1241 1210,1235 1250,1230 1290,1227 1330,1225 1370,1225 1410,1227 1450,1230 1490,1235 1530,1241 1570,1248 1610,1254 1650,1261 1690,1266 1730,1271 1770,1274 1810,1275 1850,1275 1890,1272 1930,1269 1970,1264 2010,1258 2050,1251 2090,1244 2130,1238 2170,1233 2210,1229 2250,1226 2290,1225 2330,1226 2370,1228 2410,1232 2450,1238 2490,1244 2530,1250 2570,1257 2610,1263 2650,1268 2690,1272 2730,1274 2770,1275 2810,1274 2850,1271 2890,1267 2930,1261 2970,1255 3010,1248 3050,1242 3090,1236 3130,1231 3170,1227 3210,1225 3250,1225 3290,1227 3330,1230 3370,1235 3410,1240 3450,1247 3490,1253 3530,1260 3570,1265 3610,1270 3650,1273 3690,1275 3730,1275 3770,1273 3810,1269 3850,1264 3890,1258 3930,1252 3970,1245 4010,1239 4050,1233 4090,1229 4130,1226 4170,1225 4210,1226 4250,1228 4290,1232 4330,1237 4370,1243 4410,1250 4450,1256 4490,1262 4530,1268 4570,1272 4610,1274 4650,1275 4690,1274 4730,1271 4770,1267 4810,1262 4850,1256 4890,1249 4930,1242 4970,1236 5010,1231 5050,1228 5090,1225 5130,1225 5170,1226 5210,1229 5250,1234 5290,1240 5330,1246 5370,1253 5410,1259 5450,1265 5490,1270 5530,1273 5570,1275 5610,1275 5650,1273 5690,1270 5730,1265 5770,1259 5810,1253" fill="none" />
    <polyline points="650,1772 690,1774 730,1775 770,1774 810,1771 850,1767 890,1762 930,1756 970,1749 1010,1742 1050,1736 1090,1731 1130,1728 1170,1725 1210,1725 1250,1726 1290,1729 1330,1734 1370,1740 1410,1746 1450,1753 1490,1759 1530,1765 1570,1770 1610,1773 1650,1775 1690,1775 1730,1773 1770,1770 1810,1765 1850,1759 1890,1753 1930,1746 1970,1740 2010,1734 2050,1730 2090,1726 2130,1725 2170,1725 2210,1728 2250,1731 2290,1736 2330,1742 2370,1749 2410,1755 2450,1762 2490,1767 2530,1771 2570,1774 2610,1775 2650,1774 2690,1772 2730,1768 2770,1763 2810,1756 2850,1750 2890,1743 2930,1737 2970,1732 3010,1728 3050,1726 3090,1725 3130,1726 3170,1729 3210,1733 3250,1739 3290,1745 3330,1752 3370,1758 3410,1764 3450,1769 3490,1773 3530,1775 3570,1775 3610,1773 3650,1770 3690,1766 3730,1760 3770,1754 3810,1747 3850,1740 3890,1735 3930,1730 3970,1727 4010,1725 4050,1725 4090,1727 4130,1731 4170,1736 4210,1741 4250,1748 4290,1755 4330,1761 4370,1766 4410,1771 4450,1774 4490,1775 4530,1774 4570,1772 4610,1768 4650,1763 4690,1757 4730,1751 4770,1744 4810,1738 4850,1732 4890,1728 4930,1726 4970,1725 5010,1726 5050,1729 5090,1733 5130,1738 5170,1744 5210,1751 5250,1757 5290,1763 5330,1769 5370,1772 5410,1774 5450,1775 5490,1774 5530,1771 5570,1766 5610,1761 5650,1754 5690,1748 5730,1741 5770,1735 5810,1731" fill="none" />
    <polyline points="650,2272 690,2268 730,2263 770,2257 810,2251 850,2244 890,2238 930,2233 970,2228 1010,2226 1050,2225 1090,2226 1130,2229 1170,2233 1210,2238 1250,2244 1290,2251 1330,2257 1370,2263 1410,2269 1450,2272 1490,2274 1530,2275 1570,2274 1610,2271 1650,2266 1690,2261 1730,2254 1770,2248 1810,2241 1850,2235 1890,2231 1930,2227 1970,2225 2010,2225 2050,2227 2090,2230 2130,2235 2170,2241 2210,2247 2250,2254 2290,2260 2330,2266 2370,2270 2410,2273 2450,2275 2490,2275 2530,2273 2570,2269 2610,2264 2650,2258 2690,2251 2730,2245 2770,2239 2810,2233 2850,2229 2890,2226 2930,2225 2970,2226 3010,2228 3050,2232 3090,2237 3130,2243 3170,2250 3210,2257 3250,2263 3290,2268 3330,2272 3370,2274 3410,2275 3450,2274 3490,2271 3530,2267 3570,2261 3610,2255 3650,2249 3690,2242 3730,2236 3770,2231 3810,2227 3850,2225 3890,2225 3930,2227 3970,2230 4010,2234 4050,2240 4090,2246 4130,2253 4170,2259 4210,2265 4250,2270 4290,2273 4330,2275 4370,2275 4410,2273 4450,2269 4490,2265 4530,2259 4570,2252 4610,2246 4650,2239 4690,2234 4730,2229 4770,2226 4810,2225 4850,2226 4890,2228 4930,2232 4970,2237 5010,2243 5050,2249 5090,2256 5130,2262 5170,2267 5210,2271 5250,2274 5290,2275 5330,2274 5370,2272 5410,2267 5450,2262 5490,2256 5530,2249 5570,2243 5610,2237 5650,2232 5690,2228 5730,2226 5770,2225 5810,2226" fill="none" />
    <polyline points="650,2752 690,2746 730,2739 770,2734 810,2729 850,2726 890,2725 930,2726 970,2728 1010,2732 1050,2737 1090,2743 1130,2749 1170,2756 1210,2762 1250,2767 1290,2771 1330,2774 1370,2775 1410,2774 1450,2772 1490,2767 1530,2762 1570,2756 1610,2749 1650,2743 1690,2737 1730,2732 1770,2728 1810,2726 1850,2725 1890,2726 1930,2729 1970,2734 2010,2739 2050,2745 2090,2752 2130,2759 2170,2764 2210,2769 2250,2773 2290,2775 2330,2775 2370,2773 2410,2770 2450,2765 2490,2760 2530,2753 2570,2746 2610,2740 2650,2734 2690,2730 2730,2727 2770,2725 2810,2725 2850,2727 2890,2731 2930,2736 2970,2742 3010,2748 3050,2755 3090,2761 3130,2767 3170,2771 3210,2774 3250,2775 3290,2774 3330,2772 3370,2768 3410,2763 3450,2757 3490,2750 3530,2744 3570,2737 3610,2732 3650,2728 3690,2726 3730,2725 3770,2726 3810,2729 3850,2733 3890,2738 3930,2745 3970,2751 4010,2758 4050,2764 4090,2769 4130,2772 4170,2775 4210,2775 4250,2774 4290,2770 4330,2766 4370,2760 4410,2754 4450,2747 4490,2741 4530,2735 4570,2730 4610,2727 4650,2725 4690,2725 4730,2727 4770,2730 4810,2735 4850,2741 4890,2748 4930,2754 4970,2761 5010,2766 5050,2771 5090,2774 5130,2775 5170,2775 5210,2772 5250,2769 5290,2764 5330,2758 5370,2751 5410,2744 5450,2738 5490,2733 5530,2729 5570,2726 5610,2725 5650,2726 5690,2728 5730,2732 5770,2738 5810,2744" fill="none" />
    <polyline points="650,3230 690,3227 730,3225 770,3225 810,3227 850,3230 890,3235 930,3241 970,3248 1010,3254 1050,3261 1090,3266 1130,3271 1170,3274 1210,3275 1250,3275 1290,3272 1330,3269 1370,3264 1410,3258 1450,3251 1490,3244 1530,3238 1570,3233 1610,3229 1650,3226 1690,3225 1730,3226 1770,3228 1810,3232 1850,3238 1890,3244 1930,3250 1970,3257 2010,3263 2050,3268 2090,3272 2130,3274 2170,3275 2210,3274 2250,3271 2290,3267 2330,3261 2370,3255 2410,3248 2450,3242 2490,3236 2530,3231 2570,3227 2610,3225 2650,3225 2690,3227 2730,3230 2770,3235 2810,3240 2850,3247 2890,3253 2930,3260 2970,3265 3010,3270 3050,3273 3090,3275 3130,3275 3170,3273 3210,3269 3250,3264 3290,3258 3330,3252 3370,3245 3410,3239 3450,3233 3490,3229 3530,3226 3570,3225 3610,3226 3650,3228 3690,3232 3730,3237 3770,3243 3810,3250 3850,3256 3890,3262 3930,3268 3970,3272 4010,3274 4050,3275 4090,3274 4130,3271 4170,3267 4210,3262 4250,3256 4290,3249 4330,3242 4370,3236 4410,3231 4450,3228 4490,3225 4530,3225 4570,3226 4610,3229 4650,3234 4690,3240 4730,3246 4770,3253 4810,3259 4850,3265 4890,3270 4930,3273 4970,3275 5010,3275 5050,3273 5090,3270 5130,3265 5170,3259 5210,3253 5250,3246 5290,3240 5330,3234 5370,3230 5410,3226 5450,3225 5490,3225 5530,3228 5570,3231 5610,3236 5650,3242 5690,3249 5730,3255 5770,3262 5810,3267" fill="none" />
  </g>
  <polyline points="700,1763 740,1757 780,1751 820,1744 860,1738 900,1732 940,1727 980,1722 1020,1718 1060,1714 1100,1712 1140,1710 1180,1710 1220,1711 1260,1712 1300,1715 1340,1718 1380,1722 1420,1727 1460,1733 1500,1739 1540,1745 1580,1751 1620,1758 1660,1764 1700,1770 1740,1775 1780,1780 1820,1784 1860,1787 1900,1789 1940,1790 1980,1790 2020,1789 2060,1787 2100,1784 2140,1780 2180,1776 2220,1771 2260,1765 2300,1759 2340,1753 2380,1746 2420,1740 2460,1734 2500,1728 2540,1723 2580,1719 2620,1715 2660,1713 2700,1711 2740,1710 2780,1710 2820,1712 2860,1714 2900,1717 2940,1721 2980,1726 3020,1731 3060,1737 3100,1743 3140,1750 3180,1756 3220,1762 3260,1768 3300,1774 3340,1779 3380,1783 3420,1786 3460,1788 3500,1790 3540,1790 3580,1789 3620,1788 3660,1785 3700,1782 3740,1777 3780,1772 3820,1767 3860,1761 3900,1754 3940,1748 3980,1742 4020,1735 4060,1730 4100,1724 4140,1720 4180,1716 4220,1713 4260,1711 4300,1710 4340,1710 4380,1711 4420,1713 4460,1716 4500,1720 4540,1725 4580,1730 4620,1736 4660,1742 4700,1748 4740,1754 4780,1761 4820,1767 4860,1772 4900,1777 4940,1782 4980,1785 5020,1788 5060,1789 5100,1790 5140,1790 5180,1788 5220,1786 5260,1783 5300,1778 5340,1774 5380,1768" fill="none" stroke="#2a1530" stroke-width="400" stroke-linecap="round" />
  <rect x="500" y="500" width="900" height="700" fill="#2a1530" stroke="#0e050f" stroke-width="3" />
  <text x="950" y="850" fill="#d088cc" font-size="14" font-weight="bold" text-anchor="middle" dominant-baseline="central" font-family="monospace">LD1: Enginarium</text>
  <circle cx="750" cy="800" r="12" fill="#cc6600" stroke="#ffaa00" stroke-width="2" />
  <circle cx="750" cy="800" r="6" fill="#ff8800" stroke="none" opacity="0.6" />
  <text x="750" y="828" fill="#d088cc" font-size="10" text-anchor="middle" font-family="monospace" opacity="0.7">Reactor</text>
  <circle cx="1100" cy="800" r="12" fill="#cc6600" stroke="#ffaa00" stroke-width="2" />
  <circle cx="1100" cy="800" r="6" fill="#ff8800" stroke="none" opacity="0.6" />
  <text x="1100" y="828" fill="#d088cc" font-size="10" text-anchor="middle" font-family="monospace" opacity="0.7">Reactor</text>
  <rect x="850" y="1200" width="200" height="350" fill="#2a1530" stroke="#0e050f" stroke-width="2" />
  <rect x="940" y="1196" width="20" height="8" fill="#8b7355" stroke="#c0b090" stroke-width="1" />
  <rect x="1600" y="500" width="800" height="700" fill="#cc44aa" stroke="#0e050f" stroke-width="4" />
  <rect x="1604" y="504" width="792" height="692" fill="none" stroke="#d088cc" stroke-width="1" stroke-dasharray="8,4" opacity="0.5" />
  <text x="2000" y="842" fill="#d088cc" font-size="14" font-weight="bold" text-anchor="middle" dominant-baseline="central" font-family="monospace">LD2: Warp Drive</text>
  <text x="2000" y="860" fill="#d088cc" font-size="12" text-anchor="middle" dominant-baseline="central" font-family="monospace">BOSS ROOM</text>
  <polygon points="2000.0,832.0 2003.4,841.7 2012.7,837.3 2008.3,846.6 2018.0,850.0 2008.3,853.4 2012.7,862.7 2003.4,858.3 2000.0,868.0 1996.6,858.3 1987.3,862.7 1991.7,853.4 1982.0,850.0 1991.7,846.6 1987.3,837.3 1996.6,841.7" fill="#cc44aa" stroke="#ff88dd" stroke-width="1" opacity="0.8" />
  <text x="2000" y="878" fill="#d088cc" font-size="10" text-anchor="middle" font-family="monospace" opacity="0.7">Warp Core</text>
  <rect x="1900" y="1200" width="200" height="350" fill="#2a1530" stroke="#0e050f" stroke-width="2" />
  <circle cx="2000" cy="1200" r="8" fill="#cc3333" stroke="#ffcc00" stroke-width="2" />
  <rect x="2600" y="600" width="600" height="600" fill="#2a1530" stroke="#0e050f" stroke-width="3" />
  <text x="2900" y="892" fill="#d088cc" font-size="14" font-weight="bold" text-anchor="middle" dominant-baseline="central" font-family="monospace">LD3: Altar</text>
  <text x="2900" y="910" fill="#d088cc" font-size="12" text-anchor="middle" dominant-baseline="central" font-family="monospace">Chamber</text>
  <circle cx="2900" cy="900" r="15" fill="#cc44aa" stroke="#d088cc" stroke-width="2" opacity="0.8" />
  <text x="2900" y="928" fill="#d088cc" font-size="10" text-anchor="middle" font-family="monospace" opacity="0.7">Dark Altar</text>
  <rect x="2800" y="1200" width="200" height="350" fill="#2a1530" stroke="#0e050f" stroke-width="2" />
  <polygon points="2900,1190 2892,1206 2908,1206" fill="#ff6600" stroke="#ffcc00" stroke-width="2" />
  <rect x="3300" y="800" width="400" height="400" fill="#2a1530" stroke="#0e050f" stroke-width="3" />
  <text x="3500" y="1000" fill="#d088cc" font-size="14" font-weight="bold" text-anchor="middle" dominant-baseline="central" font-family="monospace">Fuel Storage</text>
  <rect x="3490" y="990" width="20" height="20" fill="#cc44aa" stroke="#d088cc" stroke-width="2" opacity="0.7" />
  <rect x="3400" y="1200" width="200" height="350" fill="#2a1530" stroke="#0e050f" stroke-width="2" />
  <rect x="3490" y="1196" width="20" height="8" fill="#8b7355" stroke="#c0b090" stroke-width="1" />
  <rect x="3800" y="800" width="400" height="400" fill="#2a1530" stroke="#0e050f" stroke-width="3" />
  <text x="4000" y="992" fill="#d088cc" font-size="14" font-weight="bold" text-anchor="middle" dominant-baseline="central" font-family="monospace">Munitions</text>
  <text x="4000" y="1010" fill="#d088cc" font-size="12" text-anchor="middle" dominant-baseline="central" font-family="monospace">Magazine</text>
  <rect x="3990" y="990" width="20" height="20" fill="#cc44aa" stroke="#d088cc" stroke-width="2" opacity="0.7" />
  <rect x="3900" y="1200" width="200" height="350" fill="#2a1530" stroke="#0e050f" stroke-width="2" />
  <circle cx="4000" cy="1200" r="8" fill="#cc3333" stroke="#ffcc00" stroke-width="2" />
  <rect x="4300" y="900" width="300" height="400" fill="#2a1530" stroke="#0e050f" stroke-width="3" />
  <text x="4450" y="1092" fill="#d088cc" font-size="14" font-weight="bold" text-anchor="middle" dominant-baseline="central" font-family="monospace">Sealed</text>
  <text x="4450" y="1110" fill="#d088cc" font-size="12" text-anchor="middle" dominant-baseline="central" font-family="monospace">Containment</text>
  <rect x="4350" y="1300" width="200" height="250" fill="#2a1530" stroke="#0e050f" stroke-width="2" />
  <circle cx="4450" cy="1300" r="8" fill="#cc3333" stroke="#ffcc00" stroke-width="2" />
  <rect x="600" y="1950" width="600" height="400" fill="#2a1530" stroke="#0e050f" stroke-width="3" />
  <text x="900" y="2150" fill="#d088cc" font-size="14" font-weight="bold" text-anchor="middle" dominant-baseline="central" font-family="monospace">LD4: Cell Block</text>
  <rect x="890" y="1946" width="20" height="8" fill="#8b7355" stroke="#c0b090" stroke-width="1" />
  <rect x="1300" y="1950" width="400" height="400" fill="#2a1530" stroke="#0e050f" stroke-width="3" />
  <text x="1500" y="2142" fill="#d088cc" font-size="14" font-weight="bold" text-anchor="middle" dominant-baseline="central" font-family="monospace">LD5: Ritual</text>
  <text x="1500" y="2160" fill="#d088cc" font-size="12" text-anchor="middle" dominant-baseline="central" font-family="monospace">Store</text>
  <rect x="1490" y="2140" width="20" height="20" fill="#cc44aa" stroke="#d088cc" stroke-width="2" opacity="0.7" />
  <rect x="1490" y="1946" width="20" height="8" fill="#8b7355" stroke="#c0b090" stroke-width="1" />
  <rect x="1800" y="1950" width="400" height="400" fill="#2a1530" stroke="#0e050f" stroke-width="3" />
  <text x="2000" y="2142" fill="#d088cc" font-size="14" font-weight="bold" text-anchor="middle" dominant-baseline="central" font-family="monospace">LD6: Maintenance</text>
  <text x="2000" y="2160" fill="#d088cc" font-size="12" text-anchor="middle" dominant-baseline="central" font-family="monospace">Crawlway</text>
  <rect x="1990" y="1946" width="20" height="8" fill="#8b7355" stroke="#c0b090" stroke-width="1" />
  <rect x="2300" y="1950" width="400" height="400" fill="#2a1530" stroke="#0e050f" stroke-width="3" />
  <text x="2500" y="2142" fill="#d088cc" font-size="14" font-weight="bold" text-anchor="middle" dominant-baseline="central" font-family="monospace">Corrupted</text>
  <text x="2500" y="2160" fill="#d088cc" font-size="12" text-anchor="middle" dominant-baseline="central" font-family="monospace">Shrine</text>
  <polygon points="2500.0,2132.0 2503.4,2141.7 2512.7,2137.3 2508.3,2146.6 2518.0,2150.0 2508.3,2153.4 2512.7,2162.7 2503.4,2158.3 2500.0,2168.0 2496.6,2158.3 2487.3,2162.7 2491.7,2153.4 2482.0,2150.0 2491.7,2146.6 2487.3,2137.3 2496.6,2141.7" fill="#cc44aa" stroke="#ff88dd" stroke-width="1" opacity="0.8" />
  <rect x="2488" y="1945" width="24" height="10" fill="#555544" stroke="#887766" stroke-width="1" />
  <line x1="2492" y1="1946" x2="2508" y2="1954" stroke="#aa8866" stroke-width="2" />
  <line x1="2508" y1="1946" x2="2492" y2="1954" stroke="#aa8866" stroke-width="2" />
  <rect x="2800" y="1950" width="400" height="400" fill="#2a1530" stroke="#0e050f" stroke-width="3" />
  <text x="3000" y="2150" fill="#d088cc" font-size="14" font-weight="bold" text-anchor="middle" dominant-baseline="central" font-family="monospace">Mutant Nest</text>
  <rect x="2988" y="1945" width="24" height="10" fill="#555544" stroke="#887766" stroke-width="1" />
  <line x1="2992" y1="1946" x2="3008" y2="1954" stroke="#aa8866" stroke-width="2" />
  <line x1="3008" y1="1946" x2="2992" y2="1954" stroke="#aa8866" stroke-width="2" />
  <rect x="3300" y="1950" width="300" height="300" fill="#2a1530" stroke="#0e050f" stroke-width="3" />
  <text x="3450" y="2092" fill="#d088cc" font-size="14" font-weight="bold" text-anchor="middle" dominant-baseline="central" font-family="monospace">Collapsed</text>
  <text x="3450" y="2110" fill="#d088cc" font-size="12" text-anchor="middle" dominant-baseline="central" font-family="monospace">Crawlway</text>
  <rect x="3438" y="1945" width="24" height="10" fill="#555544" stroke="#887766" stroke-width="1" />
  <line x1="3442" y1="1946" x2="3458" y2="1954" stroke="#aa8866" stroke-width="2" />
  <line x1="3458" y1="1946" x2="3442" y2="1954" stroke="#aa8866" stroke-width="2" />
  <rect x="3700" y="1950" width="300" height="300" fill="#2a1530" stroke="#0e050f" stroke-width="3" />
  <text x="3850" y="2092" fill="#d088cc" font-size="14" font-weight="bold" text-anchor="middle" dominant-baseline="central" font-family="monospace">Servo-Skull</text>
  <text x="3850" y="2110" fill="#d088cc" font-size="12" text-anchor="middle" dominant-baseline="central" font-family="monospace">Bay</text>
  <rect x="3838" y="1945" width="24" height="10" fill="#555544" stroke="#887766" stroke-width="1" />
  <line x1="3842" y1="1946" x2="3858" y2="1954" stroke="#aa8866" stroke-width="2" />
  <line x1="3858" y1="1946" x2="3842" y2="1954" stroke="#aa8866" stroke-width="2" />
  <rect x="4100" y="1950" width="300" height="300" fill="#2a1530" stroke="#0e050f" stroke-width="3" />
  <text x="4250" y="2100" fill="#d088cc" font-size="14" font-weight="bold" text-anchor="middle" dominant-baseline="central" font-family="monospace">Bone Niche</text>
  <rect x="4238" y="1945" width="24" height="10" fill="#555544" stroke="#887766" stroke-width="1" />
  <line x1="4242" y1="1946" x2="4258" y2="1954" stroke="#aa8866" stroke-width="2" />
  <line x1="4258" y1="1946" x2="4242" y2="1954" stroke="#aa8866" stroke-width="2" />
  <rect x="600" y="2600" width="1200" height="300" fill="#2a1530" stroke="#0e050f" stroke-width="3" />
  <text x="1200" y="2750" fill="#d088cc" font-size="14" font-weight="bold" text-anchor="middle" dominant-baseline="central" font-family="monospace">LD7: Bilge</text>
  <rect x="620" y="2620" width="1160" height="260" fill="#1a3a5a" stroke="none" opacity="0.3" />
  <g opacity="0.1" stroke="#4488bb" stroke-width="1">
    <polyline points="620,2625 650,2620 680,2616 710,2613 740,2612 770,2614 800,2619 830,2623 860,2627 890,2628 920,2626 950,2623 980,2618 1010,2614 1040,2612 1070,2613 1100,2616 1130,2621 1160,2625 1190,2628 1220,2627 1250,2625 1280,2620 1310,2616 1340,2613 1370,2612 1400,2615 1430,2619 1460,2623 1490,2627 1520,2628 1550,2626 1580,2622 1610,2618 1640,2614 1670,2612 1700,2613 1730,2617 1760,2621" fill="none" />
    <polyline points="620,2674 650,2672 680,2673 710,2676 740,2681 770,2685 800,2688 830,2688 860,2685 890,2680 920,2676 950,2673 980,2672 1010,2674 1040,2679 1070,2683 1100,2687 1130,2688 1160,2686 1190,2682 1220,2678 1250,2674 1280,2672 1310,2673 1340,2677 1370,2681 1400,2685 1430,2688 1460,2687 1490,2684 1520,2680 1550,2675 1580,2673 1610,2672 1640,2675 1670,2679 1700,2684 1730,2687 1760,2688" fill="none" />
    <polyline points="620,2734 650,2739 680,2743 710,2747 740,2748 770,2746 800,2743 830,2738 860,2734 890,2732 920,2733 950,2736 980,2741 1010,2745 1040,2748 1070,2747 1100,2745 1130,2740 1160,2736 1190,2733 1220,2732 1250,2735 1280,2739 1310,2743 1340,2747 1370,2748 1400,2746 1430,2742 1460,2738 1490,2734 1520,2732 1550,2733 1580,2737 1610,2741 1640,2746 1670,2748 1700,2747 1730,2744 1760,2740" fill="none" />
    <polyline points="620,2805 650,2808 680,2808 710,2805 740,2800 770,2796 800,2793 830,2792 860,2794 890,2799 920,2803 950,2807 980,2808 1010,2806 1040,2802 1070,2798 1100,2794 1130,2792 1160,2793 1190,2797 1220,2801 1250,2805 1280,2808 1310,2807 1340,2804 1370,2800 1400,2795 1430,2793 1460,2792 1490,2795 1520,2799 1550,2804 1580,2807 1610,2808 1640,2806 1670,2802 1700,2797 1730,2794 1760,2792" fill="none" />
    <polyline points="620,2866 650,2863 680,2858 710,2854 740,2852 770,2853 800,2856 830,2861 860,2865 890,2868 920,2867 950,2865 980,2860 1010,2856 1040,2853 1070,2852 1100,2855 1130,2859 1160,2863 1190,2867 1220,2868 1250,2866 1280,2862 1310,2858 1340,2854 1370,2852 1400,2853 1430,2857 1460,2861 1490,2866 1520,2868 1550,2867 1580,2864 1610,2860 1640,2855 1670,2852 1700,2852 1730,2855 1760,2859" fill="none" />
  </g>
  <rect x="1900" y="2600" width="400" height="300" fill="#2a1530" stroke="#0e050f" stroke-width="3" />
  <text x="2100" y="2742" fill="#d088cc" font-size="14" font-weight="bold" text-anchor="middle" dominant-baseline="central" font-family="monospace">Flooded</text>
  <text x="2100" y="2760" fill="#d088cc" font-size="12" text-anchor="middle" dominant-baseline="central" font-family="monospace">Crawlway</text>
  <rect x="1920" y="2620" width="360" height="260" fill="#1a3a5a" stroke="none" opacity="0.2" />
  <g opacity="0.1" stroke="#4488bb" stroke-width="1">
    <polyline points="1920,2618 1950,2614 1980,2612 2010,2613 2040,2616 2070,2621 2100,2625 2130,2628 2160,2628 2190,2625 2220,2620 2250,2616" fill="none" />
    <polyline points="1920,2672 1950,2674 1980,2678 2010,2683 2040,2687 2070,2688 2100,2687 2130,2683 2160,2678 2190,2674 2220,2672 2250,2673" fill="none" />
    <polyline points="1920,2741 1950,2745 1980,2748 2010,2748 2040,2745 2070,2740 2100,2736 2130,2733 2160,2732 2190,2734 2220,2738 2250,2743" fill="none" />
    <polyline points="1920,2808 1950,2807 1980,2803 2010,2798 2040,2794 2070,2792 2100,2793 2130,2796 2160,2801 2190,2805 2220,2808 2250,2808" fill="none" />
    <polyline points="1920,2860 1950,2856 1980,2853 2010,2852 2040,2854 2070,2858 2100,2863 2130,2867 2160,2868 2190,2866 2220,2863 2250,2858" fill="none" />
  </g>
  <rect x="1895" y="2738" width="10" height="24" fill="#555544" stroke="#887766" stroke-width="1" />
  <line x1="1896" y1="2742" x2="1904" y2="2758" stroke="#aa8866" stroke-width="2" />
  <line x1="1904" y1="2742" x2="1896" y2="2758" stroke="#aa8866" stroke-width="2" />
  <rect x="5050" y="1500" width="300" height="500" fill="#2a1530" stroke="#0e050f" stroke-width="3" />
  <text x="5200" y="1750" fill="#d088cc" font-size="14" font-weight="bold" text-anchor="middle" dominant-baseline="central" font-family="monospace">LD8: Stairs</text>
  <rect x="5185" y="1735" width="30" height="30" fill="none" stroke="#d088cc" stroke-width="1" />
  <polygon points="5200,1740 5192,1755 5208,1755" fill="#d088cc" opacity="0.6" />
  <text x="5200" y="1778" fill="#d088cc" font-size="9" text-anchor="middle" font-family="monospace" opacity="0.6">Stairs Up</text>
  <text x="5980" y="3485" fill="#ffffff" font-size="20" text-anchor="end" font-family="monospace" opacity="0.15">Vessel Lower Deck</text>
</svg>