<?xml version='1.0' encoding='utf-8'?>
<svg xmlns="http://www.w3.org/2000/svg" xmlns:xlink="http://www.w3.org/1999/xlink" viewBox="0 0 6000 3500" width="6000" height="3500">
  <defs>
    <radialGradient id="bgGrad" cx="50%" cy="50%" r="70%">
      <stop offset="0%" stop-color="#323439" />
      <stop offset="100%" stop-color="#14161b" />
    </radialGradient>
  </defs>
  <rect x="0" y="0" width="6000" height="3500" fill="url(#bgGrad)" />
  <g opacity="0.05" stroke="#ffffff" stroke-width="1">
    <line x1="0" y1="0" x2="0" y2="3500" />
    <line x1="100" y1="0" x2="100" y2="3500" />
    <line x1="200" y1="0" x2="200" y2="3500" />
    <line x1="300" y1="0" x2="300" y2="3500" />
    <line x1="400" y1="0" x2="400" y2="3500" />
    <line x1="500" y1="0" x2="500" y2="3500" />
    <line x1="600" y1="0" x2="600" y2="3500" />
    <line x1="700" y1="0" x2="700" y2="3500" />
    <line x1="800" y1="0" x2="800" y2="3500" />
    <line x1="900" y1="0" x2="900" y2="3500" />
    <line x1="1000" y1="0" x2="1000" y2="3500" />
    <line x1="1100" y1="0" x2="1100" y2="3500" />
    <line x1="1200" y1="0" x2="1200" y2="3500" />
    <line x1="1300" y1="0" x2="1300" y2="3500" />
    <line x1="1400" y1="0" x2="1400" y2="3500" />
    <line x1="1500" y1="0" x2="1500" y2="3500" />
    <line x1="1600" y1="0" x2="1600" y2="3500" />
    <line x1="1700" y1="0" x2="1700" y2="3500" />
    <line x1="1800" y1="0" x2="1800" y2="3500" />
    <line x1="1900" y1="0" x2="1900" y2="3500" />
    <line x1="2000" y1="0" x2="2000" y2="3500" />
    <line x1="2100" y1="0" x2="2100" y2="3500" />
    <line x1="2200" y1="0" x2="2200" y2="3500" />
    <line x1="2300" y1="0" x2="2300" y2="3500" />
    <line x1="2400" y1="0" x2="2400" y2="3500" />
    <line x1="2500" y1="0" x2="2500" y2="3500" />
    <line x1="2600" y1="0" x2="2600" y2="3500" />
    <line x1="2700" y1="0" x2="2700" y2="3500" />
    <line x1="2800" y1="0" x2="2800" y2="3500" />
    <line x1="2900" y1="0" x2="2900" y2="3500" />
    <line x1="3000" y1="0" x2="3000" y2="3500" />
    <line x1="3100" y1="0" x2="3100" y2="3500" />
    <line x1="3200" y1="0" x2="3200" y2="3500" />
    <line x1="3300" y1="0" x2="3300" y2="3500" />
    <line x1="3400" y1="0" x2="3400" y2="3500" />
    <line x1="3500" y1="0" x2="3500" y2="3500" />
    <line x1="3600" y1="0" x2="3600" y2="3500" />
    <line x1="3700" y1="0" x2="3700" y2="3500" />
    <line x1="3800" y1="0" x2="3800" y2="3500" />
    <line x1="3900" y1="0" x2="3900" y2="3500" />
    <line x1="4000" y1="0" x2="4000" y2="3500" />
    <line x1="4100" y1="0" x2="4100" y2="3500" />
    <line x1="4200" y1="0" x2="4200" y2="3500" />
    <line x1="4300" y1="0" x2="4300" y2="3500" />
    <line x1="4400" y1="0" x2="4400" y2="3500" />
    <line x1="4500" y1="0" x2="4500" y2="3500" />
    <line x1="4600" y1="0" x2="4600" y2="3500" />
    <line x1="4700" y1="0" x2="4700" y2="3500" />
    <line x1="4800" y1="0" x2="4800" y2="3500" />
    <line x1="4900" y1="0" x2="4900" y2="3500" />
    <line x1="5000" y1="0" x2="5000" y2="3500" />
    <line x1="5100" y1="0" x2="5100" y2="3500" />
    <line x1="5200" y1="0" x2="5200" y2="3500" />
    <line x1="5300" y1="0" x2="5300" y2="3500" />
    <line x1="5400" y1="0" x2="5400" y2="3500" />
    <line x1="5500" y1="0" x2="5500" y2="3500" />
    <line x1="5600" y1="0" x2="5600" y2="3500" />
    <line x1="5700" y1="0" x2="5700" y2="3500" />
    <line x1="5800" y1="0" x2="5800" y2="3500" />
    <line x1="5900" y1="0" x2="5900" y2="3500" />
    <line x1="6000" y1="0" x2="6000" y2="3500" />
    <line x1="0" y1="0" x2="6000" y2="0" />
    <line x1="0" y1="100" x2="6000" y2="100" />
    <line x1="0" y1="200" x2="6000" y2="200" />
    <line x1="0" y1="300" x2="6000" y2="300" />
    <line x1="0" y1="400" x2="6000" y2="400" />
    <line x1="0" y1="500" x2="6000" y2="500" />
    <line x1="0" y1="600" x2="6000" y2="600" />
    <line x1="0" y1="700" x2="6000" y2="700" />
    <line x1="0" y1="800" x2="6000" y2="800" />
    <line x1="0" y1="900" x2="6000" y2="900" />
    <line x1="0" y1="1000" x2="6000" y2="1000" />
    <line x1="0" y1="1100" x2="6000" y2="1100" />
    <line x1="0" y1="1200" x2="6000" y2="1200" />
    <line x1="0" y1="1300" x2="6000" y2="1300" />
    <line x1="0" y1="1400" x2="6000" y2="1400" />
    <line x1="0" y1="1500" x2="6000" y2="1500" />
    <line x1="0" y1="1600" x2="6000" y2="1600" />
    <line x1="0" y1="1700" x2="6000" y2="1700" />
    <line x1="0" y1="1800" x2="6000" y2="1800" />
    <line x1="0" y1="1900" x2="6000" y2="1900" />
    <line x1="0" y1="2000" x2="6000" y2="2000" />
    <line x1="0" y1="2100" x2="6000" y2="2100" />
    <line x1="0" y1="2200" x2="6000" y2="2200" />
    <line x1="0" y1="2300" x2="6000" y2="2300" />
    <line x1="0" y1="2400" x2="6000" y2="2400" />
    <line x1="0" y1="2500" x2="6000" y2="2500" />
    <line x1="0" y1="2600" x2="6000" y2="2600" />
    <line x1="0" y1="2700" x2="6000" y2="2700" />
    <line x1="0" y1="2800" x2="6000" y2="2800" />
    <line x1="0" y1="2900" x2="6000" y2="2900" />
    <line x1="0" y1="3000" x2="6000" y2="3000" />
    <line x1="0" y1="3100" x2="6000" y2="3100" />
    <line x1="0" y1="3200" x2="6000" y2="3200" />
    <line x1="0" y1="3300" x2="6000" y2="3300" />
    <line x1="0" y1="3400" x2="6000" y2="3400" />
    <line x1="0" y1="3500" x2="6000" y2="3500" />
  </g>
  <polygon points="650,150 5850,150 5850,3350 650,3350 150,1750" fill="#1e2025" stroke="#15171a" stroke-width="6" id="hull-outline" />
  <rect x="700" y="1550" width="4700" height="400" fill="#2d3035" stroke="#15171a" stroke-width="2" />
  <rect x="500" y="600" width="800" height="600" fill="#2d3035" stroke="#15171a" stroke-width="3" />
  <text x="900" y="892" fill="#a0a8b0" font-size="14" font-weight="bold" text-anchor="middle" dominant-baseline="central" font-family="monospace">MD1: Crew</text>
  <text x="900" y="910" fill="#a0a8b0" font-size="12" text-anchor="middle" dominant-baseline="central" font-family="monospace">Quarters</text>
  <rect x="800" y="1200" width="200" height="350" fill="#2d3035" stroke="#15171a" stroke-width="2" />
  <rect x="890" y="1196" width="20" height="8" fill="#8b7355" stroke="#c0b090" stroke-width="1" />
  <rect x="1400" y="700" width="600" height="600" fill="#2d3035" stroke="#15171a" stroke-width="3" />
  <text x="1700" y="1000" fill="#a0a8b0" font-size="14" font-weight="bold" text-anchor="middle" dominant-baseline="central" font-family="monospace">MD2: Mess Hall</text>
  <rect x="1535" y="935" width="30" height="30" fill="#c8a832" stroke="#a0a8b0" stroke-width="2" opacity="0.7" />
  <rect x="1735" y="935" width="30" height="30" fill="#c8a832" stroke="#a0a8b0" stroke-width="2" opacity="0.7" />
  <rect x="1535" y="1085" width="30" height="30" fill="#c8a832" stroke="#a0a8b0" stroke-width="2" opacity="0.7" />
  <rect x="1735" y="1085" width="30" height="30" fill="#c8a832" stroke="#a0a8b0" stroke-width="2" opacity="0.7" />
  <rect x="1600" y="1300" width="200" height="250" fill="#2d3035" stroke="#15171a" stroke-width="2" />
  <rect x="1690" y="1296" width="20" height="8" fill="#8b7355" stroke="#c0b090" stroke-width="1" />
  <rect x="2100" y="850" width="400" height="400" fill="#2d3035" stroke="#15171a" stroke-width="3" />
  <text x="2300" y="1050" fill="#a0a8b0" font-size="14" font-weight="bold" text-anchor="middle" dominant-baseline="central" font-family="monospace">Ship's Galley</text>
  <rect x="2285" y="1035" width="30" height="30" fill="#c8a832" stroke="#a0a8b0" stroke-width="2" opacity="0.7" />
  <rect x="2200" y="1250" width="200" height="300" fill="#2d3035" stroke="#15171a" stroke-width="2" />
  <rect x="2290" y="1246" width="20" height="8" fill="#8b7355" stroke="#c0b090" stroke-width="1" />
  <rect x="2600" y="700" width="500" height="600" fill="#2d3035" stroke="#15171a" stroke-width="3" />
  <text x="2850" y="1000" fill="#a0a8b0" font-size="14" font-weight="bold" text-anchor="middle" dominant-baseline="central" font-family="monospace">MD3: Chapel</text>
  <circle cx="2850" cy="850" r="15" fill="#c8a832" stroke="#a0a8b0" stroke-width="2" opacity="0.8" />
  <text x="2850" y="878" fill="#a0a8b0" font-size="10" text-anchor="middle" font-family="monospace" opacity="0.7">Altar</text>
  <rect x="2750" y="1300" width="200" height="250" fill="#2d3035" stroke="#15171a" stroke-width="2" />
  <rect x="2840" y="1296" width="20" height="8" fill="#8b7355" stroke="#c0b090" stroke-width="1" />
  <rect x="3200" y="600" width="900" height="700" fill="#2d3035" stroke="#15171a" stroke-width="3" />
  <text x="3650" y="950" fill="#a0a8b0" font-size="14" font-weight="bold" text-anchor="middle" dominant-baseline="central" font-family="monospace">MD4: Cargo Bay</text>
  <rect x="3390" y="790" width="20" height="20" fill="#c8a832" stroke="#a0a8b0" stroke-width="2" opacity="0.7" />
  <rect x="3590" y="790" width="20" height="20" fill="#c8a832" stroke="#a0a8b0" stroke-width="2" opacity="0.7" />
  <rect x="3790" y="790" width="20" height="20" fill="#c8a832" stroke="#a0a8b0" stroke-width="2" opacity="0.7" />
  <rect x="3390" y="990" width="20" height="20" fill="#c8a832" stroke="#a0a8b0" stroke-width="2" opacity="0.7" />
  <rect x="3590" y="990" width="20" height="20" fill="#c8a832" stroke="#a0a8b0" stroke-width="2" opacity="0.7" />
  <rect x="3550" y="1300" width="200" height="250" fill="#2d3035" stroke="#15171a" stroke-width="2" />
  <rect x="3640" y="1296" width="20" height="8" fill="#8b7355" stroke="#c0b090" stroke-width="1" />
  <rect x="4200" y="900" width="300" height="400" fill="#2d3035" stroke="#15171a" stroke-width="3" />
  <text x="4350" y="1100" fill="#a0a8b0" font-size="14" font-weight="bold" text-anchor="middle" dominant-baseline="central" font-family="monospace">Vox Relay</text>
  <rect x="4250" y="1300" width="200" height="250" fill="#2d3035" stroke="#15171a" stroke-width="2" />
  <rect x="4340" y="1296" width="20" height="8" fill="#8b7355" stroke="#c0b090" stroke-width="1" />
  <rect x="4600" y="900" width="300" height="400" fill="#2d3035" stroke="#15171a" stroke-width="3" />
  <text x="4750" y="1092" fill="#a0a8b0" font-size="14" font-weight="bold" text-anchor="middle" dominant-baseline="central" font-family="monospace">Water</text>
  <text x="4750" y="1110" fill="#a0a8b0" font-size="12" text-anchor="middle" dominant-baseline="central" font-family="monospace">Reclamation</text>
  <rect x="4650" y="1300" width="200" height="250" fill="#2d3035" stroke="#15171a" stroke-width="2" />
  <rect x="4740" y="1296" width="20" height="8" fill="#8b7355" stroke="#c0b090" stroke-width="1" />
  <rect x="600" y="1950" width="400" height="400" fill="#2d3035" stroke="#15171a" stroke-width="3" />
  <text x="800" y="2150" fill="#a0a8b0" font-size="14" font-weight="bold" text-anchor="middle" dominant-baseline="central" font-family="monospace">Commissary</text>
  <rect x="790" y="2140" width="20" height="20" fill="#c8a832" stroke="#a0a8b0" stroke-width="2" opacity="0.7" />
  <rect x="790" y="1946" width="20" height="8" fill="#8b7355" stroke="#c0b090" stroke-width="1" />
  <rect x="1100" y="1950" width="400" height="400" fill="#2d3035" stroke="#15171a" stroke-width="3" />
  <text x="1300" y="2142" fill="#a0a8b0" font-size="14" font-weight="bold" text-anchor="middle" dominant-baseline="central" font-family="monospace">MD5: Prep</text>
  <text x="1300" y="2160" fill="#a0a8b0" font-size="12" text-anchor="middle" dominant-baseline="central" font-family="monospace">Chamber</text>
  <rect x="1290" y="1946" width="20" height="8" fill="#8b7355" stroke="#c0b090" stroke-width="1" />
  <rect x="1600" y="1950" width="400" height="400" fill="#2d3035" stroke="#15171a" stroke-width="3" />
  <text x="1800" y="2142" fill="#a0a8b0" font-size="14" font-weight="bold" text-anchor="middle" dominant-baseline="central" font-family="monospace">MD6: Navigator</text>
  <text x="1800" y="2160" fill="#a0a8b0" font-size="12" text-anchor="middle" dominant-baseline="central" font-family="monospace">Cell</text>
  <polygon points="1800.0,2132.0 1803.4,2141.7 1812.7,2137.3 1808.3,2146.6 1818.0,2150.0 1808.3,2153.4 1812.7,2162.7 1803.4,2158.3 1800.0,2168.0 1796.6,2158.3 1787.3,2162.7 1791.7,2153.4 1782.0,2150.0 1791.7,2146.6 1787.3,2137.3 1796.6,2141.7" fill="#cc44aa" stroke="#ff88dd" stroke-width="1" opacity="0.8" />
  <circle cx="1800" cy="1950" r="8" fill="#cc3333" stroke="#ffcc00" stroke-width="2" />
  <rect x="2100" y="1950" width="400" height="400" fill="#2d3035" stroke="#15171a" stroke-width="3" />
  <text x="2300" y="2150" fill="#a0a8b0" font-size="14" font-weight="bold" text-anchor="middle" dominant-baseline="central" font-family="monospace">Brig</text>
  <circle cx="2300" cy="1950" r="8" fill="#cc3333" stroke="#ffcc00" stroke-width="2" />
  <rect x="2600" y="1950" width="400" height="400" fill="#2d3035" stroke="#15171a" stroke-width="3" />
  <text x="2800" y="2142" fill="#a0a8b0" font-size="14" font-weight="bold" text-anchor="middle" dominant-baseline="central" font-family="monospace">MD7: Power</text>
  <text x="2800" y="2160" fill="#a0a8b0" font-size="12" text-anchor="middle" dominant-baseline="central" font-family="monospace">Junction</text>
  <circle cx="2800" cy="2150" r="12" fill="#cc6600" stroke="#ffaa00" stroke-width="2" />
  <circle cx="2800" cy="2150" r="6" fill="#ff8800" stroke="none" opacity="0.6" />
  <rect x="2790" y="1946" width="20" height="8" fill="#8b7355" stroke="#c0b090" stroke-width="1" />
  <rect x="3100" y="1950" width="250" height="300" fill="#2d3035" stroke="#15171a" stroke-width="3" />
  <text x="3225" y="2092" fill="#a0a8b0" font-size="14" font-weight="bold" text-anchor="middle" dominant-baseline="central" font-family="monospace">Crew</text>
  <text x="3225" y="2110" fill="#a0a8b0" font-size="12" text-anchor="middle" dominant-baseline="central" font-family="monospace">Latrine</text>
  <rect x="3215" y="1946" width="20" height="8" fill="#8b7355" stroke="#c0b090" stroke-width="1" />
  <rect x="3450" y="1950" width="300" height="400" fill="#2d3035" stroke="#15171a" stroke-width="3" />
  <text x="3600" y="2142" fill="#a0a8b0" font-size="14" font-weight="bold" text-anchor="middle" dominant-baseline="central" font-family="monospace">Air</text>
  <text x="3600" y="2160" fill="#a0a8b0" font-size="12" text-anchor="middle" dominant-baseline="central" font-family="monospace">Processing</text>
  <rect x="3590" y="1946" width="20" height="8" fill="#8b7355" stroke="#c0b090" stroke-width="1" />
  <rect x="3850" y="1950" width="300" height="300" fill="#2d3035" stroke="#15171a" stroke-width="3" />
  <text x="4000" y="2100" fill="#a0a8b0" font-size="14" font-weight="bold" text-anchor="middle" dominant-baseline="central" font-family="monospace">Tool Storage</text>
  <rect x="3990" y="2090" width="20" height="20" fill="#c8a832" stroke="#a0a8b0" stroke-width="2" opacity="0.7" />
  <rect x="3990" y="1946" width="20" height="8" fill="#8b7355" stroke="#c0b090" stroke-width="1" />
  <rect x="4250" y="1950" width="400" height="400" fill="#2d3035" stroke="#15171a" stroke-width="3" />
  <text x="4450" y="2142" fill="#a0a8b0" font-size="14" font-weight="bold" text-anchor="middle" dominant-baseline="central" font-family="monospace">Recreation</text>
  <text x="4450" y="2160" fill="#a0a8b0" font-size="12" text-anchor="middle" dominant-baseline="central" font-family="monospace">Area</text>
  <rect x="4435" y="2135" width="30" height="30" fill="#c8a832" stroke="#a0a8b0" stroke-width="2" opacity="0.7" />
  <rect x="4440" y="1946" width="20" height="8" fill="#8b7355" stroke="#c0b090" stroke-width="1" />
  <rect x="5050" y="1500" width="300" height="500" fill="#2d3035" stroke="#15171a" stroke-width="3" />
  <text x="5200" y="1750" fill="#a0a8b0" font-size="14" font-weight="bold" text-anchor="middle" dominant-baseline="central" font-family="monospace">MD8: Stairs</text>
  <rect x="5185" y="1635" width="30" height="30" fill="none" stroke="#a0a8b0" stroke-width="1" />
  <polygon points="5200,1640 5192,1655 5208,1655" fill="#a0a8b0" opacity="0.6" />
  <text x="5200" y="1678" fill="#a0a8b0" font-size="9" text-anchor="middle" font-family="monospace" opacity="0.6">Stairs Up</text>
  <rect x="5185" y="1835" width="30" height="30" fill="none" stroke="#a0a8b0" stroke-width="1" />
  <polygon points="5200,1860 5192,1845 5208,1845" fill="#a0a8b0" opacity="0.6" />
  <text x="5200" y="1878" fill="#a0a8b0" font-size="9" text-anchor="middle" font-family="monospace" opacity="0.6">Stairs Down</text>
  <text x="5980" y="3485" fill="#ffffff" font-size="20" text-anchor="end" font-family="monospace" opacity="0.15">Vessel Mid Deck</text>
</svg>