<?xml version='1.0' encoding='utf-8'?>
<svg xmlns="http://www.w3.org/2000/svg" xmlns:xlink="http://www.w3.org/1999/xlink" viewBox="0 0 4000 2500" width="4000" height="2500">
  <defs>
    <radialGradient id="bgGrad" cx="50%" cy="50%" r="70%">
      <stop offset="0%" stop-color="#2e1e32" />
      <stop offset="100%" stop-color="#100014" />
    </radialGradient>
  </defs>
  <rect x="0" y="0" width="4000" height="2500" fill="url(#bgGrad)" />
  <g opacity="0.05" stroke="#ffffff" stroke-width="1">
    <line x1="0" y1="0" x2="0" y2="2500" />
    <line x1="100" y1="0" x2="100" y2="2500" />
    <line x1="200" y1="0" x2="200" y2="2500" />
    <line x1="300" y1="0" x2="300" y2="2500" />
    <line x1="400" y1="0" x2="400" y2="2500" />
    <line x1="500" y1="0" x2="500" y2="2500" />
    <line x1="600" y1="0" x2="600" y2="2500" />
    <line x1="700" y1="0" x2="700" y2="2500" />
    <line x1="800" y1="0" x2="800" y2="2500" />
    <line x1="900" y1="0" x2="900" y2="2500" />
    <line x1="1000" y1="0" x2="1000" y2="2500" />
    <line x1="1100" y1="0" x2="1100" y2="2500" />
    <line x1="1200" y1="0" x2="1200" y2="2500" />
    <line x1="1300" y1="0" x2="1300" y2="2500" />
    <line x1="1400" y1="0" x2="1400" y2="2500" />
    <line x1="1500" y1="0" x2="1500" y2="2500" />
    <line x1="1600" y1="0" x2="1600" y2="2500" />
    <line x1="1700" y1="0" x2="1700" y2="2500" />
    <line x1="1800" y1="0" x2="1800" y2="2500" />
    <line x1="1900" y1="0" x2="1900" y2="2500" />
    <line x1="2000" y1="0" x2="2000" y2="2500" />
    <line x1="2100" y1="0" x2="2100" y2="2500" />
    <line x1="2200" y1="0" x2="2200" y2="2500" />
    <line x1="2300" y1="0" x2="2300" y2="2500" />
    <line x1="2400" y1="0" x2="2400" y2="2500" />
    <line x1="2500" y1="0" x2="2500" y2="2500" />
    <line x1="2600" y1="0" x2="2600" y2="2500" />
    <line x1="2700" y1="0" x2="2700" y2="2500" />
    <line x1="2800" y1="0" x2="2800" y2="2500" />
    <line x1="2900" y1="0" x2="2900" y2="2500" />
    <line x1="3000" y1="0" x2="3000" y2="2500" />
    <line x1="3100" y1="0" x2="3100" y2="2500" />
    <line x1="3200" y1="0" x2="3200" y2="2500" />
    <line x1="3300" y1="0" x2="3300" y2="2500" />
    <line x1="3400" y1="0" x2="3400" y2="2500" />
    <line x1="3500" y1="0" x2="3500" y2="2500" />
    <line x1="3600" y1="0" x2="3600" y2="2500" />
    <line x1="3700" y1="0" x2="3700" y2="2500" />
    <line x1="3800" y1="0" x2="3800" y2="2500" />
    <line x1="3900" y1="0" x2="3900" y2="2500" />
    <line x1="4000" y1="0" x2="4000" y2="2500" />
    <line x1="0" y1="0" x2="4000" y2="0" />
    <line x1="0" y1="100" x2="4000" y2="100" />
    <line x1="0" y1="200" x2="4000" y2="200" />
    <line x1="0" y1="300" x2="4000" y2="300" />
    <line x1="0" y1="400" x2="4000" y2="400" />
    <line x1="0" y1="500" x2="4000" y2="500" />
    <line x1="0" y1="600" x2="4000" y2="600" />
    <line x1="0" y1="700" x2="4000" y2="700" />
    <line x1="0" y1="800" x2="4000" y2="800" />
    <line x1="0" y1="900" x2="4000" y2="900" />
    <line x1="0" y1="1000" x2="4000" y2="1000" />
    <line x1="0" y1="1100" x2="4000" y2="1100" />
    <line x1="0" y1="1200" x2="4000" y2="1200" />
    <line x1="0" y1="1300" x2="4000" y2="1300" />
    <line x1="0" y1="1400" x2="4000" y2="1400" />
    <line x1="0" y1="1500" x2="4000" y2="1500" />
    <line x1="0" y1="1600" x2="4000" y2="1600" />
    <line x1="0" y1="1700" x2="4000" y2="1700" />
    <line x1="0" y1="1800" x2="4000" y2="1800" />
    <line x1="0" y1="1900" x2="4000" y2="1900" />
    <line x1="0" y1="2000" x2="4000" y2="2000" />
    <line x1="0" y1="2100" x2="4000" y2="2100" />
    <line x1="0" y1="2200" x2="4000" y2="2200" />
    <line x1="0" y1="2300" x2="4000" y2="2300" />
    <line x1="0" y1="2400" x2="4000" y2="2400" />
    <line x1="0" y1="2500" x2="4000" y2="2500" />
  </g>
  <polygon points="400,100 3900,100 3900,2400 400,2400 100,1250" fill="none" stroke="#0e050f" stroke-width="5" />
  <g opacity="0.15" stroke="#cc44aa" stroke-width="2">
    <polyline points="400,181 440,186 480,194 520,204 560,213 600,219 640,220 680,216 720,208 760,198 800,189 840,182 880,180 920,182 960,189 1000,199 1040,208 1080,216 1120,220 1160,219 1200,213 1240,204 1280,194 1320,186 1360,181 1400,180 1440,185 1480,193 1520,203 1560,212 1600,218 1640,220 1680,217 1720,209 1760,200 1800,190 1840,183 1880,180 1920,182 1960,188 2000,197 2040,207 2080,215 2120,220 2160,219 2200,214 2240,205 2280,196 2320,187 2360,181 2400,180 2440,184 2480,192 2520,202 2560,211 2600,218 2640,220 2680,217 2720,211 2760,201 2800,191 2840,184 2880,180 2920,181 2960,187 3000,196 3040,206 3080,214 3120,219 3160,219 3200,215 3240,207 3280,197 3320,188 3360,182 3400,180 3440,183 3480,191 3520,200 3560,210 3600,217 3640,220 3680,218 3720,212 3760,202 3800,193 3840,185 3880,180" fill="none" />
    <polyline points="400,719 440,729 480,738 520,744 560,745 600,741 640,733 680,723 720,714 760,707 800,705 840,707 880,714 920,724 960,733 1000,741 1040,745 1080,744 1120,738 1160,729 1200,719 1240,711 1280,706 1320,705 1360,710 1400,718 1440,728 1480,737 1520,743 1560,745 1600,742 1640,734 1680,725 1720,715 1760,708 1800,705 1840,707 1880,713 1920,722 1960,732 2000,740 2040,745 2080,744 2120,739 2160,730 2200,721 2240,712 2280,706 2320,705 2360,709 2400,717 2440,727 2480,736 2520,743 2560,745 2600,742 2640,736 2680,726 2720,716 2760,709 2800,705 2840,706 2880,712 2920,721 2960,731 3000,739 3040,744 3080,744 3120,740 3160,732 3200,722 3240,713 3280,707 3320,705 3360,708 3400,716 3440,725 3480,735 3520,742 3560,745 3600,743 3640,737 3680,727 3720,718 3760,710 3800,705 3840,706 3880,711" fill="none" />
    <polyline points="400,1263 440,1269 480,1270 520,1266 560,1258 600,1248 640,1239 680,1232 720,1230 760,1232 800,1239 840,1249 880,1258 920,1266 960,1270 1000,1269 1040,1263 1080,1254 1120,1244 1160,1236 1200,1231 1240,1230 1280,1235 1320,1243 1360,1253 1400,1262 1440,1268 1480,1270 1520,1267 1560,1259 1600,1250 1640,1240 1680,1233 1720,1230 1760,1232 1800,1238 1840,1247 1880,1257 1920,1265 1960,1270 2000,1269 2040,1264 2080,1255 2120,1246 2160,1237 2200,1231 2240,1230 2280,1234 2320,1242 2360,1252 2400,1261 2440,1268 2480,1270 2520,1267 2560,1261 2600,1251 2640,1241 2680,1234 2720,1230 2760,1231 2800,1237 2840,1246 2880,1256 2920,1264 2960,1269 3000,1269 3040,1265 3080,1257 3120,1247 3160,1238 3200,1232 3240,1230 3280,1233 3320,1241 3360,1250 3400,1260 3440,1267 3480,1270 3520,1268 3560,1262 3600,1252 3640,1243 3680,1235 3720,1230 3760,1231 3800,1236 3840,1245 3880,1255" fill="none" />
    <polyline points="400,1795 440,1791 480,1783 520,1773 560,1764 600,1757 640,1755 680,1757 720,1764 760,1774 800,1783 840,1791 880,1795 920,1794 960,1788 1000,1779 1040,1769 1080,1761 1120,1756 1160,1755 1200,1760 1240,1768 1280,1778 1320,1787 1360,1793 1400,1795 1440,1792 1480,1784 1520,1775 1560,1765 1600,1758 1640,1755 1680,1757 1720,1763 1760,1772 1800,1782 1840,1790 1880,1795 1920,1794 1960,1789 2000,1780 2040,1771 2080,1762 2120,1756 2160,1755 2200,1759 2240,1767 2280,1777 2320,1786 2360,1793 2400,1795 2440,1792 2480,1786 2520,1776 2560,1766 2600,1759 2640,1755 2680,1756 2720,1762 2760,1771 2800,1781 2840,1789 2880,1794 2920,1794 2960,1790 3000,1782 3040,1772 3080,1763 3120,1757 3160,1755 3200,1758 3240,1766 3280,1775 3320,1785 3360,1792 3400,1795 3440,1793 3480,1787 3520,1777 3560,1768 3600,1760 3640,1755 3680,1756 3720,1761 3760,1770 3800,1780 3840,1788 3880,1794" fill="none" />
    <polyline points="400,2308 440,2298 480,2289 520,2282 560,2280 600,2282 640,2289 680,2299 720,2308 760,2316 800,2320 840,2319 880,2313 920,2304 960,2294 1000,2286 1040,2281 1080,2280 1120,2285 1160,2293 1200,2303 1240,2312 1280,2318 1320,2320 1360,2317 1400,2309 1440,2300 1480,2290 1520,2283 1560,2280 1600,2282 1640,2288 1680,2297 1720,2307 1760,2315 1800,2320 1840,2319 1880,2314 1920,2305 1960,2296 2000,2287 2040,2281 2080,2280 2120,2284 2160,2292 2200,2302 2240,2311 2280,2318 2320,2320 2360,2317 2400,2311 2440,2301 2480,2291 2520,2284 2560,2280 2600,2281 2640,2287 2680,2296 2720,2306 2760,2314 2800,2319 2840,2319 2880,2315 2920,2307 2960,2297 3000,2288 3040,2282 3080,2280 3120,2283 3160,2291 3200,2300 3240,2310 3280,2317 3320,2320 3360,2318 3400,2312 3440,2302 3480,2293 3520,2285 3560,2280 3600,2281 3640,2286 3680,2295 3720,2305 3760,2313 3800,2319 3840,2320 3880,2316" fill="none" />
  </g>
  <polyline points="500,1268 550,1261 600,1254 650,1247 700,1239 750,1233 800,1227 850,1223 900,1221 950,1220 1000,1221 1050,1224 1100,1229 1150,1235 1200,1242 1250,1249 1300,1256 1350,1264 1400,1270 1450,1275 1500,1278 1550,1280 1600,1280 1650,1278 1700,1274 1750,1269 1800,1262 1850,1255 1900,1248 1950,1240 2000,1234 2050,1228 2100,1224 2150,1221 2200,1220 2250,1221 2300,1224 2350,1228 2400,1234 2450,1241 2500,1248 2550,1255 2600,1263 2650,1269 2700,1274 2750,1278 2800,1280 2850,1280 2900,1278 2950,1275 3000,1270 3050,1263 3100,1256 3150,1249 3200,1241 3250,1235 3300,1229 3350,1224 3400,1221 3450,1220 3500,1221 3550,1223 3600,1227 3650,1233" fill="none" stroke="#2a1530" stroke-width="100" stroke-linecap="round" />
  <rect x="500" y="750" width="600" height="500" fill="#2a1530" stroke="#0e050f" stroke-width="3" />
  <text x="800" y="1000" fill="#d088cc" font-size="14" font-weight="bold" text-anchor="middle" dominant-baseline="central" font-family="monospace">LD1: Enginarium</text>
  <rect x="790" y="1246" width="20" height="8" fill="#8b7355" stroke="#c0b090" stroke-width="1" />
  <rect x="1300" y="700" width="500" height="500" fill="#cc44aa" stroke="#0e050f" stroke-width="4" />
  <rect x="1304" y="704" width="492" height="492" fill="none" stroke="#d088cc" stroke-width="1" stroke-dasharray="8,4" opacity="0.5" />
  <text x="1550" y="942" fill="#d088cc" font-size="14" font-weight="bold" text-anchor="middle" dominant-baseline="central" font-family="monospace">LD2: Warp Drive</text>
  <text x="1550" y="960" fill="#d088cc" font-size="12" text-anchor="middle" dominant-baseline="central" font-family="monospace">BOSS ROOM</text>
  <circle cx="1550" cy="1200" r="8" fill="#cc3333" stroke="#ffcc00" stroke-width="2" />
  <polygon points="1550.0,932.0 1553.4,941.7 1562.7,937.3 1558.3,946.6 1568.0,950.0 1558.3,953.4 1562.7,962.7 1553.4,958.3 1550.0,968.0 1546.6,958.3 1537.3,962.7 1541.7,953.4 1532.0,950.0 1541.7,946.6 1537.3,937.3 1546.6,941.7" fill="#cc44aa" stroke="#ff88dd" stroke-width="1" opacity="0.8" />
  <text x="1550" y="978" fill="#d088cc" font-size="10" text-anchor="middle" font-family="monospace" opacity="0.7">Warp Core</text>
  <rect x="2000" y="750" width="400" height="400" fill="#2a1530" stroke="#0e050f" stroke-width="3" />
  <text x="2200" y="942" fill="#d088cc" font-size="14" font-weight="bold" text-anchor="middle" dominant-baseline="central" font-family="monospace">LD3: Altar</text>
  <text x="2200" y="960" fill="#d088cc" font-size="12" text-anchor="middle" dominant-baseline="central" font-family="monospace">Chamber</text>
  <polygon points="2200,1140 2192,1156 2208,1156" fill="#ff6600" stroke="#ffcc00" stroke-width="2" />
  <circle cx="2200" cy="950" r="15" fill="#cc44aa" stroke="#d088cc" stroke-width="2" opacity="0.8" />
  <text x="2200" y="978" fill="#d088cc" font-size="10" text-anchor="middle" font-family="monospace" opacity="0.7">Dark Altar</text>
  <rect x="2600" y="800" width="400" height="300" fill="#2a1530" stroke="#0e050f" stroke-width="3" />
  <text x="2800" y="950" fill="#d088cc" font-size="14" font-weight="bold" text-anchor="middle" dominant-baseline="central" font-family="monospace">LD4: Cell Block</text>
  <rect x="2790" y="1096" width="20" height="8" fill="#8b7355" stroke="#c0b090" stroke-width="1" />
  <rect x="1200" y="1400" width="300" height="300" fill="#2a1530" stroke="#0e050f" stroke-width="3" />
  <text x="1350" y="1542" fill="#d088cc" font-size="14" font-weight="bold" text-anchor="middle" dominant-baseline="central" font-family="monospace">LD5: Ritual</text>
  <text x="1350" y="1560" fill="#d088cc" font-size="12" text-anchor="middle" dominant-baseline="central" font-family="monospace">Store</text>
  <rect x="1340" y="1396" width="20" height="8" fill="#8b7355" stroke="#c0b090" stroke-width="1" />
  <rect x="1340" y="1540" width="20" height="20" fill="#cc44aa" stroke="#d088cc" stroke-width="2" opacity="0.7" />
  <rect x="1600" y="1400" width="300" height="300" fill="#2a1530" stroke="#0e050f" stroke-width="3" />
  <text x="1750" y="1542" fill="#d088cc" font-size="14" font-weight="bold" text-anchor="middle" dominant-baseline="central" font-family="monospace">LD6: Maintenance</text>
  <text x="1750" y="1560" fill="#d088cc" font-size="12" text-anchor="middle" dominant-baseline="central" font-family="monospace">Crawlway</text>
  <rect x="1740" y="1396" width="20" height="8" fill="#8b7355" stroke="#c0b090" stroke-width="1" />
  <rect x="600" y="1900" width="800" height="200" fill="#2a1530" stroke="#0e050f" stroke-width="3" />
  <text x="1000" y="2000" fill="#d088cc" font-size="14" font-weight="bold" text-anchor="middle" dominant-baseline="central" font-family="monospace">LD7: Bilge</text>
  <rect x="620" y="1920" width="760" height="160" fill="#1a3a5a" stroke="none" opacity="0.2" />
  <g opacity="0.1" stroke="#4488bb" stroke-width="1">
    <polyline points="620,1915 650,1912 680,1912 710,1915 740,1920 770,1924 800,1927 830,1928 860,1926 890,1921 920,1917 950,1913 980,1912 1010,1914 1040,1918 1070,1922 1100,1926 1130,1928 1160,1927 1190,1924 1220,1919 1250,1915 1280,1912 1310,1913 1340,1915 1370,1920" fill="none" />
    <polyline points="620,1974 650,1977 680,1982 710,1986 740,1988 770,1987 800,1984 830,1979 860,1975 890,1972 920,1973 950,1975 980,1980 1010,1984 1040,1987 1070,1988 1100,1985 1130,1981 1160,1977 1190,1973 1220,1972 1250,1974 1280,1978 1310,1982 1340,1986 1370,1988" fill="none" />
    <polyline points="620,2044 650,2047 680,2048 710,2046 740,2041 770,2037 800,2033 830,2032 860,2034 890,2038 920,2042 950,2046 980,2048 1010,2047 1040,2044 1070,2039 1100,2035 1130,2032 1160,2033 1190,2035 1220,2040 1250,2045 1280,2047 1310,2048 1340,2045 1370,2041" fill="none" />
  </g>
  <text x="3980" y="2485" fill="#ffffff" font-size="20" text-anchor="end" font-family="monospace" opacity="0.15">Vessel Lower Deck</text>
</svg>