<?xml version='1.0' encoding='utf-8'?>
<svg xmlns="http://www.w3.org/2000/svg" xmlns:xlink="http://www.w3.org/1999/xlink" viewBox="0 0 4000 2500" width="4000" height="2500">
  <defs>
    <radialGradient id="bgGrad" cx="50%" cy="50%" r="70%">
      <stop offset="0%" stop-color="#323439" />
      <stop offset="100%" stop-color="#14161b" />
    </radialGradient>
  </defs>
  <rect x="0" y="0" width="4000" height="2500" fill="url(#bgGrad)" />
  <g opacity="0.05" stroke="#ffffff" stroke-width="1">
    <line x1="0" y1="0" x2="0" y2="2500" />
    <line x1="100" y1="0" x2="100" y2="2500" />
    <line x1="200" y1="0" x2="200" y2="2500" />
    <line x1="300" y1="0" x2="300" y2="2500" />
    <line x1="400" y1="0" x2="400" y2="2500" />
    <line x1="500" y1="0" x2="500" y2="2500" />
    <line x1="600" y1="0" x2="600" y2="2500" />
    <line x1="700" y1="0" x2="700" y2="2500" />
    <line x1="800" y1="0" x2="800" y2="2500" />
    <line x1="900" y1="0" x2="900" y2="2500" />
    <line x1="1000" y1="0" x2="1000" y2="2500" />
    <line x1="1100" y1="0" x2="1100" y2="2500" />
    <line x1="1200" y1="0" x2="1200" y2="2500" />
    <line x1="1300" y1="0" x2="1300" y2="2500" />
    <line x1="1400" y1="0" x2="1400" y2="2500" />
    <line x1="1500" y1="0" x2="1500" y2="2500" />
    <line x1="1600" y1="0" x2="1600" y2="2500" />
    <line x1="1700" y1="0" x2="1700" y2="2500" />
    <line x1="1800" y1="0" x2="1800" y2="2500" />
    <line x1="1900" y1="0" x2="1900" y2="2500" />
    <line x1="2000" y1="0" x2="2000" y2="2500" />
    <line x1="2100" y1="0" x2="2100" y2="2500" />
    <line x1="2200" y1="0" x2="2200" y2="2500" />
    <line x1="2300" y1="0" x2="2300" y2="2500" />
    <line x1="2400" y1="0" x2="2400" y2="2500" />
    <line x1="2500" y1="0" x2="2500" y2="2500" />
    <line x1="2600" y1="0" x2="2600" y2="2500" />
    <line x1="2700" y1="0" x2="2700" y2="2500" />
    <line x1="2800" y1="0" x2="2800" y2="2500" />
    <line x1="2900" y1="0" x2="2900" y2="2500" />
    <line x1="3000" y1="0" x2="3000" y2="2500" />
    <line x1="3100" y1="0" x2="3100" y2="2500" />
    <line x1="3200" y1="0" x2="3200" y2="2500" />
    <line x1="3300" y1="0" x2="3300" y2="2500" />
    <line x1="3400" y1="0" x2="3400" y2="2500" />
    <line x1="3500" y1="0" x2="3500" y2="2500" />
    <line x1="3600" y1="0" x2="3600" y2="2500" />
    <line x1="3700" y1="0" x2="3700" y2="2500" />
    <line x1="3800" y1="0" x2="3800" y2="2500" />
    <line x1="3900" y1="0" x2="3900" y2="2500" />
    <line x1="4000" y1="0" x2="4000" y2="2500" />
    <line x1="0" y1="0" x2="4000" y2="0" />
    <line x1="0" y1="100" x2="4000" y2="100" />
    <line x1="0" y1="200" x2="4000" y2="200" />
    <line x1="0" y1="300" x2="4000" y2="300" />
    <line x1="0" y1="400" x2="4000" y2="400" />
    <line x1="0" y1="500" x2="4000" y2="500" />
    <line x1="0" y1="600" x2="4000" y2="600" />
    <line x1="0" y1="700" x2="4000" y2="700" />
    <line x1="0" y1="800" x2="4000" y2="800" />
    <line x1="0" y1="900" x2="4000" y2="900" />
    <line x1="0" y1="1000" x2="4000" y2="1000" />
    <line x1="0" y1="1100" x2="4000" y2="1100" />
    <line x1="0" y1="1200" x2="4000" y2="1200" />
    <line x1="0" y1="1300" x2="4000" y2="1300" />
    <line x1="0" y1="1400" x2="4000" y2="1400" />
    <line x1="0" y1="1500" x2="4000" y2="1500" />
    <line x1="0" y1="1600" x2="4000" y2="1600" />
    <line x1="0" y1="1700" x2="4000" y2="1700" />
    <line x1="0" y1="1800" x2="4000" y2="1800" />
    <line x1="0" y1="1900" x2="4000" y2="1900" />
    <line x1="0" y1="2000" x2="4000" y2="2000" />
    <line x1="0" y1="2100" x2="4000" y2="2100" />
    <line x1="0" y1="2200" x2="4000" y2="2200" />
    <line x1="0" y1="2300" x2="4000" y2="2300" />
    <line x1="0" y1="2400" x2="4000" y2="2400" />
    <line x1="0" y1="2500" x2="4000" y2="2500" />
  </g>
  <polygon points="400,100 3900,100 3900,2400 400,2400 100,1250" fill="none" stroke="#15171a" stroke-width="5" />
  <rect x="500" y="1200" width="3200" height="100" fill="#2d3035" stroke="#15171a" stroke-width="2" />
  <rect x="500" y="900" width="600" height="400" fill="#c8a832" stroke="#15171a" stroke-width="4" />
  <rect x="504" y="904" width="592" height="392" fill="none" stroke="#a0a8b0" stroke-width="1" stroke-dasharray="8,4" opacity="0.5" />
  <text x="800" y="1100" fill="#a0a8b0" font-size="14" font-weight="bold" text-anchor="middle" dominant-baseline="central" font-family="monospace">UD1: Bridge</text>
  <rect x="1096" y="1090" width="8" height="20" fill="#8b7355" stroke="#c0b090" stroke-width="1" />
  <rect x="1200" y="700" width="400" height="300" fill="#2d3035" stroke="#15171a" stroke-width="3" />
  <text x="1400" y="842" fill="#a0a8b0" font-size="14" font-weight="bold" text-anchor="middle" dominant-baseline="central" font-family="monospace">UD2: Officers'</text>
  <text x="1400" y="860" fill="#a0a8b0" font-size="12" text-anchor="middle" dominant-baseline="central" font-family="monospace">Quarters</text>
  <rect x="1390" y="996" width="20" height="8" fill="#8b7355" stroke="#c0b090" stroke-width="1" />
  <rect x="1200" y="1400" width="400" height="400" fill="#2d3035" stroke="#15171a" stroke-width="3" />
  <text x="1400" y="1592" fill="#a0a8b0" font-size="14" font-weight="bold" text-anchor="middle" dominant-baseline="central" font-family="monospace">UD3: Observation</text>
  <text x="1400" y="1610" fill="#a0a8b0" font-size="12" text-anchor="middle" dominant-baseline="central" font-family="monospace">Dome</text>
  <polygon points="1400,1582 1412,1600 1400,1618 1388,1600" fill="#d4a846" stroke="#ffffff" stroke-width="2" opacity="0.9" />
  <rect x="1700" y="700" width="300" height="300" fill="#2d3035" stroke="#15171a" stroke-width="3" />
  <text x="1850" y="850" fill="#a0a8b0" font-size="14" font-weight="bold" text-anchor="middle" dominant-baseline="central" font-family="monospace">UD4: Armory</text>
  <circle cx="1850" cy="1000" r="8" fill="#cc3333" stroke="#ffcc00" stroke-width="2" />
  <rect x="1840" y="840" width="20" height="20" fill="#c8a832" stroke="#a0a8b0" stroke-width="2" opacity="0.7" />
  <rect x="2100" y="700" width="300" height="300" fill="#2d3035" stroke="#15171a" stroke-width="3" />
  <text x="2250" y="842" fill="#a0a8b0" font-size="14" font-weight="bold" text-anchor="middle" dominant-baseline="central" font-family="monospace">UD5: Medicae</text>
  <text x="2250" y="860" fill="#a0a8b0" font-size="12" text-anchor="middle" dominant-baseline="central" font-family="monospace">Bay</text>
  <rect x="2240" y="996" width="20" height="8" fill="#8b7355" stroke="#c0b090" stroke-width="1" />
  <rect x="2500" y="700" width="400" height="300" fill="#2d3035" stroke="#15171a" stroke-width="3" />
  <text x="2700" y="850" fill="#a0a8b0" font-size="14" font-weight="bold" text-anchor="middle" dominant-baseline="central" font-family="monospace">UD6: Storage</text>
  <rect x="2590" y="840" width="20" height="20" fill="#c8a832" stroke="#a0a8b0" stroke-width="2" opacity="0.7" />
  <rect x="2740" y="840" width="20" height="20" fill="#c8a832" stroke="#a0a8b0" stroke-width="2" opacity="0.7" />
  <rect x="2100" y="1400" width="300" height="200" fill="#2d3035" stroke="#15171a" stroke-width="3" />
  <text x="2250" y="1492" fill="#a0a8b0" font-size="14" font-weight="bold" text-anchor="middle" dominant-baseline="central" font-family="monospace">UD7: Children's</text>
  <text x="2250" y="1510" fill="#a0a8b0" font-size="12" text-anchor="middle" dominant-baseline="central" font-family="monospace">Cabin</text>
  <polygon points="2250,1390 2242,1406 2258,1406" fill="#ff6600" stroke="#ffcc00" stroke-width="2" />
  <rect x="3185" y="1235" width="30" height="30" fill="none" stroke="#a0a8b0" stroke-width="1" />
  <polygon points="3200,1260 3192,1245 3208,1245" fill="#a0a8b0" opacity="0.6" />
  <text x="3200" y="1278" fill="#a0a8b0" font-size="9" text-anchor="middle" font-family="monospace" opacity="0.6">Stairs Down</text>
  <text x="3980" y="2485" fill="#ffffff" font-size="20" text-anchor="end" font-family="monospace" opacity="0.15">Vessel Upper Deck</text>
</svg>