<?xml version='1.0' encoding='utf-8'?>
<svg xmlns="http://www.w3.org/2000/svg" xmlns:xlink="http://www.w3.org/1999/xlink" viewBox="0 0 4000 3000" width="4000" height="3000">
  <defs>
    <radialGradient id="bgGrad" cx="50%" cy="50%" r="70%">
      <stop offset="0%" stop-color="#2e2e32" />
      <stop offset="100%" stop-color="#101014" />
    </radialGradient>
  </defs>
  <rect x="0" y="0" width="4000" height="3000" fill="url(#bgGrad)" />
  <g opacity="0.05" stroke="#ffffff" stroke-width="1">
    <line x1="0" y1="0" x2="0" y2="3000" />
    <line x1="100" y1="0" x2="100" y2="3000" />
    <line x1="200" y1="0" x2="200" y2="3000" />
    <line x1="300" y1="0" x2="300" y2="3000" />
    <line x1="400" y1="0" x2="400" y2="3000" />
    <line x1="500" y1="0" x2="500" y2="3000" />
    <line x1="600" y1="0" x2="600" y2="3000" />
    <line x1="700" y1="0" x2="700" y2="3000" />
    <line x1="800" y1="0" x2="800" y2="3000" />
    <line x1="900" y1="0" x2="900" y2="3000" />
    <line x1="1000" y1="0" x2="1000" y2="3000" />
    <line x1="1100" y1="0" x2="1100" y2="3000" />
    <line x1="1200" y1="0" x2="1200" y2="3000" />
    <line x1="1300" y1="0" x2="1300" y2="3000" />
    <line x1="1400" y1="0" x2="1400" y2="3000" />
    <line x1="1500" y1="0" x2="1500" y2="3000" />
    <line x1="1600" y1="0" x2="1600" y2="3000" />
    <line x1="1700" y1="0" x2="1700" y2="3000" />
    <line x1="1800" y1="0" x2="1800" y2="3000" />
    <line x1="1900" y1="0" x2="1900" y2="3000" />
    <line x1="2000" y1="0" x2="2000" y2="3000" />
    <line x1="2100" y1="0" x2="2100" y2="3000" />
    <line x1="2200" y1="0" x2="2200" y2="3000" />
    <line x1="2300" y1="0" x2="2300" y2="3000" />
    <line x1="2400" y1="0" x2="2400" y2="3000" />
    <line x1="2500" y1="0" x2="2500" y2="3000" />
    <line x1="2600" y1="0" x2="2600" y2="3000" />
    <line x1="2700" y1="0" x2="2700" y2="3000" />
    <line x1="2800" y1="0" x2="2800" y2="3000" />
    <line x1="2900" y1="0" x2="2900" y2="3000" />
    <line x1="3000" y1="0" x2="3000" y2="3000" />
    <line x1="3100" y1="0" x2="3100" y2="3000" />
    <line x1="3200" y1="0" x2="3200" y2="3000" />
    <line x1="3300" y1="0" x2="3300" y2="3000" />
    <line x1="3400" y1="0" x2="3400" y2="3000" />
    <line x1="3500" y1="0" x2="3500" y2="3000" />
    <line x1="3600" y1="0" x2="3600" y2="3000" />
    <line x1="3700" y1="0" x2="3700" y2="3000" />
    <line x1="3800" y1="0" x2="3800" y2="3000" />
    <line x1="3900" y1="0" x2="3900" y2="3000" />
    <line x1="4000" y1="0" x2="4000" y2="3000" />
    <line x1="0" y1="0" x2="4000" y2="0" />
    <line x1="0" y1="100" x2="4000" y2="100" />
    <line x1="0" y1="200" x2="4000" y2="200" />
    <line x1="0" y1="300" x2="4000" y2="300" />
    <line x1="0" y1="400" x2="4000" y2="400" />
    <line x1="0" y1="500" x2="4000" y2="500" />
    <line x1="0" y1="600" x2="4000" y2="600" />
    <line x1="0" y1="700" x2="4000" y2="700" />
    <line x1="0" y1="800" x2="4000" y2="800" />
    <line x1="0" y1="900" x2="4000" y2="900" />
    <line x1="0" y1="1000" x2="4000" y2="1000" />
    <line x1="0" y1="1100" x2="4000" y2="1100" />
    <line x1="0" y1="1200" x2="4000" y2="1200" />
    <line x1="0" y1="1300" x2="4000" y2="1300" />
    <line x1="0" y1="1400" x2="4000" y2="1400" />
    <line x1="0" y1="1500" x2="4000" y2="1500" />
    <line x1="0" y1="1600" x2="4000" y2="1600" />
    <line x1="0" y1="1700" x2="4000" y2="1700" />
    <line x1="0" y1="1800" x2="4000" y2="1800" />
    <line x1="0" y1="1900" x2="4000" y2="1900" />
    <line x1="0" y1="2000" x2="4000" y2="2000" />
    <line x1="0" y1="2100" x2="4000" y2="2100" />
    <line x1="0" y1="2200" x2="4000" y2="2200" />
    <line x1="0" y1="2300" x2="4000" y2="2300" />
    <line x1="0" y1="2400" x2="4000" y2="2400" />
    <line x1="0" y1="2500" x2="4000" y2="2500" />
    <line x1="0" y1="2600" x2="4000" y2="2600" />
    <line x1="0" y1="2700" x2="4000" y2="2700" />
    <line x1="0" y1="2800" x2="4000" y2="2800" />
    <line x1="0" y1="2900" x2="4000" y2="2900" />
    <line x1="0" y1="3000" x2="4000" y2="3000" />
  </g>
  <rect x="200" y="200" width="3600" height="2600" fill="none" stroke="#0a0a0e" stroke-width="4" id="outer-wall" />
  <rect x="1600" y="300" width="800" height="600" fill="#8b7355" stroke="#0a0a0e" stroke-width="4" />
  <rect x="1604" y="304" width="792" height="592" fill="none" stroke="#c0b090" stroke-width="1" stroke-dasharray="8,4" opacity="0.5" />
  <text x="2000" y="592" fill="#c0b090" font-size="14" font-weight="bold" text-anchor="middle" dominant-baseline="central" font-family="monospace">Burgomaster's</text>
  <text x="2000" y="610" fill="#c0b090" font-size="12" text-anchor="middle" dominant-baseline="central" font-family="monospace">Manor</text>
  <rect x="1996" y="890" width="8" height="20" fill="#8b7355" stroke="#c0b090" stroke-width="1" />
  <rect x="2700" y="400" width="400" height="400" fill="#2a2a30" stroke="#0a0a0e" stroke-width="3" />
  <text x="2900" y="600" fill="#c0b090" font-size="14" font-weight="bold" text-anchor="middle" dominant-baseline="central" font-family="monospace">Chapel</text>
  <circle cx="2900" cy="600" r="15" fill="#8b7355" stroke="#c0b090" stroke-width="2" opacity="0.8" />
  <text x="2900" y="628" fill="#c0b090" font-size="10" text-anchor="middle" font-family="monospace" opacity="0.7">Altar</text>
  <rect x="400" y="500" width="500" height="400" fill="#2a2a30" stroke="#0a0a0e" stroke-width="3" />
  <text x="650" y="692" fill="#c0b090" font-size="14" font-weight="bold" text-anchor="middle" dominant-baseline="central" font-family="monospace">Blood of the</text>
  <text x="650" y="710" fill="#c0b090" font-size="12" text-anchor="middle" dominant-baseline="central" font-family="monospace">Vine Tavern</text>
  <rect x="896" y="690" width="8" height="20" fill="#8b7355" stroke="#c0b090" stroke-width="1" />
  <rect x="1500" y="1200" width="600" height="400" fill="#2a2a30" stroke="#0a0a0e" stroke-width="3" />
  <text x="1800" y="1400" fill="#c0b090" font-size="14" font-weight="bold" text-anchor="middle" dominant-baseline="central" font-family="monospace">Market Square</text>
  <rect x="400" y="1900" width="300" height="200" fill="#2a2a30" stroke="#0a0a0e" stroke-width="3" />
  <text x="550" y="2000" fill="#c0b090" font-size="14" font-weight="bold" text-anchor="middle" dominant-baseline="central" font-family="monospace">Hab-Block A</text>
  <rect x="900" y="1900" width="300" height="200" fill="#2a2a30" stroke="#0a0a0e" stroke-width="3" />
  <text x="1050" y="2000" fill="#c0b090" font-size="14" font-weight="bold" text-anchor="middle" dominant-baseline="central" font-family="monospace">Hab-Block B</text>
  <rect x="1400" y="1900" width="300" height="200" fill="#2a2a30" stroke="#0a0a0e" stroke-width="3" />
  <text x="1550" y="2000" fill="#c0b090" font-size="14" font-weight="bold" text-anchor="middle" dominant-baseline="central" font-family="monospace">Hab-Block C</text>
  <rect x="1900" y="1900" width="300" height="200" fill="#2a2a30" stroke="#0a0a0e" stroke-width="3" />
  <text x="2050" y="2000" fill="#c0b090" font-size="14" font-weight="bold" text-anchor="middle" dominant-baseline="central" font-family="monospace">Hab-Block D</text>
  <polyline points="2000,900 2000,1200" fill="none" stroke="#2a2a30" stroke-width="60" stroke-linecap="round" stroke-linejoin="round" opacity="0.6" />
  <polyline points="900,700 1500,700 1500,1200" fill="none" stroke="#2a2a30" stroke-width="60" stroke-linecap="round" stroke-linejoin="round" opacity="0.6" />
  <polyline points="2100,1600 2100,1900" fill="none" stroke="#2a2a30" stroke-width="60" stroke-linecap="round" stroke-linejoin="round" opacity="0.6" />
  <polyline points="550,1900 2050,1900" fill="none" stroke="#2a2a30" stroke-width="60" stroke-linecap="round" stroke-linejoin="round" opacity="0.6" />
  <rect x="1900" y="2700" width="200" height="100" fill="#2a2a30" stroke="#0a0a0e" stroke-width="3" />
  <text x="2000" y="2750" fill="#c0b090" font-size="14" font-weight="bold" text-anchor="middle" dominant-baseline="central" font-family="monospace">Gate</text>
  <polyline points="2000,2700 2000,2200" fill="none" stroke="#2a2a30" stroke-width="60" stroke-linecap="round" stroke-linejoin="round" opacity="0.6" />
  <circle cx="1800" cy="1400" r="15" fill="#8b7355" stroke="#c0b090" stroke-width="2" opacity="0.8" />
  <text x="1800" y="1428" fill="#c0b090" font-size="10" text-anchor="middle" font-family="monospace" opacity="0.7">Well</text>
  <rect x="590" y="1390" width="20" height="20" fill="#8b7355" stroke="#c0b090" stroke-width="2" opacity="0.7" />
  <text x="600" y="1428" fill="#c0b090" font-size="10" text-anchor="middle" font-family="monospace" opacity="0.7">Supplies</text>
  <rect x="2100" y="1375" width="1100" height="50" fill="#2a2a30" stroke="#0a0a0e" stroke-width="2" />
  <rect x="3350" y="800" width="50" height="200" fill="#2a2a30" stroke="#0a0a0e" stroke-width="2" />
  <rect x="3200" y="500" width="400" height="300" fill="#2a2a30" stroke="#0a0a0e" stroke-width="3" />
  <text x="3400" y="650" fill="#c0b090" font-size="14" font-weight="bold" text-anchor="middle" dominant-baseline="central" font-family="monospace">Abandoned Home</text>
  <rect x="3195" y="638" width="10" height="24" fill="#555544" stroke="#887766" stroke-width="1" />
  <line x1="3196" y1="642" x2="3204" y2="658" stroke="#aa8866" stroke-width="2" />
  <line x1="3204" y1="642" x2="3196" y2="658" stroke="#aa8866" stroke-width="2" />
  <rect x="3200" y="1000" width="350" height="250" fill="#2a2a30" stroke="#0a0a0e" stroke-width="3" />
  <text x="3375" y="1125" fill="#c0b090" font-size="14" font-weight="bold" text-anchor="middle" dominant-baseline="central" font-family="monospace">Root Cellar</text>
  <circle cx="3200" cy="1125" r="8" fill="#cc3333" stroke="#ffcc00" stroke-width="2" />
  <rect x="400" y="1050" width="300" height="200" fill="#2a2a30" stroke="#0a0a0e" stroke-width="3" />
  <text x="550" y="1142" fill="#c0b090" font-size="14" font-weight="bold" text-anchor="middle" dominant-baseline="central" font-family="monospace">Collapsed</text>
  <text x="550" y="1160" fill="#c0b090" font-size="12" text-anchor="middle" dominant-baseline="central" font-family="monospace">Storehouse</text>
  <rect x="538" y="1045" width="24" height="10" fill="#555544" stroke="#887766" stroke-width="1" />
  <line x1="542" y1="1046" x2="558" y2="1054" stroke="#aa8866" stroke-width="2" />
  <line x1="558" y1="1046" x2="542" y2="1054" stroke="#aa8866" stroke-width="2" />
  <rect x="2500" y="1900" width="300" height="200" fill="#2a2a30" stroke="#0a0a0e" stroke-width="3" />
  <text x="2650" y="1992" fill="#c0b090" font-size="14" font-weight="bold" text-anchor="middle" dominant-baseline="central" font-family="monospace">Rubble-Filled</text>
  <text x="2650" y="2010" fill="#c0b090" font-size="12" text-anchor="middle" dominant-baseline="central" font-family="monospace">Ruin</text>
  <rect x="2638" y="1895" width="24" height="10" fill="#555544" stroke="#887766" stroke-width="1" />
  <line x1="2642" y1="1896" x2="2658" y2="1904" stroke="#aa8866" stroke-width="2" />
  <line x1="2658" y1="1896" x2="2642" y2="1904" stroke="#aa8866" stroke-width="2" />
  <rect x="3200" y="1900" width="300" height="200" fill="#2a2a30" stroke="#0a0a0e" stroke-width="3" />
  <text x="3350" y="2000" fill="#c0b090" font-size="14" font-weight="bold" text-anchor="middle" dominant-baseline="central" font-family="monospace">Abandoned Shrine</text>
  <rect x="3196" y="1990" width="8" height="20" fill="#8b7355" stroke="#c0b090" stroke-width="1" />
  <rect x="400" y="2300" width="300" height="250" fill="#2a2a30" stroke="#0a0a0e" stroke-width="3" />
  <text x="550" y="2417" fill="#c0b090" font-size="14" font-weight="bold" text-anchor="middle" dominant-baseline="central" font-family="monospace">Collapsed</text>
  <text x="550" y="2435" fill="#c0b090" font-size="12" text-anchor="middle" dominant-baseline="central" font-family="monospace">Building</text>
  <rect x="538" y="2295" width="24" height="10" fill="#555544" stroke="#887766" stroke-width="1" />
  <line x1="542" y1="2296" x2="558" y2="2304" stroke="#aa8866" stroke-width="2" />
  <line x1="558" y1="2296" x2="542" y2="2304" stroke="#aa8866" stroke-width="2" />
  <rect x="1100" y="1050" width="250" height="150" fill="#2a2a30" stroke="#0a0a0e" stroke-width="3" />
  <text x="1225" y="1125" fill="#c0b090" font-size="14" font-weight="bold" text-anchor="middle" dominant-baseline="central" font-family="monospace">Latrine Block</text>
  <rect x="1215" y="1046" width="20" height="8" fill="#8b7355" stroke="#c0b090" stroke-width="1" />
  <text x="3980" y="2985" fill="#ffffff" font-size="20" text-anchor="end" font-family="monospace" opacity="0.15">Village of Barovus</text>
</svg>