<?xml version='1.0' encoding='utf-8'?>
<svg xmlns="http://www.w3.org/2000/svg" xmlns:xlink="http://www.w3.org/1999/xlink" viewBox="0 0 3000 3000" width="3000" height="3000">
  <defs>
    <radialGradient id="bgGrad" cx="50%" cy="50%" r="70%">
      <stop offset="0%" stop-color="#2e1e32" />
      <stop offset="100%" stop-color="#100014" />
    </radialGradient>
  </defs>
  <rect x="0" y="0" width="3000" height="3000" fill="url(#bgGrad)" />
  <g opacity="0.05" stroke="#ffffff" stroke-width="1">
    <line x1="0" y1="0" x2="0" y2="3000" />
    <line x1="100" y1="0" x2="100" y2="3000" />
    <line x1="200" y1="0" x2="200" y2="3000" />
    <line x1="300" y1="0" x2="300" y2="3000" />
    <line x1="400" y1="0" x2="400" y2="3000" />
    <line x1="500" y1="0" x2="500" y2="3000" />
    <line x1="600" y1="0" x2="600" y2="3000" />
    <line x1="700" y1="0" x2="700" y2="3000" />
    <line x1="800" y1="0" x2="800" y2="3000" />
    <line x1="900" y1="0" x2="900" y2="3000" />
    <line x1="1000" y1="0" x2="1000" y2="3000" />
    <line x1="1100" y1="0" x2="1100" y2="3000" />
    <line x1="1200" y1="0" x2="1200" y2="3000" />
    <line x1="1300" y1="0" x2="1300" y2="3000" />
    <line x1="1400" y1="0" x2="1400" y2="3000" />
    <line x1="1500" y1="0" x2="1500" y2="3000" />
    <line x1="1600" y1="0" x2="1600" y2="3000" />
    <line x1="1700" y1="0" x2="1700" y2="3000" />
    <line x1="1800" y1="0" x2="1800" y2="3000" />
    <line x1="1900" y1="0" x2="1900" y2="3000" />
    <line x1="2000" y1="0" x2="2000" y2="3000" />
    <line x1="2100" y1="0" x2="2100" y2="3000" />
    <line x1="2200" y1="0" x2="2200" y2="3000" />
    <line x1="2300" y1="0" x2="2300" y2="3000" />
    <line x1="2400" y1="0" x2="2400" y2="3000" />
    <line x1="2500" y1="0" x2="2500" y2="3000" />
    <line x1="2600" y1="0" x2="2600" y2="3000" />
    <line x1="2700" y1="0" x2="2700" y2="3000" />
    <line x1="2800" y1="0" x2="2800" y2="3000" />
    <line x1="2900" y1="0" x2="2900" y2="3000" />
    <line x1="3000" y1="0" x2="3000" y2="3000" />
    <line x1="0" y1="0" x2="3000" y2="0" />
    <line x1="0" y1="100" x2="3000" y2="100" />
    <line x1="0" y1="200" x2="3000" y2="200" />
    <line x1="0" y1="300" x2="3000" y2="300" />
    <line x1="0" y1="400" x2="3000" y2="400" />
    <line x1="0" y1="500" x2="3000" y2="500" />
    <line x1="0" y1="600" x2="3000" y2="600" />
    <line x1="0" y1="700" x2="3000" y2="700" />
    <line x1="0" y1="800" x2="3000" y2="800" />
    <line x1="0" y1="900" x2="3000" y2="900" />
    <line x1="0" y1="1000" x2="3000" y2="1000" />
    <line x1="0" y1="1100" x2="3000" y2="1100" />
    <line x1="0" y1="1200" x2="3000" y2="1200" />
    <line x1="0" y1="1300" x2="3000" y2="1300" />
    <line x1="0" y1="1400" x2="3000" y2="1400" />
    <line x1="0" y1="1500" x2="3000" y2="1500" />
    <line x1="0" y1="1600" x2="3000" y2="1600" />
    <line x1="0" y1="1700" x2="3000" y2="1700" />
    <line x1="0" y1="1800" x2="3000" y2="1800" />
    <line x1="0" y1="1900" x2="3000" y2="1900" />
    <line x1="0" y1="2000" x2="3000" y2="2000" />
    <line x1="0" y1="2100" x2="3000" y2="2100" />
    <line x1="0" y1="2200" x2="3000" y2="2200" />
    <line x1="0" y1="2300" x2="3000" y2="2300" />
    <line x1="0" y1="2400" x2="3000" y2="2400" />
    <line x1="0" y1="2500" x2="3000" y2="2500" />
    <line x1="0" y1="2600" x2="3000" y2="2600" />
    <line x1="0" y1="2700" x2="3000" y2="2700" />
    <line x1="0" y1="2800" x2="3000" y2="2800" />
    <line x1="0" y1="2900" x2="3000" y2="2900" />
    <line x1="0" y1="3000" x2="3000" y2="3000" />
  </g>
  <circle cx="1500" cy="1500" r="1200" fill="#2a1530" stroke="#0e050f" stroke-width="3" />
  <circle cx="1500" cy="1500" r="600" fill="none" stroke="#cc44aa" stroke-width="3" stroke-dasharray="15,8" opacity="0.5" />
  <circle cx="1500" cy="500" r="15" fill="#cc44aa" stroke="#d088cc" stroke-width="2" opacity="0.8" />
  <text x="1500" y="528" fill="#d088cc" font-size="10" text-anchor="middle" font-family="monospace" opacity="0.7">Stone 1</text>
  <circle cx="2000" cy="633" r="15" fill="#cc44aa" stroke="#d088cc" stroke-width="2" opacity="0.8" />
  <text x="2000" y="661" fill="#d088cc" font-size="10" text-anchor="middle" font-family="monospace" opacity="0.7">Stone 2</text>
  <circle cx="2366" cy="1000" r="15" fill="#cc44aa" stroke="#d088cc" stroke-width="2" opacity="0.8" />
  <text x="2366" y="1028" fill="#d088cc" font-size="10" text-anchor="middle" font-family="monospace" opacity="0.7">Stone 3</text>
  <circle cx="2500" cy="1500" r="15" fill="#cc44aa" stroke="#d088cc" stroke-width="2" opacity="0.8" />
  <text x="2500" y="1528" fill="#d088cc" font-size="10" text-anchor="middle" font-family="monospace" opacity="0.7">Stone 4</text>
  <circle cx="2366" cy="1999" r="15" fill="#cc44aa" stroke="#d088cc" stroke-width="2" opacity="0.8" />
  <text x="2366" y="2027" fill="#d088cc" font-size="10" text-anchor="middle" font-family="monospace" opacity="0.7">Stone 5</text>
  <circle cx="2000" cy="2366" r="15" fill="#cc44aa" stroke="#d088cc" stroke-width="2" opacity="0.8" />
  <text x="2000" y="2394" fill="#d088cc" font-size="10" text-anchor="middle" font-family="monospace" opacity="0.7">Stone 6</text>
  <circle cx="1500" cy="2500" r="15" fill="#cc44aa" stroke="#d088cc" stroke-width="2" opacity="0.8" />
  <text x="1500" y="2528" fill="#d088cc" font-size="10" text-anchor="middle" font-family="monospace" opacity="0.7">Stone 7</text>
  <circle cx="1000" cy="2366" r="15" fill="#cc44aa" stroke="#d088cc" stroke-width="2" opacity="0.8" />
  <text x="1000" y="2394" fill="#d088cc" font-size="10" text-anchor="middle" font-family="monospace" opacity="0.7">Stone 8</text>
  <circle cx="633" cy="2000" r="15" fill="#cc44aa" stroke="#d088cc" stroke-width="2" opacity="0.8" />
  <text x="633" y="2028" fill="#d088cc" font-size="10" text-anchor="middle" font-family="monospace" opacity="0.7">Stone 9</text>
  <circle cx="500" cy="1500" r="15" fill="#cc44aa" stroke="#d088cc" stroke-width="2" opacity="0.8" />
  <text x="500" y="1528" fill="#d088cc" font-size="10" text-anchor="middle" font-family="monospace" opacity="0.7">Stone 10</text>
  <circle cx="633" cy="999" r="15" fill="#cc44aa" stroke="#d088cc" stroke-width="2" opacity="0.8" />
  <text x="633" y="1027" fill="#d088cc" font-size="10" text-anchor="middle" font-family="monospace" opacity="0.7">Stone 11</text>
  <circle cx="999" cy="633" r="15" fill="#cc44aa" stroke="#d088cc" stroke-width="2" opacity="0.8" />
  <text x="999" y="661" fill="#d088cc" font-size="10" text-anchor="middle" font-family="monospace" opacity="0.7">Stone 12</text>
  <circle cx="1500" cy="1500" r="200" fill="#2a1530" stroke="#0e050f" stroke-width="3" />
  <text x="1500" y="1500" fill="#d088cc" font-size="14" font-weight="bold" text-anchor="middle" dominant-baseline="central" font-family="monospace">Warp-Tree</text>
  <line x1="1500" y1="1500" x2="1680" y2="1500" stroke="#cc44aa" stroke-width="2" opacity="0.4" />
  <line x1="1500" y1="1500" x2="1627" y2="1627" stroke="#cc44aa" stroke-width="2" opacity="0.4" />
  <line x1="1500" y1="1500" x2="1500" y2="1680" stroke="#cc44aa" stroke-width="2" opacity="0.4" />
  <line x1="1500" y1="1500" x2="1372" y2="1627" stroke="#cc44aa" stroke-width="2" opacity="0.4" />
  <line x1="1500" y1="1500" x2="1320" y2="1500" stroke="#cc44aa" stroke-width="2" opacity="0.4" />
  <line x1="1500" y1="1500" x2="1372" y2="1372" stroke="#cc44aa" stroke-width="2" opacity="0.4" />
  <line x1="1500" y1="1500" x2="1500" y2="1320" stroke="#cc44aa" stroke-width="2" opacity="0.4" />
  <line x1="1500" y1="1500" x2="1627" y2="1372" stroke="#cc44aa" stroke-width="2" opacity="0.4" />
  <polyline points="1500,2900 1500,2700 1400,2500 1500,2300" fill="none" stroke="#2a1530" stroke-width="60" stroke-linecap="round" stroke-linejoin="round" opacity="0.6" />
  <polygon points="1500.0,1482.0 1503.4,1491.7 1512.7,1487.3 1508.3,1496.6 1518.0,1500.0 1508.3,1503.4 1512.7,1512.7 1503.4,1508.3 1500.0,1518.0 1496.6,1508.3 1487.3,1512.7 1491.7,1503.4 1482.0,1500.0 1491.7,1496.6 1487.3,1487.3 1496.6,1491.7" fill="#cc44aa" stroke="#ff88dd" stroke-width="1" opacity="0.8" />
  <rect x="300" y="1350" width="250" height="200" fill="#2a1530" stroke="#0e050f" stroke-width="3" />
  <text x="425" y="1442" fill="#d088cc" font-size="14" font-weight="bold" text-anchor="middle" dominant-baseline="central" font-family="monospace">Sealed</text>
  <text x="425" y="1460" fill="#d088cc" font-size="12" text-anchor="middle" dominant-baseline="central" font-family="monospace">Warp Tomb</text>
  <circle cx="550" cy="1450" r="8" fill="#cc3333" stroke="#ffcc00" stroke-width="2" />
  <rect x="2450" y="1350" width="250" height="200" fill="#2a1530" stroke="#0e050f" stroke-width="3" />
  <text x="2575" y="1442" fill="#d088cc" font-size="14" font-weight="bold" text-anchor="middle" dominant-baseline="central" font-family="monospace">Containment</text>
  <text x="2575" y="1460" fill="#d088cc" font-size="12" text-anchor="middle" dominant-baseline="central" font-family="monospace">Alcove</text>
  <circle cx="2450" cy="1450" r="8" fill="#cc3333" stroke="#ffcc00" stroke-width="2" />
  <rect x="1350" y="2400" width="300" height="200" fill="#2a1530" stroke="#0e050f" stroke-width="3" />
  <text x="1500" y="2492" fill="#d088cc" font-size="14" font-weight="bold" text-anchor="middle" dominant-baseline="central" font-family="monospace">Collapsed</text>
  <text x="1500" y="2510" fill="#d088cc" font-size="12" text-anchor="middle" dominant-baseline="central" font-family="monospace">Passage</text>
  <rect x="1488" y="2395" width="24" height="10" fill="#555544" stroke="#887766" stroke-width="1" />
  <line x1="1492" y1="2396" x2="1508" y2="2404" stroke="#aa8866" stroke-width="2" />
  <line x1="1508" y1="2396" x2="1492" y2="2404" stroke="#aa8866" stroke-width="2" />
  <rect x="700" y="2100" width="250" height="200" fill="#2a1530" stroke="#0e050f" stroke-width="3" />
  <text x="825" y="2200" fill="#d088cc" font-size="14" font-weight="bold" text-anchor="middle" dominant-baseline="central" font-family="monospace">Bone Niche</text>
  <rect x="813" y="2095" width="24" height="10" fill="#555544" stroke="#887766" stroke-width="1" />
  <line x1="817" y1="2096" x2="833" y2="2104" stroke="#aa8866" stroke-width="2" />
  <line x1="833" y1="2096" x2="817" y2="2104" stroke="#aa8866" stroke-width="2" />
  <rect x="2200" y="600" width="250" height="200" fill="#2a1530" stroke="#0e050f" stroke-width="3" />
  <text x="2325" y="692" fill="#d088cc" font-size="14" font-weight="bold" text-anchor="middle" dominant-baseline="central" font-family="monospace">Dormant</text>
  <text x="2325" y="710" fill="#d088cc" font-size="12" text-anchor="middle" dominant-baseline="central" font-family="monospace">Guardian</text>
  <circle cx="2325" cy="800" r="8" fill="#cc3333" stroke="#ffcc00" stroke-width="2" />
  <text x="2980" y="2985" fill="#ffffff" font-size="20" text-anchor="end" font-family="monospace" opacity="0.15">Warp Nexus</text>
</svg>